<?xml version="1.0" encoding="UTF-8"?>
<svg xmlns="http://www.w3.org/2000/svg" version="1.1"
     width="2481" height="3296" viewBox="0 0 2481 3296">
  <g id="outlines-solid" fill="none" stroke="#E2001A"
     stroke-linecap="round" stroke-linejoin="round">
    <path d="M 1542 1667 C 1542.77 1668.16 1543.6 1669.33 1545 1669.8 C 1547.49 1670.63 1571.44 1671.36 1575 1671 C 1577.42 1670.76 1579.57 1669.22 1582 1669 C 1583.75 1668.84 1592.63 1669.76 1595 1670 C 1621.68 1672.67 1648.78 1670.84 1675 1665.6 C 1677.73 1665.05 1682.53 1665.02 1684.8 1663.4 C 1686.12 1662.46 1686.78 1660.69 1688 1659.6 C 1691.66 1656.34 1695.69 1653.67 1699 1650 C 1700.4 1648.44 1701.03 1646.67 1702.2 1645 C 1705.34 1640.52 1709.22 1636.54 1712.4 1632 C 1725.64 1613.08 1734.7 1578.95 1737 1556 C 1737.43 1551.71 1736.57 1547.29 1737 1543 C 1738.18 1531.23 1738.18 1519.77 1737 1508 C 1736.37 1501.73 1737.63 1495.27 1737 1489 C 1734.94 1468.37 1734.06 1447.63 1732 1427 C 1730.66 1413.6 1727.34 1400.4 1726 1387 C 1725.66 1383.63 1724.34 1380.37 1724 1377 C 1723.02 1367.18 1720.63 1356.44 1717.8 1347 C 1715.84 1340.48 1715.36 1333.52 1713.4 1327 C 1710.73 1318.1 1709.07 1308.9 1706.4 1300 C 1705.12 1295.73 1703.28 1291.52 1702.2 1287.2 C 1695.79 1261.57 1685.64 1228.69 1673.8 1205 C 1661.9 1181.2 1647.13 1158.86 1635.2 1135 C 1626.37 1117.35 1615.63 1100.65 1606.8 1083 C 1603.01 1075.41 1597.42 1068.84 1593.2 1061.6 C 1578.05 1035.63 1560.19 1011.44 1540 989 C 1511.63 957.48 1472.97 931.89 1431.8 921.6 C 1426.91 920.38 1422.08 918.51 1417 918 C 1406.31 916.93 1395.69 915.07 1385 914 C 1382.03 913.7 1378.97 914.3 1376 914 C 1362.67 912.67 1349.33 911.33 1336 910 C 1331.83 909.58 1328.06 910.59 1324 911 C 1318.69 911.53 1313.31 911.47 1308 912 C 1301.37 912.66 1294.36 914.29 1288 916.2 C 1281.7 918.09 1275.31 919.71 1269 921.6 C 1245.91 928.53 1221.6 944.08 1202 957.8 C 1199.08 959.85 1196.88 962.78 1194 964.8 C 1167.83 983.12 1147.22 1007.42 1126 1031 C 1120.98 1036.58 1116.1 1042.86 1111.8 1049 C 1110.31 1051.14 1109.3 1053.86 1107.6 1055.8 C 1099.62 1064.92 1092.66 1074.94 1084.6 1084 C 1079.4 1089.85 1072.81 1094.77 1067 1100 C 1061.94 1104.55 1057.87 1110.37 1052.8 1114.8 C 1051.34 1116.07 1049.45 1116.7 1048 1118 C 1040.76 1124.51 1034.03 1131.58 1026 1137.2 C 1006.09 1151.14 985.9 1164.67 966 1178.6 C 953.6 1187.28 941.27 1196.86 930 1207 C 927.44 1209.31 925.06 1212.02 922.4 1214.2 C 915.25 1220.05 908.25 1226.06 902 1233 C 893.32 1242.64 887.78 1254.46 880.4 1265 C 873.45 1274.94 866.62 1286.15 861.2 1297 C 860.36 1298.68 859.95 1300.56 859 1302.2 C 857.78 1304.3 855.99 1306.02 854.6 1308 C 849.04 1315.94 843.76 1324.06 838.2 1332 C 830.47 1343.04 821.03 1353.97 811 1363 C 803.04 1370.17 794.61 1377.13 788.4 1386 C 779.98 1398.03 774.04 1426.19 769.6 1441 C 763.97 1459.77 758.97 1492.23 764.6 1511 C 767.25 1519.84 775.01 1526.34 781 1533 C 784.84 1537.27 788.12 1542.31 791.4 1547 C 800.52 1560.03 808.12 1574.83 815.2 1589 C 823.73 1606.05 834.51 1622.13 846.4 1637 C 851.76 1643.7 858.31 1649.96 866 1653.8 C 871.4 1656.5 878.12 1654.54 884 1657.8 C 886.03 1658.93 887.11 1661.27 889 1662.6 C 891.52 1664.37 894.65 1665.46 895 1669 C 895.56 1674.62 888.21 1676.79 885 1680 C 880.3 1684.7 873.57 1691.43 867.8 1694.8 C 865.96 1695.87 863.72 1696.2 862 1697.4 C 857.66 1700.44 853.54 1705.06 850 1709 C 840.3 1719.78 843.8 1727.02 840.2 1739 C 838.52 1744.6 836.42 1749.76 833.8 1755 C 830.16 1762.27 824.4 1769 819 1775 C 804.58 1791.02 786.75 1808.82 780.4 1830 C 778.57 1836.09 776.35 1842.48 777 1849 C 779.61 1875.12 790.93 1899.82 800.6 1924 C 808.05 1942.63 815.25 1961.09 824.2 1979 C 828.66 1987.93 835.12 1995.88 840.8 2004 C 848.52 2015.02 859.13 2023.11 869 2032 C 873.03 2035.63 878.63 2038.13 881.6 2042.8 C 884.85 2047.9 889.08 2052.56 891.8 2058 C 899.07 2072.53 907.26 2088.66 916.6 2102 C 920.05 2106.92 923.15 2112.08 926.6 2117 C 928.88 2120.26 932.48 2122.27 934.6 2125.6 C 935.88 2127.62 936.39 2129.99 937.8 2132 C 943.73 2140.48 951.1 2148.33 958 2156 C 969.27 2168.52 992.84 2190.9 1007 2199.4 C 1013.36 2203.22 1018.26 2209.43 1025 2212.8 C 1029.22 2214.91 1033.46 2217.04 1038 2218.4 C 1046.95 2221.08 1060.36 2223.02 1067.8 2228.6 C 1077.19 2235.65 1085.18 2244.11 1093 2252.8 C 1094.38 2254.34 1095.02 2256.32 1096.2 2258 C 1100.8 2264.57 1107.05 2270.65 1113 2276 C 1116.6 2279.24 1120.38 2280.66 1124.4 2283 C 1126.1 2283.99 1127.4 2285.48 1129 2286.6 C 1135.73 2291.31 1143.27 2294.89 1150 2299.6 C 1168.48 2312.53 1187.52 2324.67 1206 2337.6 C 1224.02 2350.22 1241.77 2362.81 1259 2376.6 C 1285.03 2397.42 1309.94 2420.17 1340 2435.2 C 1347.55 2438.97 1354.87 2443.76 1363 2446.2 C 1369.58 2448.17 1377.21 2449.32 1384 2450 C 1387.3 2450.33 1390.7 2449.67 1394 2450 C 1399.02 2450.5 1403.87 2451.51 1409 2451 C 1423.33 2449.57 1438.07 2448.58 1452 2444.4 C 1487.8 2433.66 1519.89 2412.9 1545 2385 C 1548.79 2380.78 1552.21 2376.22 1556 2372 C 1563.91 2363.21 1571.62 2353.69 1578.4 2344 C 1579.48 2342.45 1579.9 2340.57 1581 2339 C 1582.55 2336.79 1584.83 2335.25 1586.4 2333 C 1593.56 2322.76 1600.22 2312.26 1607.4 2302 C 1610.76 2297.2 1613.24 2291.8 1616.6 2287 C 1623.34 2277.37 1629.94 2266.51 1635.2 2256 C 1643.04 2240.32 1652.96 2225.68 1660.8 2210 C 1666.29 2199.02 1671.7 2188.07 1676.4 2176.8 C 1677.45 2174.27 1679.58 2172.43 1680.8 2170 C 1683.93 2163.73 1686.67 2157.27 1689.8 2151 C 1701.16 2128.27 1710.74 2103.66 1720.2 2080 C 1725.48 2066.8 1733.51 2050.7 1736 2037 C 1736.51 2034.19 1738.38 2031.72 1739.2 2029 C 1749.4 1995 1751.48 1954.25 1755 1919 C 1756.19 1907.09 1754.81 1894.91 1756 1883 C 1756.96 1873.42 1756.8 1865.79 1756 1856.2 C 1755.25 1847.21 1756.9 1837.98 1756 1829 C 1755.14 1820.35 1754.86 1811.65 1754 1803 C 1752.28 1785.76 1748.37 1768.56 1743.4 1752 C 1736.7 1729.68 1722.77 1709.16 1709 1690.8 C 1705.3 1685.87 1702.15 1680.61 1698 1676 C 1694.08 1671.64 1688.27 1668.9 1685 1664" stroke-width="4.00"/>
    <path d="M 1430 922 C 1425.94 934.17 1422.3 956.99 1421 970 C 1419.86 981.42 1416.14 992.58 1415 1004 C 1414.29 1011.06 1411.71 1017.94 1411 1025 C 1408.68 1048.17 1401.32 1070.83 1399 1094 C 1397.92 1104.76 1394.08 1115.24 1393 1126 C 1390.82 1147.81 1384.18 1169.19 1382 1191 C 1381.13 1199.71 1378 1208.2 1378 1217" stroke-width="2.00"/>
    <path d="M 1194 965 C 1199.61 973.41 1201.7 984 1206.2 993 C 1215.91 1012.41 1222.09 1033.59 1231.8 1053 C 1233.56 1056.52 1234.44 1060.48 1236.2 1064 C 1247.04 1085.68 1253.96 1109.32 1264.8 1131 C 1267.69 1136.79 1269.31 1143.21 1272.2 1149 C 1278.2 1161 1282.2 1174 1288.2 1186 C 1291.9 1193.4 1295.37 1201.12 1298 1209" stroke-width="2.00"/>
    <path d="M 1108 1056 C 1113.91 1061.91 1122.26 1078.12 1126.2 1086 C 1132.2 1098 1140.2 1109 1146.2 1121 C 1149.64 1127.88 1154.36 1134.12 1157.8 1141 C 1170.08 1165.56 1185.71 1188.43 1198 1213" stroke-width="2.00"/>
    <path d="M 1084 1085 C 1092.88 1098.32 1100.75 1112.25 1109 1126 C 1118.63 1142.06 1128.57 1157.95 1138.2 1174 C 1146.64 1188.07 1154.25 1203.59 1165 1216" stroke-width="2.83"/>
    <path d="M 1053 1115 C 1061.27 1123.27 1071.17 1144.38 1078.6 1155 C 1088.14 1168.62 1096.06 1183.38 1105.6 1197 C 1114.33 1209.47 1122.55 1222.33 1131 1235" stroke-width="2.83"/>
    <path d="M 1659 1183 C 1655.87 1185.09 1652.35 1186.53 1649 1188.2 C 1635.53 1194.93 1622.47 1202.47 1609 1209.2 C 1589.45 1218.97 1570.55 1230.03 1551 1239.8 C 1529.93 1250.33 1509.07 1261.27 1488 1271.8 C 1476.77 1277.41 1465.24 1282.38 1454 1288" stroke-width="2.00"/>
    <path d="M 1030 1193 C 1026.53 1194.73 1022.66 1193.5 1019 1194.6 C 1012.24 1196.63 1006.95 1202.32 1000 1204.4 C 995.98 1205.61 992.02 1206.99 988 1208.2 C 985.65 1208.91 983.38 1208.76 981 1209 C 971.49 1209.95 960.73 1215.27 954 1222 C 930.76 1245.24 959.38 1288.62 940 1308 C 923.44 1324.56 894.82 1315.18 882 1326.4 C 879.53 1328.56 881.51 1333.95 880.4 1337 C 879.57 1339.29 879.02 1341.98 877.6 1344 C 874.46 1348.48 869.25 1351.5 867.6 1357 C 866.32 1361.28 868.9 1368.56 865 1371.6 C 856.86 1377.93 835.1 1368.8 833.8 1374 C 832.9 1377.58 850.45 1377.18 846.6 1390 C 845.09 1395.03 839.73 1406.35 834.4 1407.8 C 831.32 1408.64 827.97 1408.32 825 1409.8 C 822.23 1411.18 819.43 1413.85 821 1417" stroke-width="2.00"/>
    <path d="M 1034 1203 C 1026.63 1210.37 1020.13 1218.62 1010 1222" stroke-width="2.83"/>
    <path d="M 1337 1654 C 1337.81 1651.58 1337.75 1649.48 1338 1647 C 1338.42 1642.81 1341.27 1632.42 1342.6 1628 C 1345.41 1618.63 1351.73 1611.81 1357.2 1604 C 1359.2 1601.14 1360.22 1597.82 1362.2 1595 C 1367.04 1588.09 1382.07 1572.21 1389 1567.8 C 1392.19 1565.77 1395.88 1565.38 1399 1563.2 C 1408.62 1556.47 1417.38 1548.53 1427 1541.8 C 1439.59 1532.99 1470.01 1513.18 1476 1500 C 1480.21 1490.73 1482 1480.02 1483 1470 C 1483.4 1466.04 1484.67 1462.18 1485 1458.2 C 1486.48 1440.5 1483.75 1422.45 1482 1405 C 1481.63 1401.3 1480.37 1397.7 1480 1394 C 1477.64 1370.44 1468.27 1337.89 1461.4 1315 C 1459.47 1308.57 1456.53 1302.44 1454.6 1296 C 1453.87 1293.58 1453.38 1290.95 1452.4 1288.6 C 1447.72 1277.38 1433.82 1253.94 1425 1246 C 1419.31 1240.88 1402.01 1227.56 1395.4 1224.8 C 1384.85 1220.4 1373.91 1216.87 1363 1213.6 C 1355.84 1211.45 1348.31 1211.73 1341 1211 C 1322.69 1209.17 1303.31 1209.17 1285 1211 C 1279.39 1211.56 1273.61 1210.44 1268 1211 C 1249.68 1212.83 1230.8 1214.7 1212.8 1219.2 C 1210.77 1219.71 1208.97 1220.81 1207 1221.4 C 1197.38 1224.29 1187.62 1226.71 1178 1229.6 C 1174.41 1230.68 1170.82 1233 1167 1233" stroke-width="2.00"/>
    <path d="M 924 1214 C 926.86 1219.72 924.6 1227.99 924 1234 C 923.74 1236.64 924.26 1239.36 924 1242 C 922.42 1257.84 918.26 1287.01 907.6 1299 C 902.12 1305.16 891.16 1309 883 1309 C 881.35 1309 879.65 1308.16 878 1308 C 871.95 1307.39 864.87 1308.06 860 1304" stroke-width="2.00"/>
    <path d="M 1211 1218 C 1207.32 1211.87 1190.92 1215 1185 1215" stroke-width="2.00"/>
    <path d="M 1179 1216 C 1176.69 1216 1175.19 1217.63 1173 1218 C 1170.33 1218.44 1167.35 1216.86 1165 1216" stroke-width="2.00"/>
    <path d="M 1003 1223 C 995.55 1224.24 990.19 1228.81 985 1234 C 973.32 1245.68 969.37 1259.69 971 1276 C 971.81 1284.14 972.82 1291.92 970.4 1300 C 961.13 1330.91 942.15 1336.08 913 1339 C 901.12 1340.19 893.45 1340.63 883 1333.67" stroke-width="2.00"/>
    <path d="M 1163 1235 C 1157.95 1238.37 1146.67 1244.71 1140.6 1244.2 C 1135.9 1243.81 1131.42 1242.4 1126.6 1242.8 C 1121.45 1243.23 1116.2 1245 1111 1245" stroke-width="2.00"/>
    <path d="M 1176 1239 C 1180.98 1239 1186.27 1237.22 1191 1235.8 C 1197.71 1233.79 1214.56 1231.74 1222 1231 C 1237.64 1229.44 1253.36 1228.56 1269 1227 C 1274.28 1226.47 1279.72 1227.53 1285 1227 C 1288.41 1226.66 1291.5 1225.65 1295 1226 C 1296.68 1226.17 1298.32 1226.83 1300 1227 C 1304.95 1227.5 1310.05 1226.5 1315 1227 C 1320.35 1227.53 1325.65 1228.47 1331 1229 C 1343.04 1230.2 1355.31 1231.09 1367 1234.6 C 1376.64 1237.49 1398.52 1250.27 1406 1257 C 1409.36 1260.02 1411.82 1263.82 1415 1267" stroke-width="2.00"/>
    <path d="M 1169 1242 C 1161.56 1243.24 1154.23 1247.23 1147 1249.4 C 1144.13 1250.26 1141.11 1249.87 1138.2 1250.6 C 1134.54 1251.52 1130.38 1253.51 1127 1255.2 C 1117.43 1259.98 1109.59 1268 1100 1272.8 C 1098.07 1273.76 1095.94 1273.63 1094 1274.4 C 1091.29 1275.49 1089.65 1278.48 1087 1279.8 C 1072.78 1286.91 1057.22 1291.09 1043 1298.2 C 1035.65 1301.88 1029.06 1306.77 1022 1311 C 1019.47 1312.52 1016.38 1313.33 1014 1315 C 1006.98 1319.91 1002.46 1332.54 996 1339 C 987.46 1347.54 975.74 1354.43 965 1359.8 C 962.25 1361.17 959.16 1361.53 956.4 1362.8 C 953.83 1363.98 952.22 1366.18 950 1367.8 C 947.56 1369.58 944.53 1370.31 942 1372" stroke-width="2.83"/>
    <path d="M 1140 1246 C 1140 1247 1140 1248 1140 1249" stroke-width="6.00"/>
    <path d="M 1098 1247 C 1093.83 1248.39 1088.68 1248.82 1085 1251.4 C 1081.25 1254.03 1077.77 1258.66 1073.6 1260.4 C 1069.87 1261.95 1059.52 1262.55 1055 1263 C 1048.75 1263.63 1042.17 1262.62 1036 1262 C 1026.91 1261.09 1016.82 1255.39 1008 1259.8 C 993.44 1267.08 990.94 1282.79 995.2 1297 C 996.67 1301.89 997.16 1307.16 1001 1311 C 1003.83 1313.83 1007.68 1313.34 1011 1315" stroke-width="2.00"/>
    <path d="M 1074 1262 C 1074 1270.71 1085.55 1271.37 1091 1275" stroke-width="2.83"/>
    <path d="M 1417 1270 C 1419.67 1272.67 1421.65 1275.93 1423.8 1279 C 1436.22 1296.75 1435.05 1303.84 1440.8 1323 C 1443.89 1333.29 1445.94 1344.37 1447 1355 C 1448.27 1367.67 1449.73 1380.33 1451 1393 C 1452.02 1403.17 1450 1413.03 1449 1423 C 1446.66 1446.42 1437.89 1467.73 1424.4 1487 C 1420.24 1492.94 1414.12 1497.88 1409 1503 C 1400.71 1511.29 1392.72 1520.15 1384 1528 C 1377.5 1533.85 1370.5 1539.15 1364 1545 C 1348.47 1558.98 1332.12 1572.61 1315 1584.6 C 1311.67 1586.93 1308.67 1589.76 1305 1591.6 C 1292.77 1597.71 1277.69 1585.11 1266 1581.6 C 1255.3 1578.39 1244.71 1574.81 1234 1571.6 C 1228.56 1569.97 1222.21 1569.68 1217 1567.6 C 1207.59 1563.84 1196.2 1561.02 1186 1560 C 1178.67 1559.27 1171.33 1558.73 1164 1558 C 1158.72 1557.47 1153.28 1558.53 1148 1558 C 1146.32 1557.83 1144.68 1557.17 1143 1557 C 1138.2 1556.52 1132.67 1558.07 1128 1556.8 C 1123.28 1555.51 1115.95 1549.48 1111 1547 C 1095.44 1539.22 1066.09 1527.71 1049 1526 C 1039.68 1525.07 1030.66 1530.6 1022 1533.2 C 1011.4 1536.38 979.79 1541.33 971 1534" stroke-width="4.00"/>
    <path d="M 1701 1290 C 1686.63 1294.79 1671.5 1297.25 1657 1301.6 C 1612.43 1314.97 1566.57 1324.03 1522 1337.4 C 1510.49 1340.85 1498.51 1342.75 1487 1346.2 C 1482.42 1347.57 1477.31 1347.84 1473 1350" stroke-width="2.00"/>
    <path d="M 1003 1326 C 996.94 1326 992.94 1332.01 987 1333" stroke-width="2.00"/>
    <path d="M 883 1333.67 C 875.6 1328.02 876.29 1328.29 869 1331.2 C 850.61 1338.56 856.7 1353.14 852 1356.8 C 848.02 1359.89 842.44 1356.56 838 1357 C 828.86 1357.91 820.72 1364.69 815.6 1372 C 813.32 1375.25 811.4 1379.9 816 1382.2 C 817.49 1382.94 819.45 1382.63 820.8 1383.6 C 823.25 1385.35 822.33 1390.58 821.6 1393 C 818.86 1402.13 805.29 1400.02 800.8 1409 C 799.07 1412.45 802.52 1421.85 802 1427 C 801.35 1433.53 796.09 1437.01 792.6 1442 C 790.98 1444.31 789.82 1446.81 788 1449" stroke-width="2.00"/>
    <path d="M 983 1336 C 971.88 1337.85 949.63 1346.25 957 1361" stroke-width="2.00"/>
    <path d="M 934 1356 C 940.76 1356 947.5 1359.33 953 1363" stroke-width="2.00"/>
    <path d="M 929 1359 C 923.66 1367.01 921 1370.13 921 1380" stroke-width="2.83"/>
    <path d="M 981 1359 C 981 1365.27 984.23 1372.46 987 1378" stroke-width="2.00"/>
    <path d="M 937 1374 C 927.63 1380.25 917.96 1382.16 910 1391 C 907.76 1393.48 902.81 1403.12 900 1403.4 C 893.81 1404.02 855.74 1398.49 863 1413" stroke-width="2.00"/>
    <path d="M 990 1383 C 991.47 1384.47 990.53 1385.53 992 1387" stroke-width="2.00"/>
    <path d="M 1471 1396 C 1474.48 1406.43 1471.93 1420.32 1473 1431 C 1474.22 1443.16 1474.85 1465.48 1471.4 1477 C 1467.9 1488.66 1460.09 1500.82 1451 1509 C 1438.55 1520.2 1426.45 1531.8 1414 1543 C 1409.16 1547.36 1396.56 1556.68 1393.2 1561 C 1392.26 1562.21 1392 1563.53 1392 1565" stroke-width="2.00"/>
    <path d="M 984 1399 C 987.29 1399 989.82 1397.32 993 1397 C 1000.59 1396.24 1010.81 1400.87 1017 1405" stroke-width="2.00"/>
    <path d="M 980 1401 C 977.52 1403.48 973.86 1404.09 971 1406" stroke-width="2.00"/>
    <path d="M 837 1409 C 841.98 1409 844.9 1406.9 849 1411" stroke-width="2.00"/>
    <path d="M 835 1410 C 832.64 1417.07 836.59 1422.86 844 1423.6 C 845.99 1423.8 848.11 1422.63 850 1423.2 C 853.52 1424.26 854.44 1428.53 858 1429.6 C 863.26 1431.18 871 1428.49 871 1422 C 871 1419.81 869.13 1417.7 868 1416" stroke-width="2.00"/>
    <path d="M 853 1414 C 859.15 1417.07 875.84 1410.94 883 1417.2 C 886.74 1420.47 875.46 1426.48 873.2 1431 C 871.21 1434.98 866.52 1458.48 866.4 1458.6 C 863.34 1461.66 850.13 1449.19 846.6 1458 C 845.51 1460.72 857.13 1475.8 858 1481" stroke-width="2.00"/>
    <path d="M 825 1420 C 828.02 1426.03 824.26 1437.78 820.6 1443 C 818.35 1446.22 814.99 1448.42 813.2 1452 C 807.48 1463.44 804.86 1476.35 797.4 1487 C 794.46 1491.2 787 1494.2 787 1500 C 787 1503.67 790.48 1506.26 792.4 1509 C 794.57 1512.1 795.93 1516.41 799 1518.8 C 805.73 1524.04 814.18 1517.76 827 1532 C 834.5 1540.33 836.48 1553.41 838.6 1564 C 839.15 1566.75 838.72 1569.43 840 1572" stroke-width="2.00"/>
    <path d="M 785 1456 C 773.11 1473.83 767.5 1499.29 780.6 1518 C 782.98 1521.4 786.25 1523.94 789 1527 C 795.25 1533.95 800.39 1541.73 806.2 1549 C 809.63 1553.29 813.46 1557.52 816.6 1562 C 821.72 1569.31 824.64 1577 835 1577" stroke-width="2.83"/>
    <path d="M 1486 1460 C 1510.67 1460 1535.33 1460 1560 1460 C 1570.82 1460 1582.25 1458.92 1593 1460 C 1595.39 1460.24 1597.56 1461 1600 1461 C 1615 1461 1630 1461 1645 1461 C 1651.88 1461 1659.16 1460.32 1666 1461 C 1667.68 1461.17 1669.32 1461.83 1671 1462 C 1683.21 1463.22 1695.79 1460.78 1708 1462 C 1716.69 1462.87 1725.21 1463 1734 1463" stroke-width="2.00"/>
    <path d="M 847 1488 C 851.59 1481.11 850.45 1474.56 844 1469.4 C 841.9 1467.72 838.79 1466 836 1466 C 830.94 1466 821.17 1473.05 818.4 1477 C 814.07 1483.18 819.77 1494.28 827 1495 C 831.94 1495.49 836.43 1493.52 841 1492" stroke-width="2.00"/>
    <path d="M 861 1490 C 863.43 1494.87 864.48 1500.82 868.2 1505 C 872.4 1509.73 881 1506.6 881 1516 C 881 1521.3 872.07 1519.48 869 1520.4 C 863.57 1522.03 863.76 1526.4 867 1530 C 874.93 1538.81 886.49 1542.75 896 1549.4 C 899.53 1551.87 901.18 1555.87 904 1559 C 908.25 1563.73 926.25 1576.51 927 1581" stroke-width="2.83"/>
    <path d="M 1476 1504 C 1483.73 1509.15 1492.68 1514.04 1501 1518.2 C 1515.21 1525.31 1527.82 1535.71 1542 1542.8 C 1551.8 1547.7 1562 1554.1 1571 1560.4 C 1577.99 1565.29 1586.01 1568.71 1593 1573.6 C 1614.92 1588.94 1639.09 1601.06 1661 1616.4 C 1671.1 1623.47 1681.9 1629.53 1692 1636.6 C 1695.27 1638.89 1698.41 1641.21 1702 1643" stroke-width="2.83"/>
    <path d="M 1457 1523 C 1465.67 1536 1474.22 1550.04 1481.2 1564 C 1485.64 1572.88 1491.36 1581.12 1495.8 1590 C 1506.45 1611.29 1517.53 1633.09 1524.4 1656 C 1525.53 1659.76 1525.99 1663.7 1527 1667.5" stroke-width="2.00"/>
    <path d="M 1136 1552 C 1136 1553.8 1137 1554.42 1137 1556" stroke-width="2.83"/>
    <path d="M 1125 1557 C 1123.11 1562.67 1114.44 1568 1110 1572 C 1102.33 1578.91 1093.31 1585.8 1084.4 1591 C 1081.29 1592.82 1077.29 1593.35 1074 1595 C 1070.74 1596.63 1066.99 1598.31 1064 1600.4 C 1061.17 1602.38 1059.15 1605.23 1056 1606.8 C 1039.97 1614.82 1009.02 1621 991 1621" stroke-width="2.41"/>
    <path d="M 891.33 1591.67 C 882.69 1586.35 874.09 1580.54 865 1576 C 858.96 1572.98 841.66 1569.51 837.2 1576.2 C 835.84 1578.24 836.08 1580.74 835.4 1583 C 829.99 1601.02 844.25 1623.95 856 1637 C 861.74 1643.38 870.18 1646.77 875 1654" stroke-width="2.83"/>
    <path d="M 990 1598 C 974.4 1598 954.95 1591.08 940 1586.6 C 935.68 1585.3 932.28 1582.39 927.6 1582 C 923.51 1581.66 918.56 1583.08 916.6 1587 C 914.56 1591.08 917.43 1593.89 919.6 1597 C 924.53 1604.05 928.64 1605.52 936 1609.2 C 952.42 1617.41 964.52 1621 983 1621" stroke-width="2.00"/>
    <path d="M 891.33 1591.67 C 899.59 1592.26 915.57 1602.81 921 1601" stroke-width="2.00"/>
    <path d="M 1294 1594 C 1294 1600.9 1297.7 1606.98 1297 1614 C 1296.63 1617.69 1295.34 1621.3 1295 1625 C 1293.78 1638.39 1291.34 1651.64 1290 1665 C 1289.39 1671.08 1290.4 1677.03 1291 1683 C 1291.65 1689.5 1291.46 1696.09 1292 1702.6 C 1292.94 1713.94 1299.54 1744.92 1295 1754" stroke-width="2.00"/>
    <path d="M 1301 1594 C 1301 1597.12 1299.2 1598.8 1297 1601" stroke-width="4.00"/>
    <path d="M 891.33 1591.67 C 892.33 1597.62 897.8 1600.22 902 1604 C 905.48 1607.13 912.48 1614.61 915.6 1616.8 C 923.74 1622.5 934.65 1624.8 944 1627.6 C 956.29 1631.29 968.71 1634.51 981 1638.2 C 992.77 1641.73 1005.9 1642.79 1018 1644 C 1034.37 1645.64 1050.63 1648.36 1067 1650 C 1077.37 1651.04 1088.06 1653.62 1098 1656.6 C 1100.86 1657.46 1103.35 1659.49 1106.2 1660.2 C 1110.21 1661.2 1114.84 1659.58 1119 1660 C 1123.76 1660.48 1128.16 1661 1133 1661" stroke-width="2.00"/>
    <path d="M 994 1600 C 1004.32 1600 1014.75 1601.98 1025 1603 C 1031.93 1603.69 1040.1 1603.69 1047 1603 C 1049.4 1602.76 1051.57 1602 1054 1602" stroke-width="2.00"/>
    <path d="M 916 1619 C 914.08 1622.84 922 1637 917 1647" stroke-width="2.00"/>
    <path d="M 1341 1642 C 1349.16 1643.36 1351 1656.4 1351 1663" stroke-width="2.83"/>
    <path d="M 885 1658 C 889.19 1654.51 894.97 1656.5 900 1656 C 903.07 1655.69 905.84 1654.68 909 1655 C 915.16 1655.62 922.58 1660.8 923.2 1667 C 924.03 1675.27 918.7 1681.49 910.2 1682.2 C 906.54 1682.5 902.7 1681.63 899 1682 C 893.93 1682.51 887.77 1686.38 883 1684" stroke-width="2.00"/>
    <path d="M 1157 1661 C 1164.62 1661 1212.34 1660.62 1211.4 1670 C 1210.32 1680.83 1154.69 1680 1145 1680" stroke-width="2.00"/>
    <path d="M 1108 1662 C 1108.4 1664.42 1109.76 1666.55 1110 1669 C 1110.45 1673.48 1108.7 1676.78 1108 1681" stroke-width="2.00"/>
    <path d="M 1338 1662 C 1334.09 1665.91 1337.05 1669.84 1338.25 1674.25" stroke-width="2.00"/>
    <path d="M 1338.25 1674.25 C 1340.12 1671.13 1342.02 1671.29 1345 1669.8 C 1348.03 1668.29 1350.35 1664.78 1353.8 1664.2 C 1356.86 1663.69 1369.37 1671.29 1371 1674" stroke-width="4.00"/>
    <path d="M 1527 1667.5 C 1530.97 1666.51 1535.06 1667.72 1539 1667 C 1541.71 1666.51 1543.44 1663.97 1546 1663.2 C 1555.2 1660.44 1561.05 1660.72 1570 1663.4 C 1572.99 1664.3 1576.3 1665.16 1578 1668" stroke-width="4.00"/>
    <path d="M 1527 1667.5 C 1519.73 1669.32 1506.74 1668.23 1499 1669 C 1478.08 1671.09 1456.92 1670.91 1436 1673 C 1429.07 1673.69 1421.93 1672.31 1415 1673 C 1413.32 1673.17 1411.68 1673.83 1410 1674 C 1399.77 1675.02 1389.23 1672.98 1379 1674 C 1368.62 1675.04 1359.47 1681.59 1349 1683.33" stroke-width="4.00"/>
    <path d="M 1527 1667.5 C 1527 1702.82 1497.58 1767.17 1477.4 1796 C 1472.72 1802.68 1462.3 1817.41 1459 1824" stroke-width="2.00"/>
    <path d="M 1216 1676 C 1218.58 1678.58 1220.97 1680.98 1224 1683" stroke-width="2.00"/>
    <path d="M 1338.25 1674.25 C 1339.99 1677.37 1345.44 1682.54 1349 1683.33" stroke-width="4.47"/>
    <path d="M 1338.25 1674.25 C 1334.58 1682.93 1337.09 1691.93 1338 1701 C 1339.57 1716.72 1343.32 1734.76 1354.2 1747 C 1356.93 1750.07 1361.28 1751.76 1363.8 1755 C 1366.57 1758.56 1369.57 1763.62 1372.2 1767 C 1376.08 1771.99 1384.13 1776.62 1389 1781 C 1413.48 1803.03 1445.27 1821.86 1467 1846 C 1479.52 1859.91 1484.19 1877.94 1486 1896 C 1486.87 1904.68 1488.13 1913.32 1489 1922 C 1489.48 1926.81 1488.47 1931.3 1488 1936 C 1487.7 1938.97 1488.3 1942.03 1488 1945 C 1486.18 1963.23 1481 1980.98 1478 1999" stroke-width="2.00"/>
    <path d="M 1136 1681 C 1128.19 1681 1120.71 1681.23 1113 1682 C 1109.37 1682.36 1105.63 1681.64 1102 1682 C 1094.42 1682.76 1086.61 1686 1079 1686" stroke-width="2.00"/>
    <path d="M 913 1684 C 915.48 1688.96 919.74 1692.47 921.4 1698 C 923.7 1705.68 921.72 1726.45 923 1729" stroke-width="2.00"/>
    <path d="M 1349 1683.33 C 1347.23 1692.2 1349.62 1703.19 1340 1708" stroke-width="2.00"/>
    <path d="M 1076 1687 C 1065.02 1687 1053.93 1691.91 1043 1693 C 1034.95 1693.81 1027.05 1696.19 1019 1697 C 983.97 1700.5 960.86 1712.37 930 1727.8 C 927.97 1728.82 925.52 1729.18 923.6 1730.4 C 921.46 1731.76 920.06 1733.96 918 1735.4 C 915.37 1737.24 912.64 1738.96 910 1740.8 C 904.26 1744.82 900.18 1750.54 897.6 1757 C 896.73 1759.18 896.66 1761.15 895 1763 C 892.62 1765.64 889.91 1768.56 887 1770.6 C 883.35 1773.16 877.94 1774.33 875 1777.6 C 872.19 1780.72 872.75 1785.18 869 1787.8 C 866.17 1789.78 849.79 1789.7 846.2 1788.8 C 842.56 1787.89 840.07 1784.63 836 1785 C 817.24 1786.71 792.81 1817.88 791 1836 C 788.7 1858.99 800.23 1879.91 817 1895 C 821.41 1898.97 832.08 1901.71 834.2 1907 C 836.26 1912.14 827.43 1913.35 825.6 1917 C 823.21 1921.77 823.07 1935.89 824.6 1941 C 825.8 1945 827.56 1950.12 831 1952.8 C 835.28 1956.13 840.98 1953.11 847.2 1962 C 851.36 1967.94 845.96 1970.37 845.4 1976 C 844.88 1981.24 849.72 1988.89 852.6 1993 C 860.04 2003.62 872.03 2007.19 884 2003.6 C 885.92 2003.02 887.57 2002.81 889 2001.2 C 891.24 1998.68 891.25 1995.78 892.4 1992.8 C 893.69 1989.45 895.98 1986.23 897.6 1983 C 902.97 1972.26 906.62 1960.77 912 1950" stroke-width="2.00"/>
    <path d="M 1233 1688 C 1243.99 1697.16 1264.09 1700.61 1278 1702 C 1279.65 1702.16 1281.35 1703 1283 1703 C 1285.65 1703 1288.28 1702 1291 1702" stroke-width="2.00"/>
    <path d="M 1707 1690 C 1695.58 1701.42 1681.97 1710.22 1670 1721 C 1650.65 1738.42 1627.52 1755.38 1607 1771.8 C 1591.36 1784.31 1575.63 1796.7 1560 1809.2 C 1550.11 1817.12 1540.37 1825.54 1530 1832.8 C 1517.9 1841.27 1507.3 1851.8 1495 1860" stroke-width="2.83"/>
    <path d="M 1243 1695 C 1240.85 1699.3 1241.49 1707.13 1241 1712 C 1239.9 1723 1234.72 1754.43 1229 1763" stroke-width="2.00"/>
    <path d="M 867 1697 C 865.95 1703.29 861.02 1708.37 858.2 1714 C 852.19 1726.02 851.71 1736.06 853 1749 C 853.4 1752.96 853.24 1757.13 854.4 1761 C 855.38 1764.26 857.92 1766.77 859 1770" stroke-width="2.00"/>
    <path d="M 992 1726 C 1016.36 1726 1041.19 1728.28 1064 1737.4 C 1068.98 1739.39 1084.42 1748.13 1087 1748.6 C 1090.85 1749.3 1093.33 1747.37 1097 1747 C 1100.3 1746.67 1103.7 1747.33 1107 1747 C 1114.7 1746.23 1122.22 1745 1130 1745" stroke-width="2.00"/>
    <path d="M 1237 1726 C 1232.91 1723.95 1220.46 1724.46 1216 1725.8 C 1212.91 1726.73 1210.29 1728 1207 1728" stroke-width="2.00"/>
    <path d="M 988 1727 C 962.69 1727 932.51 1733.54 915 1753 C 912.91 1755.32 909.64 1757.44 910 1761 C 910.96 1770.65 933.19 1763.58 939 1763 C 943.22 1762.58 947.03 1763.59 951 1761.6 C 956.34 1758.93 967.29 1750.81 973 1747" stroke-width="2.00"/>
    <path d="M 1204 1729 C 1194.25 1735.5 1145.83 1744 1133 1744" stroke-width="2.00"/>
    <path d="M 978 1744 C 982.69 1744 987.28 1741.47 992 1741 C 1005.2 1739.68 1018.05 1743.7 1031 1745 C 1049.17 1746.82 1067.38 1748.91 1085 1754.2 C 1087.2 1754.86 1089.61 1754.49 1091.8 1755.4 C 1095.07 1756.76 1097.84 1759.22 1101 1760.8 C 1109.5 1765.05 1118.15 1769.11 1126 1774.6 C 1130.46 1777.72 1139.09 1786.55 1144 1787 C 1150.1 1787.55 1156.02 1786.6 1162 1786 C 1165.63 1785.64 1169.37 1786.36 1173 1786 C 1183.99 1784.9 1195.01 1784.1 1206 1783 C 1212.79 1782.32 1218.89 1779.03 1225.4 1777.4 C 1231.38 1775.91 1237.1 1774.17 1243 1772.4 C 1252.28 1769.62 1290.62 1754.16 1297 1754.8 C 1304.92 1755.59 1335.74 1780.42 1344 1786.2 C 1357.85 1795.9 1371.42 1806.67 1384 1818 C 1391.03 1824.33 1398.97 1829.67 1406 1836 C 1423.64 1851.88 1439.58 1869.75 1450.2 1891 C 1452.63 1895.86 1455.83 1900.76 1457.4 1906 C 1461.54 1919.81 1467.4 1954.01 1466 1968 C 1465.37 1974.32 1463.45 1980.77 1462.2 1987 C 1457.33 2011.34 1443.45 2053.93 1429.4 2074 C 1424.12 2081.54 1415.45 2087.58 1408 2092.8 C 1399.44 2098.79 1390.16 2105.55 1380 2108.6 C 1375.93 2109.82 1371.21 2110.58 1367 2111 C 1360.63 2111.64 1354.37 2113.36 1348 2114 C 1345.03 2114.3 1341.97 2113.7 1339 2114 C 1325.54 2115.35 1314.39 2114.34 1301 2113 C 1293.71 2112.27 1286.29 2112.73 1279 2112 C 1255.43 2109.64 1230.81 2106.24 1208 2099.4 C 1194.18 2095.25 1180.82 2089.55 1167 2085.4 C 1164.65 2084.7 1149.82 2079.43 1148.4 2078.6 C 1145.71 2077.03 1143.55 2074.59 1141 2072.8 C 1134.37 2068.16 1126.75 2062.58 1119 2060" stroke-width="2.83"/>
    <path d="M 1090 1750 C 1090 1751 1090 1752 1090 1753" stroke-width="6.00"/>
    <path d="M 904 1759 C 902.27 1760.73 898.95 1762.95 897 1761" stroke-width="2.41"/>
    <path d="M 1372 1762 C 1378.83 1762 1403.94 1784.26 1411 1789.2 C 1418.96 1794.77 1426.04 1801.62 1434 1807.2 C 1440.6 1811.82 1446.4 1817.58 1453 1822.2 C 1464.95 1830.56 1484.82 1845.21 1491.8 1858 C 1497.02 1867.56 1497.94 1880.4 1499 1891 C 1499.19 1892.89 1500.24 1894.52 1500.4 1896.4 C 1501.25 1906.62 1499.06 1924.41 1498 1935 C 1497.47 1940.31 1497.53 1945.69 1497 1951 C 1496.36 1957.37 1494.64 1963.63 1494 1970 C 1493.6 1973.98 1493.57 1978.52 1492.6 1982.4 C 1488.47 1998.92 1485.29 2015.69 1480.4 2032 C 1470.99 2063.37 1449.26 2106.72 1422 2125.8 C 1417.04 2129.28 1411.33 2131.53 1406 2134.2 C 1404.1 2135.15 1402.58 2136.57 1400.6 2137.4 C 1394.06 2140.12 1385.92 2139.31 1379 2140 C 1373.32 2140.57 1367.68 2141.43 1362 2142 C 1353.56 2142.84 1345.29 2140.83 1337 2140 C 1321.64 2138.46 1306.35 2136.53 1291 2135 C 1283.95 2134.3 1276.92 2131.98 1270 2130.6 C 1257.97 2128.19 1246.04 2125.41 1234 2123 C 1230.66 2122.33 1227.02 2122.6 1223.8 2121.8 C 1217.74 2120.29 1211.98 2117.39 1206 2115.6 C 1200.82 2114.05 1194.52 2112.01 1190 2109" stroke-width="2.00"/>
    <path d="M 945 1764 C 944.59 1766.43 943.66 1768.16 942 1770 C 932.81 1780.22 923.18 1789.8 914 1800 C 909.8 1804.66 898.94 1823.42 895 1825 C 892.13 1826.15 888.06 1824.69 885 1825 C 879.3 1825.57 868.1 1826.75 865.6 1833 C 863.62 1837.94 872.4 1838 875 1838" stroke-width="2.83"/>
    <path d="M 1228 1768 C 1225.87 1770.13 1225 1773.04 1225 1776" stroke-width="2.83"/>
    <path d="M 874 1777 C 871.31 1774.76 868.41 1772.62 865 1771.6 C 855.78 1768.83 840.71 1773.75 839 1784" stroke-width="2.83"/>
    <path d="M 848 1790 C 848 1793.79 851.21 1795.83 852.8 1799 C 855.21 1803.83 853.3 1811.4 851 1816" stroke-width="2.00"/>
    <path d="M 1137 1792 C 1134.77 1793.11 1132.26 1793.27 1130 1794.4 C 1125.65 1796.57 1121.35 1798.83 1117 1801 C 1112.02 1803.49 1111.58 1808.13 1104 1810.4 C 1100.34 1811.5 1095.82 1812.38 1092 1812 C 1089.59 1811.76 1087.52 1810.37 1085 1810.6 C 1075.31 1811.48 1065.39 1815.7 1056 1811" stroke-width="6.00"/>
    <path d="M 1115 1802 C 1109.42 1799.21 1093.21 1804.79 1089 1809" stroke-width="4.00"/>
    <path d="M 1045 1808 C 1035.73 1808 1027.23 1803.92 1018 1803 C 1002.44 1801.44 986.97 1807.03 976 1818" stroke-width="2.00"/>
    <path d="M 850 1819 C 850 1821.52 848.76 1822.24 847 1824" stroke-width="2.41"/>
    <path d="M 843 1827 C 833.28 1827 831.37 1823.74 824 1823 C 813.85 1821.99 808.98 1836.19 808.2 1844 C 807.86 1847.4 815.07 1855.73 818 1857.2 C 819.57 1857.99 821.43 1858.01 823 1858.8 C 828.16 1861.38 833.71 1865.14 838 1869 C 844.03 1874.43 848.79 1880.42 853.4 1887 C 861.04 1897.92 859.73 1912.53 854 1924 C 853.12 1925.77 851.19 1927.94 851.4 1930 C 851.55 1931.46 865.45 1940.9 869 1948 C 875.02 1960.04 864.35 1972.77 865.2 1977 C 866.57 1983.85 876.89 1984.07 882 1985.6 C 885.68 1986.7 888.84 1988.9 892 1991" stroke-width="2.00"/>
    <path d="M 1028 1842 C 1036.89 1837.56 1048.92 1832.15 1056.8 1842 C 1058.74 1844.42 1059.73 1847.91 1058.8 1851 C 1056.75 1857.83 1040.17 1858.65 1033 1873" stroke-width="2.00"/>
    <path d="M 892 1845 C 886.07 1843.02 881.28 1841.6 876 1846" stroke-width="2.83"/>
    <path d="M 1025 1845 C 1013.07 1859.31 1004 1875.1 1004 1894 C 1004 1899.13 1004.16 1903.16 1008 1907 C 1009.72 1908.72 1011.59 1910.88 1014 1911.6 C 1025.86 1915.16 1024.76 1897.81 1026.8 1891 C 1028.11 1886.64 1029.56 1882.33 1031 1878" stroke-width="2.00"/>
    <path d="M 1755 1859 C 1738.07 1861.82 1721.05 1865.29 1704 1867 C 1695.62 1867.84 1687.38 1870.16 1679 1871 C 1667.94 1872.11 1657.06 1874.89 1646 1876 C 1631.25 1877.48 1616.75 1881.52 1602 1883 C 1587.28 1884.47 1572.72 1887.53 1558 1889 C 1554.3 1889.37 1550.7 1890.63 1547 1891 C 1532.03 1892.5 1516.85 1894.53 1502 1897" stroke-width="2.00"/>
    <path d="M 871 1864 C 872.03 1867.09 872.82 1870.61 876 1872.2 C 879.55 1873.98 884.02 1871.64 886.2 1876 C 888.11 1879.83 886.59 1884.89 887 1889 C 888.12 1900.23 891.18 1911.26 894.4 1922 C 895.16 1924.53 894.68 1927.38 895.8 1929.8 C 897.08 1932.57 899.93 1933.93 902 1936 C 905.57 1939.57 907.91 1944.68 911.6 1948 C 921.49 1956.9 952.21 1973.81 965 1980.2 C 969.37 1982.39 973.9 1984.52 978.4 1986.4 C 980.23 1987.16 982.22 1987.31 984 1988.2 C 987.84 1990.12 991.34 1992.8 995 1995 C 997.5 1996.5 1001.49 2001.62 1004.8 2000.2 C 1007.78 1998.92 1006.89 1992.55 1007.4 1990 C 1008.64 1983.8 1008.98 1977.06 1010.8 1971 C 1012.17 1966.43 1014.22 1961.71 1015 1957" stroke-width="2.00"/>
    <path d="M 1048 1898 C 1045.9 1902.2 1042.95 1906.5 1041.6 1911 C 1040.05 1916.17 1037.3 1926.85 1034.4 1931 C 1032.3 1933.99 1028.27 1937.77 1025 1939.4 C 1012.57 1945.61 986.66 1936.11 976 1929" stroke-width="2.00"/>
    <path d="M 885 1924 C 886.28 1924.85 892.34 1927.45 894 1928" stroke-width="2.00"/>
    <path d="M 877 1927 C 874.48 1930.78 874.66 1935.66 878 1939" stroke-width="2.00"/>
    <path d="M 896 1934 C 896 1945 894.68 1946.34 884 1941" stroke-width="2.00"/>
    <path d="M 1019 1950 C 1017.53 1951.47 1018.47 1952.53 1017 1954" stroke-width="2.00"/>
    <path d="M 1494 1983 C 1502.63 1983 1528.18 1988.55 1537 1991.2 C 1543.18 1993.05 1549.82 1993.35 1556 1995.2 C 1563.46 1997.44 1571.54 1997.56 1579 1999.8 C 1602.17 2006.75 1627.86 2008.26 1651 2015.2 C 1655.21 2016.46 1659.79 2016.54 1664 2017.8 C 1680.95 2022.88 1699.05 2024.12 1716 2029.2 C 1722.31 2031.09 1729.03 2031.02 1735 2034" stroke-width="2.00"/>
    <path d="M 978 1988 C 975.11 1993.78 979.89 2006.98 983.4 2012 C 986.19 2015.98 989.82 2019.64 992 2024" stroke-width="2.00"/>
    <path d="M 893 1996 C 897.31 1998.16 902.43 1996.23 907 1997.6 C 913.66 1999.6 919.27 2004.38 926 2006.4 C 928.69 2007.21 931.28 2006.73 934 2007 C 944.7 2008.07 956.87 2009.01 966 2015.4 C 969.89 2018.13 971.95 2022.22 974.6 2026 C 983.79 2039.13 991.39 2057.94 993 2074 C 993.96 2083.63 994.77 2092.15 999.2 2101 C 1003.09 2108.78 1010.62 2119.65 1019 2123 C 1024.59 2125.24 1029.83 2117.62 1034.8 2124 C 1037.65 2127.66 1036.94 2132.89 1039 2137" stroke-width="2.00"/>
    <path d="M 890 2005 C 900.15 2011.77 910.04 2019.32 921 2024.8 C 925.39 2026.99 929.45 2026.44 934 2027.8 C 943.92 2030.78 953.33 2036.33 959.4 2045 C 967.13 2056.04 968.71 2071.07 970 2084 C 970.62 2090.17 972.84 2096.14 974.6 2102 C 978.06 2113.53 990.12 2132.83 1002 2136.4 C 1006.73 2137.82 1010.64 2136.55 1015 2139.6 C 1021.56 2144.19 1022.56 2152.28 1030 2156" stroke-width="2.00"/>
    <path d="M 889 2006 C 884.62 2014.76 882.44 2030.47 877 2037" stroke-width="2.00"/>
    <path d="M 1010 2009 C 1013.03 2013.54 1016.04 2019.61 1020.6 2022.8 C 1022.21 2023.93 1024.22 2024.09 1026 2024.8 C 1035.89 2028.76 1045.85 2030.75 1056 2033.8 C 1061.8 2035.54 1067.2 2038.66 1073 2040.4 C 1079.15 2042.24 1088.45 2044.43 1094 2047.2 C 1096.66 2048.53 1099.04 2050.45 1101.8 2051.6 C 1106 2053.35 1110.1 2054.4 1114 2057" stroke-width="2.00"/>
    <path d="M 1020 2024 C 1016 2032 1009.63 2038.46 1007.4 2047.4 C 1004.33 2059.68 1013.71 2070.3 1023 2076.8 C 1025.53 2078.57 1027.78 2080.68 1031 2081 C 1036.03 2081.5 1053.57 2076.74 1061 2076 C 1063.28 2075.77 1065.19 2077.22 1067.4 2077.4 C 1071.52 2077.74 1075.83 2078 1080 2078" stroke-width="2.00"/>
    <path d="M 999 2035 C 1000.47 2039.4 1002.66 2044.66 1006 2048" stroke-width="2.00"/>
    <path d="M 882 2040 C 886.51 2036.99 891.94 2037.61 897 2036.6 C 905.73 2034.85 912.13 2036.71 919 2042.2 C 937.56 2057.05 938.16 2087.38 936 2109 C 935.54 2113.56 937.12 2118.77 935 2123" stroke-width="2.00"/>
    <path d="M 1099 2052 C 1094.25 2054.38 1088.67 2055.93 1085 2060 C 1075.75 2070.28 1080.85 2086.46 1094 2090.4 C 1103.31 2093.19 1121.46 2090.31 1131 2088.4 C 1135.5 2087.5 1139.64 2085.56 1144.2 2084.8 C 1144.68 2084.72 1148 2083.79 1148 2084" stroke-width="2.00"/>
    <path d="M 1464 2078 C 1473.52 2081.17 1483.05 2085.32 1492 2089.8 C 1505.07 2096.33 1518.93 2101.27 1532 2107.8 C 1541.79 2112.69 1552.21 2116.31 1562 2121.2 C 1599.31 2139.85 1637.68 2156.34 1675 2175" stroke-width="2.00"/>
    <path d="M 1068 2079 C 1065.93 2083.13 1064.89 2087.82 1062.8 2092 C 1056.23 2105.15 1050.77 2118.85 1044.2 2132 C 1042.97 2134.47 1040.32 2135.62 1039 2138 C 1037.35 2140.97 1037.37 2144.87 1035.8 2148 C 1029.5 2160.6 1023.53 2173.35 1017.2 2186 C 1014.82 2190.76 1013.47 2195.84 1010 2200" stroke-width="2.00"/>
    <path d="M 1148 2084 C 1152.34 2084 1155.5 2091.75 1159 2094.2 C 1165.64 2098.85 1178 2105.67 1186 2107" stroke-width="2.00"/>
    <path d="M 1148 2084 C 1143.91 2090.14 1149.49 2094.74 1153 2100" stroke-width="2.83"/>
    <path d="M 1146 2092 C 1141 2097 1132.26 2114.07 1128.8 2121 C 1120.69 2137.21 1109.31 2151.79 1101.2 2168 C 1096.32 2177.76 1072.22 2219.78 1066 2226" stroke-width="2.00"/>
    <path d="M 1156 2105 C 1158.48 2107.48 1170.4 2119.57 1170.4 2122 C 1170.4 2125.44 1153.92 2150.57 1151.2 2156 C 1141.4 2175.6 1128 2193.4 1118.2 2213 C 1114.12 2221.16 1100.6 2246.4 1095 2252" stroke-width="2.00"/>
    <path d="M 1178 2123 C 1180.06 2125.06 1181.39 2124.39 1183 2126" stroke-width="2.00"/>
    <path d="M 1222 2123 C 1215.02 2128.81 1195.54 2129.85 1187 2127" stroke-width="2.00"/>
    <path d="M 1208 2130 C 1204.89 2139.32 1198.57 2147.25 1194.2 2156 C 1184.47 2175.47 1171.93 2193.53 1162.2 2213 C 1155.4 2226.6 1147 2239.4 1140.2 2253 C 1135.73 2261.95 1130.43 2273.85 1125 2282" stroke-width="2.00"/>
    <path d="M 1415 2137 C 1418.81 2142.71 1422.1 2149.1 1427 2154" stroke-width="2.00"/>
    <path d="M 1401 2139 C 1401 2141.8 1401.73 2144.25 1402 2147 C 1403.37 2160.66 1404.63 2174.34 1406 2188 C 1409 2218 1412 2248 1415 2278 C 1416.6 2294.04 1419.4 2309.96 1421 2326 C 1423.3 2349.04 1426.7 2371.96 1429 2395 C 1429.67 2401.7 1431.33 2408.3 1432 2415 C 1432.68 2421.83 1434.13 2440.4 1436 2446" stroke-width="2.00"/>
    <path d="M 1331 2141 C 1329.7 2143.59 1329.1 2146.41 1327.8 2149 C 1320.23 2164.15 1313.77 2179.85 1306.2 2195 C 1301 2205.4 1297.4 2216.6 1292.2 2227 C 1289.13 2233.13 1287.27 2239.87 1284.2 2246 C 1277.4 2259.6 1273 2274.4 1266.2 2288 C 1257.63 2305.13 1251.84 2324.72 1243.2 2342 C 1240.76 2346.88 1239.53 2352.76 1236 2357" stroke-width="2.00"/>
    <path d="M 1431 2141 C 1433.23 2143.23 1434.62 2145.62 1437 2148" stroke-width="2.00"/>
    <path d="M 865 1378.6 C 869.16 1377.77 874.79 1379.83 878 1382.4 C 882.7 1387.1 882.01 1390.99 876 1393.4 C 871.54 1394.29 866.67 1394.47 863.2 1391 C 859.88 1386.85 860.27 1381.44 865 1378.6 Z" stroke-width="2.00"/>
    <path d="M 1004 1434.4 C 1012.73 1432.65 1028.23 1451.86 1031.8 1459 C 1033.44 1462.28 1034.65 1465.61 1036 1469 C 1038.63 1475.58 1035.44 1482.26 1028 1483 C 1024.74 1483.33 1020.8 1481.02 1018 1483.2 C 1013.83 1486.44 1017.81 1492.64 1011 1494 C 1006.93 1494 1001.93 1494.78 998 1493.6 C 990.9 1491.47 979.93 1474.36 981.4 1467 C 984.8 1458.51 990.4 1462.33 993.8 1457.8 C 995.95 1454.93 992.68 1450.17 993 1447 C 993.6 1441.05 998.78 1436.49 1004 1434.4 Z" stroke-width="2.00"/>
  </g>
  <g id="outlines-dashed" fill="none" stroke="#E2001A"
     stroke-linecap="round" stroke-linejoin="round">
    <path d="M 1578 1047 C 1573.86 1051.14 1569.23 1054.38 1564.88 1058.24 C 1549.88 1071.57 1534.89 1084.9 1519.88 1098.24 C 1516.07 1101.63 1512.79 1105.59 1509 1109 C 1486.34 1129.4 1465.16 1151.15 1443.93 1173.05 C 1432.72 1184.61 1421.77 1196.22 1410.9 1208.05 C 1406.31 1213.05 1400.08 1217.85 1397 1224" stroke-width="2.00" stroke-dasharray="15.9 5.9"/>
    <path d="M 1592 1062 C 1584.05 1068.62 1575.45 1074.53 1567.15 1080.7 C 1558.74 1086.95 1550.89 1093.94 1542.55 1100.27 C 1534.27 1106.55 1526.71 1114.08 1519 1121 C 1509.67 1129.36 1499.99 1137.36 1490.96 1146.07 C 1484.36 1152.42 1478.33 1159.62 1471.4 1165.6 C 1464.07 1171.93 1457.8 1179 1451.06 1185.94 C 1436.42 1201 1421.43 1215.89 1408 1232" stroke-width="2.00" stroke-dasharray="14.4 7.6"/>
    <path d="M 1010 1150 C 1016.01 1162.02 1022 1174.01 1028 1186 C 1028.93 1187.86 1028.78 1190.17 1029.8 1192 C 1030.89 1193.96 1033.19 1194.97 1034.2 1197 C 1035.03 1198.67 1035.08 1200.66 1035.8 1202.4 C 1037.51 1206.49 1040.61 1210.02 1042.6 1214 C 1050.36 1229.52 1057.26 1245.51 1065 1261" stroke-width="2.00" stroke-dasharray="21.2 6.5"/>
    <path d="M 1165 1216 C 1164.51 1217.48 1164.11 1219.37 1162.8 1220.4 C 1161.01 1221.81 1158.09 1222.36 1156 1223.3 C 1148.6 1226.63 1130.96 1234.4 1127 1241" stroke-width="2.00" stroke-dasharray="8.6 4.5"/>
    <path d="M 883 1333.67 C 895.22 1346.57 905.94 1368.91 916 1384" stroke-width="2.00" stroke-dasharray="9.4 5.8"/>
    <path d="M 955 1419 C 938.81 1435.19 938.13 1449.73 936 1471 C 935.52 1475.78 934.56 1480.11 935.24 1485 C 936.76 1495.83 941.55 1508.08 947.8 1517 C 952.63 1523.9 959.24 1527.49 966 1532" stroke-width="2.00" stroke-dasharray="19.7 9.0"/>
    <path d="M 1036 1421 C 1053.75 1438.75 1058.47 1464.82 1072.6 1485 C 1081.97 1498.39 1093.83 1511.09 1106 1522 C 1114.81 1529.9 1125.37 1538.06 1132 1548" stroke-width="2.00" stroke-dasharray="10.8 6.4"/>
    <path d="M 1222 1576 C 1226.18 1584.35 1232.08 1591.93 1234.8 1601 C 1236.83 1607.75 1238.92 1615.02 1240.04 1622 C 1240.86 1627.14 1240.64 1633.27 1243 1638" stroke-width="2.00" stroke-dasharray="20.2 4.8"/>
    <path d="M 1086 1591 C 1089.9 1594.25 1118.99 1598.03 1126 1599.2 C 1136.1 1600.88 1146.03 1603.27 1156 1605.6 C 1164.59 1607.6 1173.44 1608.57 1182 1610.5 C 1192.93 1612.96 1204.66 1616.13 1216 1615 C 1222.77 1614.32 1229.32 1612.11 1236 1611" stroke-width="2.00" stroke-dasharray="23.2 4.2"/>
    <path d="M 1294 1628 C 1288.29 1625.14 1263.81 1631.56 1257 1633.6 C 1253.57 1634.63 1250.43 1636.57 1247 1637.6 C 1245.67 1638 1244.27 1637.97 1243 1638.6 C 1241.49 1639.36 1240.39 1640.67 1239 1641.6 C 1236.49 1643.27 1233.72 1644.47 1231.13 1645.99 C 1225.66 1649.18 1220.45 1654.55 1216 1659" stroke-width="2.00" stroke-dasharray="24.5 8.7"/>
    <path d="M 1140 1788 C 1138.52 1790.96 1138.33 1793.91 1137.4 1797 C 1136.26 1800.8 1133.66 1804.77 1131.4 1808 C 1108.84 1840.23 1068.93 1857.14 1051 1893" stroke-width="2.00" stroke-dasharray="14.7 6.8"/>
    <path d="M 965 1833 C 960.67 1841.65 955.21 1849.65 952.4 1859 C 950.78 1864.42 951 1870.41 951 1876 C 951 1900.38 954.33 1908.33 972 1926" stroke-width="2.00" stroke-dasharray="23.1 4.7"/>
    <path d="M 1452 2168 C 1455.35 2173.02 1459.68 2177.09 1463.47 2181.73 C 1471.86 2192.02 1480.67 2201.89 1489.6 2211.73 C 1523.14 2248.68 1557.71 2284.71 1593 2320" stroke-width="2.00" stroke-dasharray="10.6 5.9"/>
    <path d="M 1452 2190 C 1463.09 2203.3 1473.54 2217.33 1484.2 2231 C 1490.4 2238.95 1497.18 2246.43 1503.27 2254.45 C 1507.94 2260.6 1513.64 2266.12 1518.76 2271.88 C 1530.1 2284.64 1541.57 2297.3 1553 2310 C 1560.38 2318.2 1571.04 2332.03 1580 2338" stroke-width="2.00" stroke-dasharray="10.7 8.1"/>
  </g>
</svg>
