<?xml version="1.0" encoding="UTF-8"?>
<svg xmlns="http://www.w3.org/2000/svg" version="1.1"
     width="3296" height="2481" viewBox="0 0 3296 2481">
  <g id="outlines-solid" fill="none" stroke="#E2001A"
     stroke-linecap="round" stroke-linejoin="round">
    <path d="M 1698 1201 C 1701.45 1207.9 1693.68 1215.17 1693 1222 C 1691.87 1233.34 1690.9 1245.01 1687.6 1256 C 1686.91 1258.31 1687.29 1260.72 1686.6 1263 C 1684.57 1269.76 1680.13 1275.75 1677 1282 C 1675.07 1285.86 1674.42 1289.94 1673.2 1294 C 1672.64 1295.88 1671.12 1297.46 1670.8 1299.4 C 1670.46 1301.45 1671.81 1303.07 1672 1305 C 1673.09 1315.92 1670.2 1327.35 1673.4 1338 C 1675.79 1345.98 1685.16 1346.36 1684 1358 C 1683.53 1362.7 1681.43 1367.66 1681 1372 C 1680.58 1376.24 1683.41 1379.93 1683 1384 C 1682.64 1387.63 1678.82 1390.21 1679.2 1394 C 1679.41 1396.14 1680.99 1397.93 1681.4 1400 C 1681.87 1402.35 1680.51 1404.7 1681.2 1407 C 1681.84 1409.15 1683.77 1410.69 1684 1413 C 1684.4 1417.05 1681.59 1420.88 1682 1425 C 1682.38 1428.8 1682.7 1433.34 1683.8 1437 C 1684.95 1440.84 1687.59 1443.87 1688 1448 C 1688.46 1452.62 1686 1456.56 1686 1461 C 1686 1464.22 1688.68 1466.8 1689 1470 C 1689.71 1477.07 1684.68 1483.16 1684 1490 C 1682.74 1502.6 1689.25 1504.5 1690 1512 C 1691.17 1523.66 1684.08 1535.26 1687.6 1547 C 1688.92 1551.41 1699.2 1560.78 1703 1565 C 1709.93 1572.7 1710.53 1584.53 1718 1592 C 1724.2 1598.2 1733.35 1597.94 1741 1601 C 1744.72 1602.49 1752.46 1606.84 1755 1607.6 C 1757.71 1608.41 1760.36 1607.88 1763 1609.2 C 1769.32 1612.36 1773.16 1619.15 1780 1621.2 C 1785.61 1622.88 1791.24 1618.25 1797 1619.4 C 1805.58 1621.12 1804.88 1625.21 1817 1624 C 1824.71 1623.23 1827.46 1613.07 1834 1609.8 C 1838.74 1607.43 1844.28 1608.56 1849 1606.2 C 1860.93 1600.24 1897.18 1572.8 1906 1563 C 1908.76 1559.93 1909.98 1556.12 1912.4 1553 C 1914.34 1550.51 1917.49 1549.73 1919.4 1547 C 1927.43 1535.54 1934.58 1523.46 1942.6 1512 C 1950.08 1501.31 1960.37 1492.67 1970 1484 C 1972.93 1481.36 1974.54 1477.86 1977.2 1475.2 C 1978.55 1473.85 1980.57 1473.29 1982 1472 C 1988.39 1466.25 1999.08 1456.4 2001.6 1448 C 2003.93 1440.23 1998.06 1427.35 1999 1418 C 1999.72 1410.77 2004.27 1404.3 2005 1397 C 2005.81 1388.91 2003.19 1381.07 2004 1373 C 2004.76 1365.43 2009.26 1359.14 2011.4 1352 C 2012.99 1346.69 2012.57 1335.65 2012 1330 C 2011.2 1321.97 2009.09 1312.7 2004.4 1306 C 2001.15 1301.36 1990.42 1293.66 1989.2 1289.2 C 1987.62 1283.42 1989.18 1273.93 1987.4 1268 C 1986.19 1263.96 1983.66 1260.71 1981.8 1257 C 1977.64 1248.68 1975 1239.72 1969.6 1232 C 1964.29 1224.42 1957.91 1217.58 1952.6 1210 C 1936.85 1187.49 1929.44 1166.02 1903 1152.8 C 1890.77 1146.69 1876.49 1143.35 1863 1142 C 1860.73 1141.77 1858.44 1143.17 1856.2 1143 C 1854.08 1142.84 1852.08 1141.38 1850 1141 C 1847.16 1140.48 1843.9 1140.29 1841 1140 C 1836.01 1139.5 1830.92 1137.98 1826 1137 C 1812.97 1134.39 1800.17 1132.68 1787 1134 C 1764.99 1136.2 1737.34 1144.97 1722.2 1162 C 1718.43 1166.24 1715.58 1171.52 1712 1176 C 1709.28 1179.41 1705.88 1182.45 1703.4 1186 C 1700.51 1190.13 1699.66 1194.99 1697.2 1199.2 C 1695.77 1201.65 1693.48 1203.44 1692.2 1206 C 1687.68 1215.03 1683.31 1224.29 1680.4 1234 C 1678.78 1239.41 1676.42 1244.59 1674.8 1250 C 1672.94 1256.21 1672.66 1262.82 1670.8 1269 C 1670.07 1271.45 1668.24 1273.38 1668 1276 C 1667.58 1280.63 1668.46 1285.38 1668 1290 C 1667.84 1291.65 1667 1293.35 1667 1295 C 1667 1296.48 1667.53 1297.86 1667.4 1299.4 C 1667.24 1301.33 1666.19 1303.06 1666 1305 C 1665.74 1307.64 1666.26 1310.36 1666 1313 C 1665.56 1317.39 1664.59 1321.5 1665 1326 C 1666.51 1342.57 1666 1359.31 1666 1376 C 1666 1383.87 1666.78 1392.18 1666 1400 C 1664.15 1418.47 1665 1437.37 1665 1456 C 1665 1461.9 1665.59 1468.13 1665 1474 C 1664.83 1475.68 1664.17 1477.32 1664 1479 C 1663.67 1482.3 1664.33 1485.7 1664 1489 C 1663.69 1492.07 1662.68 1494.84 1663 1498 C 1663.26 1500.64 1665.74 1502.36 1666 1505 C 1666.62 1511.19 1666 1517.77 1666 1524 C 1666 1549.16 1664.68 1579.97 1676.2 1603 C 1679.52 1609.65 1682.95 1616.39 1688 1622 C 1696.19 1631.09 1713.43 1643.74 1726 1645 C 1735.18 1645.92 1744.01 1643.9 1753 1643 C 1758.66 1642.43 1764.23 1644.58 1770 1644 C 1780.08 1642.99 1786.07 1637.35 1794 1631.8 C 1797.32 1629.48 1800.87 1627.61 1804 1625" stroke-width="4.00"/>
    <path d="M 1758 1142 C 1758 1144.58 1758.35 1147.08 1757 1149.4 C 1752.59 1156.96 1741.02 1165.31 1735 1172 C 1730.9 1176.55 1728.93 1182.96 1725.4 1188 C 1719.9 1195.86 1710.29 1201.36 1707.4 1211 C 1706.25 1214.82 1707.39 1219.08 1707 1223 C 1706.66 1226.37 1705.34 1229.63 1705 1233 C 1704.83 1234.65 1705.17 1236.35 1705 1238 C 1704.82 1239.77 1703.7 1241.32 1703.2 1243 C 1702.53 1245.24 1703.09 1247.69 1702.4 1250 C 1701.6 1252.66 1700.28 1255.18 1700 1258 C 1699.52 1262.79 1702.49 1267.06 1702 1272 C 1701.31 1278.91 1694 1283.95 1694 1291 C 1694 1296.48 1700.85 1299.82 1702.4 1305 C 1705.16 1314.2 1700.07 1323.68 1701 1333 C 1701.7 1339.95 1706.7 1346 1707.4 1353 C 1708.17 1360.68 1702.13 1366.3 1703 1375 C 1703.52 1380.16 1707.63 1383.3 1708 1387 C 1708.45 1391.49 1706 1395.62 1706 1400 C 1706 1404.3 1709.75 1408.74 1710.6 1413 C 1711.62 1418.09 1708.92 1422.22 1709.4 1427 C 1709.76 1430.65 1710.55 1435.49 1711.6 1439 C 1712.55 1442.15 1714.66 1444.59 1715 1448 C 1715.48 1452.83 1713.47 1457.28 1713 1462 C 1712.3 1468.99 1716.33 1474.34 1717 1481 C 1717.71 1488.07 1714.65 1492.53 1714 1499 C 1713.91 1499.85 1719.6 1525.8 1720.2 1527 C 1721.72 1530.04 1734.1 1543.57 1737 1545.6 C 1740.41 1547.99 1744.96 1548.8 1747.8 1552 C 1752.24 1556.99 1758.84 1570.82 1764 1573.4 C 1767.42 1575.11 1772.3 1573.63 1776 1574 C 1784.11 1574.81 1793.13 1575.44 1801 1577.8 C 1803.63 1578.59 1806.52 1578.96 1809 1580.2 C 1811.18 1581.29 1813.39 1584 1816 1584 C 1819.38 1584 1821.73 1580.73 1825 1580.4 C 1828.31 1580.07 1830.57 1583.34 1834 1583 C 1839.89 1582.41 1841.31 1577.93 1852 1579 C 1859.13 1579.71 1864.51 1583.85 1872 1581.6 C 1881.29 1578.81 1900.66 1547.33 1912 1553" stroke-width="2.00"/>
    <path d="M 1853 1144 C 1848.32 1158.03 1840.4 1157.4 1834 1167" stroke-width="2.83"/>
    <path d="M 1859 1144 C 1859 1147.99 1862.4 1150.4 1865 1153 C 1876.03 1164.03 1890.38 1171 1906 1171 C 1911.71 1171 1916.41 1170.82 1921 1167" stroke-width="2.00"/>
    <path d="M 1759 1150 C 1770.93 1150 1784.68 1158.37 1790 1169" stroke-width="2.83"/>
    <path d="M 1843 1168 C 1839.17 1168 1835.76 1167.38 1832 1167 C 1811.1 1164.91 1787.64 1168.68 1769 1178" stroke-width="2.00"/>
    <path d="M 1377 1228 C 1375.21 1226.51 1372.87 1225.15 1371.8 1223 C 1369.81 1219.03 1371 1213.01 1372.2 1209 C 1378.63 1187.56 1395.87 1172.52 1412 1158 C 1423.22 1147.9 1436.73 1142.44 1450 1135.8 C 1468.92 1126.34 1491.06 1121.09 1512 1119 C 1513.98 1118.8 1516.02 1119.2 1518 1119 C 1523.97 1118.4 1529.92 1117.39 1536 1118 C 1541.68 1118.57 1547.32 1119.43 1553 1120 C 1558.97 1120.6 1565.16 1120.85 1571 1122.6 C 1577.75 1124.62 1584.72 1127.66 1591 1130.8 C 1600.29 1135.44 1633.78 1147.6 1636.6 1157 C 1640.98 1171.61 1612.14 1174.25 1603.2 1175 C 1601.09 1175.18 1599.07 1174.21 1597 1174 C 1586.81 1172.98 1576.88 1171.56 1567 1168.6 C 1561.51 1166.95 1556.58 1163.47 1551 1161.8 C 1540.81 1158.74 1511.59 1162.62 1501 1165.8 C 1494.28 1167.82 1487.72 1170.38 1481 1172.4 C 1474.41 1174.38 1467.59 1175.62 1461 1177.6 C 1448.2 1181.44 1413.54 1198.42 1404 1207 C 1401.32 1209.41 1399.51 1212.49 1397 1215 C 1394.36 1217.64 1386.84 1224.59 1384 1226.8 C 1382.54 1227.93 1380.51 1227.69 1379.2 1229 C 1378.09 1230.11 1377.68 1231.74 1376.8 1233 C 1369.94 1242.81 1363.56 1252.29 1358.2 1263 C 1347.51 1284.38 1344.34 1310.58 1342 1334 C 1340.74 1346.61 1341.75 1361.47 1343 1374 C 1343.23 1376.31 1342.77 1378.69 1343 1381 C 1344.11 1392.14 1345.89 1403.37 1348.6 1414.2 C 1349.09 1416.16 1348.8 1418.04 1349 1420 C 1349.58 1425.79 1351.13 1432.43 1352.8 1438 C 1362.26 1469.54 1371.62 1500.6 1390.8 1528 C 1393.97 1532.52 1398.99 1538.5 1404 1541 C 1408.82 1543.41 1413.09 1543.65 1417 1548 C 1422.79 1554.43 1425.5 1563.01 1430.4 1570 C 1432 1572.29 1434.18 1573.96 1435.6 1576.4 C 1436.82 1578.5 1437.18 1580.98 1438.6 1583 C 1447.69 1595.99 1458.49 1609.55 1473 1616.8 C 1476.45 1618.52 1480.44 1618.51 1484 1619.8 C 1486.9 1620.85 1489.03 1623.31 1492 1624.2 C 1495.68 1625.3 1499.38 1624.95 1503 1626.4 C 1506.16 1627.66 1508.25 1630.48 1511 1632.4 C 1514.09 1634.56 1517.65 1636.13 1521 1637.8 C 1535.96 1645.28 1555.61 1647.36 1572 1649 C 1575.41 1649.34 1578.5 1650.35 1582 1650 C 1592.09 1648.99 1602.79 1647.4 1612 1642.8 C 1641.33 1628.14 1652.93 1596.73 1656 1566 C 1656.64 1559.63 1658.36 1553.37 1659 1547 C 1659.96 1537.43 1658.04 1527.57 1659 1518 C 1659.17 1516.32 1659.83 1514.68 1660 1513 C 1660.31 1509.86 1659.19 1506.02 1660.2 1503 C 1660.67 1501.6 1661.84 1500.77 1663 1500" stroke-width="4.00"/>
    <path d="M 1605 1176 C 1607.77 1180.16 1614.79 1187.94 1618.4 1192 C 1621.55 1195.54 1625.42 1198.03 1628.2 1202 C 1631.35 1206.5 1631.93 1212.93 1636 1217 C 1641.64 1222.64 1646.42 1221.25 1650.8 1230 C 1652.24 1232.88 1652.76 1236.12 1654.2 1239 C 1656.19 1242.98 1659.31 1246.71 1660.6 1251 C 1661.88 1255.25 1663.73 1270.04 1667 1272" stroke-width="4.00"/>
    <path d="M 1764 1181 C 1761.06 1182.96 1758.56 1184.44 1756 1187" stroke-width="2.00"/>
    <path d="M 1778 1186 C 1788.21 1180.89 1799.57 1177.14 1811 1176 C 1831.91 1173.91 1859.47 1182.74 1878 1192 C 1888.9 1197.45 1897.61 1206.09 1907 1213.6 C 1911.9 1217.52 1917.31 1220.78 1922 1225 C 1932.24 1234.21 1947.42 1255.73 1951.4 1269 C 1953.1 1274.67 1953.42 1281.16 1954 1287 C 1954.5 1292.02 1955.51 1296.87 1955 1302 C 1954.19 1310.1 1951.36 1329.67 1947.2 1336.2 C 1944.82 1339.94 1935.65 1346.95 1932 1351 C 1928.65 1354.72 1926.36 1359.26 1923 1363 C 1910.1 1377.33 1899.2 1391.32 1893.6 1410 C 1888.17 1428.11 1892.92 1469.33 1910 1480.2 C 1913.68 1482.54 1917.85 1482 1922 1482" stroke-width="2.83"/>
    <path d="M 1775 1188 C 1771.59 1189.14 1767.52 1192.48 1765 1195" stroke-width="2.00"/>
    <path d="M 1753 1189 C 1748.38 1193.62 1744.12 1199.16 1741.2 1205 C 1733.63 1220.14 1727.29 1263.94 1729 1281 C 1731.25 1303.48 1740.03 1329.15 1744.6 1352 C 1749.64 1377.22 1750.46 1402.56 1753 1428 C 1754.68 1444.83 1751.32 1462.17 1753 1479 C 1755.6 1504.99 1770.69 1529.48 1792 1544.4 C 1801.73 1551.21 1813.53 1554.51 1825 1556.8 C 1827.31 1557.26 1829.67 1556.77 1832 1557 C 1842.96 1558.1 1854.91 1559.11 1866 1558 C 1873.97 1557.2 1882.37 1555.04 1889 1550.4 C 1893.85 1547 1899 1541.85 1902.4 1537 C 1912.9 1522 1925.85 1489.46 1924 1471 C 1922.46 1455.63 1916.43 1440.68 1918 1425 C 1919.71 1407.91 1940.13 1388.14 1948.2 1372 C 1949.9 1368.6 1952.29 1365.7 1953.4 1362 C 1955.21 1355.96 1954.9 1349.6 1956.4 1343.6 C 1962.96 1317.35 1967.55 1290.51 1959.6 1264 C 1956.26 1252.87 1948.17 1242.39 1941.6 1233 C 1933.28 1221.12 1923.82 1209.74 1913 1200 C 1908.94 1196.34 1904.2 1193.5 1900 1190" stroke-width="2.00"/>
    <path d="M 1762 1197 C 1760.67 1198.33 1759.33 1199.67 1758 1201" stroke-width="2.00"/>
    <path d="M 1630 1210 C 1627.68 1212.32 1624.15 1214.09 1622.2 1216.6 C 1618.76 1221.02 1621.85 1229.07 1624.6 1233 C 1626.94 1236.35 1631.61 1239.03 1632.8 1243 C 1634.55 1248.85 1632.4 1254.97 1633 1261 C 1633.31 1264.09 1635.87 1266.34 1637.2 1269 C 1638.29 1271.18 1638.09 1273.78 1639.2 1276 C 1640.21 1278.02 1641.95 1279.82 1642.6 1282 C 1643.67 1285.58 1640.64 1288.36 1641 1292 C 1641.35 1295.52 1644.36 1298.37 1644 1302 C 1643.42 1307.77 1634.73 1313.9 1632.6 1321 C 1630.03 1329.57 1630.83 1334.73 1630 1343 C 1629.63 1346.74 1629.48 1351.41 1628.4 1355 C 1627.52 1357.95 1626.31 1360.89 1626 1364 C 1625.64 1367.63 1626.36 1371.37 1626 1375 C 1625.21 1382.89 1619 1390 1619 1398 C 1619 1400.44 1620.76 1402.57 1621 1405 C 1621.47 1409.65 1618.56 1423.41 1618 1429 C 1617.45 1434.49 1619.27 1440.66 1618.2 1446 C 1617.28 1450.59 1614.14 1454.52 1612.8 1459 C 1611.71 1462.63 1612.67 1466.45 1611.6 1470 C 1610.46 1473.81 1607.41 1476.93 1607 1481 C 1606.65 1484.55 1608.66 1487.56 1609 1491 C 1609.2 1493.01 1608.2 1495.02 1608 1497 C 1607.69 1500.06 1609.31 1502.94 1609 1506 C 1608.53 1510.66 1604.17 1513.05 1602.2 1517 C 1600.76 1519.88 1600.24 1523.12 1598.8 1526 C 1596.51 1530.58 1592.88 1535.07 1591.4 1540 C 1590.19 1544.04 1590.09 1548.44 1587.6 1552 C 1583.06 1558.49 1574.75 1560.82 1569 1566 C 1565.44 1569.21 1562.35 1574.02 1558 1576.2 C 1545.94 1582.23 1532.78 1578.72 1520 1580 C 1514.95 1580.5 1511.38 1585.46 1506 1586 C 1501.1 1586.49 1495.97 1587.5 1491 1587 C 1487.93 1586.69 1485.07 1585.31 1482 1585 C 1475.07 1584.31 1467.93 1585.69 1461 1585 C 1452.09 1584.11 1446.19 1576 1437 1576" stroke-width="2.00"/>
    <path d="M 1560 1273 C 1553.15 1276.42 1541.22 1335.14 1507 1345.4 C 1478.28 1354.02 1457.67 1326.23 1450.4 1302 C 1448.84 1296.79 1446.55 1291.49 1446 1286 C 1444.73 1273.32 1444 1260.83 1444 1248 C 1444 1242.95 1441.78 1233.43 1443.6 1229.8 C 1446.01 1224.99 1467.48 1191.34 1473.4 1202 C 1477.79 1209.91 1469.77 1219.32 1469 1227 C 1468.31 1233.88 1467.3 1241.01 1468 1248 C 1469.5 1263.04 1476.6 1302.16 1495 1304 C 1519.44 1306.44 1538.77 1281.35 1541 1259 C 1541.64 1252.57 1539.86 1245.29 1538.6 1239 C 1537.6 1233.98 1529.61 1207 1535 1205.2 C 1538.18 1204.14 1541.1 1208.1 1543 1210 C 1556.02 1223.02 1559.24 1240.44 1561 1258 C 1561.16 1259.65 1562 1261.35 1562 1263 C 1562 1265.34 1560.56 1267.6 1561 1270 C 1561.37 1272.05 1562.63 1273.95 1563 1276 C 1563.64 1279.54 1562.44 1281.93 1565 1285" stroke-width="2.00"/>
    <path d="M 1749 1212 C 1746.58 1215.63 1745.63 1219.91 1744.4 1224 C 1742.19 1231.36 1739.77 1239.28 1739 1247 C 1737.75 1259.5 1738.75 1276.52 1740 1289 C 1740.73 1296.27 1740.67 1303.89 1742.8 1311 C 1747.7 1327.35 1754.31 1349.07 1756 1366 C 1757.4 1380.03 1759.6 1393.97 1761 1408 C 1762.29 1420.9 1760.71 1434.1 1762 1447 C 1762.8 1454.99 1763.2 1463.01 1764 1471 C 1764.34 1474.37 1765.66 1477.63 1766 1481 C 1766.67 1487.72 1766.04 1493.67 1769.2 1500 C 1778.53 1518.66 1788.28 1526.49 1805 1538.2 C 1807.51 1539.95 1809.25 1542.82 1812 1544.2 C 1816.86 1546.63 1821.97 1545.29 1827 1546.8 C 1830.96 1547.99 1835 1548.27 1839 1549 C 1844.18 1549.94 1848.84 1555.23 1853 1549" stroke-width="6.00"/>
    <path d="M 1458 1213 C 1458 1222.26 1454.91 1230.86 1454 1240 C 1451.77 1262.29 1457.52 1291.6 1470.4 1310 C 1477.81 1320.58 1490.14 1334.86 1505 1330.4 C 1526.43 1323.97 1540.43 1297.88 1546.4 1278 C 1548.96 1269.47 1549.08 1260.62 1550.8 1252 C 1552.87 1241.67 1549.16 1215 1535 1215" stroke-width="2.00"/>
    <path d="M 1621 1216 C 1616.51 1213.76 1611.77 1211.15 1608 1207.8 C 1600.11 1200.79 1597.76 1189.37 1585 1193.2 C 1581.58 1194.22 1578.32 1195.98 1576.2 1199 C 1575.63 1199.81 1575 1200.97 1575 1202 C 1575 1205.65 1579.42 1210.17 1581.4 1213 C 1582.74 1214.91 1582.99 1217.3 1584.2 1219.2 C 1586.21 1222.37 1589.03 1224.72 1591 1228 C 1594.16 1233.26 1600.61 1246.9 1600 1253 C 1599.77 1255.34 1598 1257.38 1598.2 1259.8 C 1598.49 1263.23 1599.66 1266.58 1600 1270 C 1600.52 1275.17 1600.9 1287.07 1600 1292 C 1599.63 1294.04 1598.55 1296 1598 1298 C 1596.14 1304.82 1596.44 1312.2 1594.4 1319 C 1588.98 1337.05 1583.02 1354.95 1577.6 1373 C 1575.18 1381.07 1575.07 1390.09 1572.2 1398 C 1570.41 1402.93 1567.57 1405.31 1567 1411 C 1566.49 1416.06 1568.6 1419.96 1569 1424.8 C 1569.48 1430.54 1570.01 1440.44 1569 1446 C 1567.82 1452.49 1563.42 1455.13 1568 1462" stroke-width="6.00"/>
    <path d="M 1904 1260 C 1913.87 1264.93 1909.92 1288.7 1906.6 1297 C 1898.04 1318.39 1884.4 1337.89 1869 1355 C 1860.8 1364.11 1852.5 1374 1847 1385 C 1844.7 1389.61 1843.8 1394.99 1842.8 1400 C 1842 1403.99 1840.41 1407.94 1840 1412 C 1839.12 1420.84 1841.13 1429.33 1842 1438 C 1842.94 1447.37 1844 1456.52 1844 1466 C 1844 1471.83 1841.55 1489.66 1832 1486.8 C 1815.51 1481.85 1809.51 1428.06 1808 1413 C 1807.6 1409.04 1808.4 1404.96 1808 1401 C 1806.47 1385.74 1807.18 1375.27 1802.6 1360 C 1798.97 1347.9 1793.42 1336.24 1787.8 1325 C 1785.05 1319.5 1781.38 1313.93 1779.6 1308 C 1777.5 1300.99 1774.13 1293.31 1773.4 1286 C 1773.1 1282.99 1774.31 1280.05 1774 1277 C 1773.66 1273.63 1772.34 1270.37 1772 1267 C 1771.04 1257.42 1770.95 1239.5 1775.2 1231 C 1777.47 1226.46 1780.88 1224.21 1784 1220.4 C 1790.95 1211.91 1800.15 1203.86 1811 1200.6 C 1831.22 1194.53 1857.07 1205.56 1872 1219 C 1874.74 1221.47 1876.89 1224.56 1879.6 1227 C 1881.51 1228.72 1884.09 1229.28 1886 1231 C 1893.32 1237.59 1902.06 1246.65 1903 1257 C 1903.39 1261.25 1901.42 1265.79 1901 1270 C 1898.58 1294.18 1882.87 1316.37 1867 1334 C 1860.98 1340.68 1855.26 1348.07 1847 1352.2 C 1840.39 1355.5 1831.98 1355.89 1825 1353.8 C 1802.54 1347.06 1789.91 1322.04 1783.6 1301 C 1781.61 1294.37 1780.03 1286.03 1775 1281" stroke-width="2.00"/>
    <path d="M 1584 1222 C 1581.9 1224.53 1581.35 1227.86 1582.6 1231 C 1583.8 1233.99 1586.75 1236.09 1588.2 1239 C 1590.78 1244.15 1591.82 1253.89 1597 1257" stroke-width="5.66"/>
    <path d="M 1784 1223 C 1784 1227.49 1782.44 1231.58 1782 1236 C 1780.77 1248.26 1782.08 1261.28 1785.6 1273 C 1790.26 1288.53 1804.31 1310.45 1819 1317.8 C 1825.76 1321.18 1835.02 1320.69 1842 1318.6 C 1852.55 1315.43 1854.55 1317.39 1863 1308 C 1865.84 1304.85 1867.33 1300.73 1869.2 1297 C 1881.66 1272.08 1880 1256.87 1880 1230" stroke-width="2.00"/>
    <path d="M 1384 1227 C 1385.43 1229.86 1384.37 1233.39 1386.4 1236 C 1396.97 1249.59 1421.37 1228.16 1433 1227 C 1436.24 1226.68 1439.15 1227.57 1442 1229" stroke-width="2.00"/>
    <path d="M 1582 1234 C 1580.74 1234.84 1579.83 1235.58 1579.2 1237 C 1577.41 1241.04 1577.46 1245.79 1576.2 1250 C 1573.02 1260.59 1570.98 1271.41 1567.8 1282 C 1567.03 1284.56 1564.49 1286.29 1564 1289 C 1562.86 1295.29 1562.26 1301.81 1560.4 1308 C 1556.75 1320.16 1548.95 1330.72 1545.6 1343 C 1544.7 1346.3 1545.38 1349.73 1544.4 1353 C 1542.98 1357.74 1540.82 1362.26 1539.4 1367 C 1537.29 1374.04 1532.42 1379.56 1529.2 1386 C 1525.3 1393.8 1522.87 1402.28 1522 1411 C 1520.21 1428.95 1511.54 1477.74 1492 1483.6 C 1488.16 1484.75 1482.44 1485.66 1479.6 1482 C 1472.87 1473.34 1476.06 1452.56 1475 1442 C 1474.34 1435.43 1472.76 1427.93 1469.8 1422 C 1467.53 1417.47 1466.07 1412.53 1463.8 1408 C 1461.93 1404.27 1459.67 1400.73 1457.8 1397 C 1447.81 1377.02 1420.04 1337.38 1418 1317 C 1417.69 1313.91 1417.31 1308.97 1418.2 1306 C 1418.93 1303.55 1420.76 1301.62 1421 1299 C 1421.39 1294.7 1420.57 1290.29 1421 1286 C 1421.63 1279.71 1424.02 1273.95 1425.8 1268 C 1428.36 1259.47 1434.7 1240.87 1442 1236" stroke-width="2.00"/>
    <path d="M 1392 1241 C 1377.78 1269.44 1363.22 1297.83 1360 1330 C 1359.64 1333.56 1360.69 1337.09 1360.4 1340.6 C 1360.1 1344.23 1355.51 1348.9 1355 1354 C 1352.65 1377.51 1361 1400.98 1367.6 1423 C 1371.74 1436.8 1379.6 1450.28 1387.8 1462 C 1391.02 1466.6 1399.66 1474.24 1401.4 1478.4 C 1402.63 1481.36 1401.86 1484.88 1402.8 1488 C 1404.1 1492.32 1405.3 1496.68 1406.6 1501 C 1413.25 1523.17 1426.72 1545.16 1448 1555.8 C 1452.69 1558.14 1458.05 1558.32 1463 1559.8 C 1467.12 1561.04 1471.7 1562.57 1476 1563 C 1479.84 1563.38 1483.26 1562.37 1487 1562 C 1501.9 1560.51 1515.99 1556.8 1529 1549 C 1566.89 1526.26 1574.89 1495.1 1579 1454 C 1579.77 1446.35 1578.75 1438.53 1578 1431 C 1576.91 1420.1 1581.39 1399.69 1584.6 1389 C 1592.52 1362.6 1600.49 1335.58 1603 1308 C 1603.24 1305.34 1604.27 1302.7 1604 1300 C 1603.79 1297.92 1602.41 1296.41 1601 1295" stroke-width="2.00"/>
    <path d="M 1399 1242 C 1388.99 1262.02 1379.06 1281.47 1372.6 1303 C 1370.02 1311.6 1367.9 1321.04 1367 1330 C 1366.65 1333.55 1367.78 1336.89 1365.6 1340" stroke-width="2.00"/>
    <path d="M 1988 1293 C 1983.79 1301.43 2002.21 1321.05 2003.2 1331 C 2003.59 1334.94 2001.24 1336.54 2000.2 1340 C 1999.07 1343.78 1999.55 1348.16 1998.4 1352 C 1997.77 1354.1 1996.23 1355.9 1995.6 1358 C 1993.47 1365.11 1992.16 1372.28 1988.8 1379 C 1987.24 1382.13 1984.25 1383.5 1982 1386 C 1980.36 1387.82 1979.35 1389.98 1978 1392" stroke-width="2.00"/>
    <path d="M 1421 1303 C 1425.75 1307.75 1429.01 1319.63 1432.2 1326 C 1434.07 1329.73 1436.33 1333.27 1438.2 1337 C 1442.25 1345.1 1449.69 1351.69 1456 1358 C 1471.55 1373.55 1489.7 1391.45 1513 1379.8 C 1529.25 1371.67 1532.67 1353.55 1544 1346" stroke-width="2.83"/>
    <path d="M 1598 1305 C 1599.33 1305 1600.67 1305 1602 1305" stroke-width="4.47"/>
    <path d="M 1664 1329 C 1662.77 1329.82 1661.35 1330.66 1660.6 1332 C 1659.41 1334.15 1655.3 1351.02 1655 1354 C 1654.64 1357.58 1656.37 1361.26 1656 1365 C 1655.5 1369.98 1652.49 1374.93 1653 1380 C 1653.29 1382.9 1654.78 1385.27 1655.6 1388 C 1656.9 1392.35 1657.45 1398.45 1657 1403 C 1656.39 1409.09 1653.61 1414.86 1653 1421 C 1652.27 1428.29 1652.73 1435.71 1652 1443 C 1651.42 1448.79 1648.58 1454.21 1648 1460 C 1647.63 1463.72 1649.29 1467.36 1648.2 1471 C 1646.61 1476.29 1641.65 1480.09 1639.2 1485 C 1634.76 1493.87 1637.95 1504.5 1637 1514 C 1636.59 1518.06 1634 1521.88 1634 1526 C 1634 1530.78 1635.53 1535.68 1635 1541 C 1634.02 1550.83 1628.99 1559.93 1630 1570 C 1630.65 1576.54 1638.96 1579.47 1635.2 1587 C 1630.78 1595.83 1616.61 1592.39 1609 1596.2 C 1606.74 1597.33 1605.04 1599.17 1603 1600.6 C 1599.89 1602.78 1596.36 1604.12 1593 1605.8 C 1585.15 1609.73 1580.17 1607.55 1574 1609.4 C 1571.34 1610.2 1569.66 1612.8 1567 1613.6 C 1562.74 1614.88 1558.13 1614.16 1554 1615.4 C 1551.82 1616.05 1550.02 1617.79 1548 1618.8 C 1545.4 1620.1 1534.05 1620.91 1531 1620.6 C 1528.96 1620.4 1526.95 1619.19 1525 1618.6 C 1518.91 1616.77 1512.24 1617.62 1506 1617 C 1499.03 1616.3 1493.93 1615.06 1488 1620" stroke-width="2.00"/>
    <path d="M 1948 1338 C 1949.33 1339.33 1950.67 1340.67 1952 1342" stroke-width="4.00"/>
    <path d="M 1365.6 1340 C 1364.4 1340 1363.2 1340 1362 1340 C 1362.33 1340 1362.67 1340 1363 1340 C 1363.87 1340 1364.73 1340 1365.6 1340" stroke-width="4.47"/>
    <path d="M 1365.6 1340 C 1369.6 1340 1372.98 1340.63 1375.6 1344 C 1377.07 1345.88 1383.76 1380.87 1385.6 1387 C 1387.51 1393.36 1389.69 1399.64 1391.6 1406 C 1393.87 1413.56 1398.14 1420.46 1400.4 1428 C 1404.46 1441.53 1407.14 1455.47 1411.2 1469 C 1412.35 1472.82 1410.74 1476.86 1411.8 1480.4 C 1412.33 1482.16 1413.88 1483.27 1414.4 1485 C 1416.29 1491.29 1417.71 1497.71 1419.6 1504 C 1421.66 1510.87 1425.49 1518.13 1429.6 1524 C 1432.36 1527.95 1435.46 1531.39 1437 1536" stroke-width="2.00"/>
    <path d="M 1365.6 1340 C 1367.04 1347.18 1365.28 1354.76 1366 1362 C 1367.96 1381.57 1376.31 1400.63 1385 1418 C 1387.75 1423.49 1389.45 1429.51 1392.2 1435 C 1395.67 1441.95 1408.63 1473.4 1407 1479.5" stroke-width="2.00"/>
    <path d="M 1952 1343 C 1949.46 1346.05 1948.74 1349.52 1947 1353 C 1945.26 1356.47 1942.63 1359.82 1940.4 1363 C 1929.09 1379.16 1908.07 1396.26 1906 1417 C 1905.47 1422.3 1905.47 1428.7 1906 1434 C 1907.22 1446.24 1914.82 1473.31 1912 1483.67" stroke-width="2.00"/>
    <path d="M 1975 1395 C 1964.03 1405.97 1970.35 1419.49 1969 1433 C 1968.17 1441.34 1962.18 1448.28 1964.8 1457 C 1966.84 1463.79 1972.52 1469.62 1977 1475" stroke-width="2.00"/>
    <path d="M 1572 1401 C 1573.92 1404.84 1572.67 1418.8 1570 1422" stroke-width="2.00"/>
    <path d="M 1350 1416 C 1353.2 1416 1355.81 1417.51 1357.8 1420 C 1368.15 1432.94 1357.77 1440.94 1363.8 1453 C 1368.68 1462.76 1379.45 1468.22 1385.6 1477 C 1387.89 1480.27 1395.59 1502.87 1396 1507 C 1396.4 1511 1395.42 1515.07 1396.6 1519 C 1399.54 1528.81 1409.11 1530.64 1411 1542" stroke-width="2.00"/>
    <path d="M 1569 1449 C 1573.51 1454.41 1569.58 1459.26 1568.2 1464.8 C 1567.31 1468.35 1566.36 1472.36 1566 1476 C 1564.59 1490.15 1558.66 1506.27 1549 1517 C 1546.48 1519.8 1543.53 1522.21 1541 1525 C 1538.75 1527.48 1537.51 1530.74 1535 1533 C 1526.35 1540.78 1514.01 1546.1 1503 1549.4 C 1499.15 1550.56 1495.77 1548.65 1492 1549.4 C 1489.04 1549.99 1486.79 1552.72 1484 1553 C 1480.55 1553.34 1474.12 1553.96 1471 1552.4 C 1469.31 1551.56 1467.83 1550.15 1466 1549.6 C 1463.37 1548.81 1460.63 1548.39 1458 1547.6 C 1450.76 1545.43 1445.4 1542.67 1439 1538.6 C 1436.06 1536.73 1432.58 1536.58 1430 1534 C 1420.16 1524.16 1415.49 1508.95 1411.6 1496 C 1409.98 1490.61 1410.42 1483.99 1407 1479.5" stroke-width="4.00"/>
    <path d="M 1407 1479.5 C 1405.67 1479.33 1404.33 1479.17 1403 1479 C 1403.33 1479 1403.67 1479 1404 1479 C 1404.83 1479 1407 1478.54 1407 1479.5" stroke-width="4.47"/>
    <path d="M 1912 1483.67 C 1910.61 1485.29 1908.84 1486.88 1908.2 1489 C 1907.47 1491.42 1909.21 1494.27 1909 1496.8 C 1907.99 1508.88 1898.45 1526.55 1890 1535 C 1882.28 1542.72 1866.19 1550.12 1855 1549 C 1852.24 1548.72 1849.84 1546.72 1847 1547 C 1845.39 1547.16 1844.2 1548 1843 1549" stroke-width="6.32"/>
    <path d="M 1912 1483.67 C 1913.3 1488.45 1913.69 1491.31 1910 1495" stroke-width="3.41"/>
    <path d="M 1537 1527 C 1532.08 1529.46 1526.97 1531.71 1522 1534.2 C 1518.83 1535.78 1516.17 1538.22 1513 1539.8 C 1507 1542.8 1500.85 1544.15 1496 1549" stroke-width="2.83"/>
    <path d="M 1808 1539 C 1812.49 1536.76 1819.48 1541.21 1822 1545" stroke-width="2.83"/>
    <path d="M 1660 1543 C 1661.67 1543 1663.33 1543 1665 1543" stroke-width="3.65"/>
    <path d="M 1468 1550 C 1472.9 1546.74 1483.1 1546.74 1488 1550" stroke-width="2.00"/>
    <path d="M 1809 1356.6 C 1812.85 1355.06 1818.44 1359.58 1822 1361 C 1825.19 1362.27 1837.6 1362.6 1838.8 1363.6 C 1840.59 1365.09 1838.25 1369.37 1837.6 1371 C 1834.11 1379.74 1834.91 1388.73 1832 1396 C 1828.16 1405.61 1827.95 1427.46 1829 1438 C 1829.76 1445.63 1833.12 1452.59 1834.6 1460 C 1835.05 1462.25 1836.31 1469.06 1833 1469.8 C 1828.66 1470.76 1825.51 1462.04 1824.6 1459 C 1820.68 1445.94 1820.05 1432.26 1817.4 1419 C 1814.31 1403.55 1814.3 1387.49 1811.2 1372 C 1810.42 1368.11 1805.91 1358.92 1809 1356.6 Z" stroke-width="2.00"/>
    <path d="M 1481 1389.6 C 1483.62 1389.08 1495.22 1393 1501 1393 C 1503.97 1393 1514.48 1390.07 1515.8 1391.2 C 1517.94 1393.03 1515.58 1404.1 1515 1407 C 1515 1419.45 1508.29 1447.28 1503.6 1459 C 1502.25 1462.37 1500.61 1466.39 1498 1469 C 1495.02 1471.98 1487.83 1472.02 1485.6 1468 C 1483.58 1464.36 1486.45 1444.73 1487.4 1440 C 1488.69 1433.57 1486.34 1410.47 1484.4 1404 C 1483.19 1399.96 1476.52 1392.96 1481 1389.6 Z" stroke-width="2.00"/>
  </g>
  <g id="outlines-dashed" fill="none" stroke="#E2001A"
     stroke-linecap="round" stroke-linejoin="round">
    <path d="M 1846 1169 C 1860.48 1169 1883.01 1181.51 1896 1188" stroke-width="2.00" stroke-dasharray="11.1 4.2"/>
    <path d="M 1858 1287 C 1859.54 1283.93 1859.39 1280.26 1860.56 1277 C 1861.77 1273.64 1863.57 1270.42 1864.6 1267 C 1866.23 1261.56 1865.55 1255.46 1865 1250 C 1862.99 1229.91 1854.37 1220.31 1835 1214.5 C 1825.33 1211.6 1818.15 1211.42 1809 1216" stroke-width="2.00" stroke-dasharray="25.8 6.2"/>
    <path d="M 1806 1218 C 1800.91 1224.11 1797.79 1232.09 1797 1240 C 1795.31 1256.92 1808.95 1293.41 1825 1300.8 C 1836 1305.86 1847.31 1299.69 1855 1292" stroke-width="2.00" stroke-dasharray="15.7 7.7"/>
  </g>
</svg>
