<?xml version="1.0" encoding="UTF-8"?>
<svg xmlns="http://www.w3.org/2000/svg" version="1.1"
     width="3296" height="2481" viewBox="0 0 3296 2481">
  <g id="outlines-solid" fill="none" stroke="#E2001A"
     stroke-linecap="round" stroke-linejoin="round">
    <path d="M 1749 1125 C 1749 1105.08 1722.1 1094.23 1706 1089.4 C 1664.39 1076.92 1606.95 1075.05 1574 1108 C 1566.82 1115.18 1560 1125.49 1560 1136" stroke-width="4.00"/>
    <path d="M 1749 1126.4 C 1736.95 1128.81 1724.86 1130.04 1713 1133.6 C 1704.12 1136.26 1695.86 1140.74 1687 1143.4 C 1669.13 1148.76 1650.95 1152.89 1632 1151 C 1623.14 1150.11 1614.45 1147.34 1606 1144.8 C 1598.54 1142.56 1590.66 1141.33 1583 1139.8 C 1574.39 1138.08 1559.58 1136.14 1551 1137 C 1540.94 1138.01 1532.04 1140.48 1523 1145 C 1519.77 1146.61 1516.23 1147.59 1513 1149.2 C 1500.44 1155.48 1490.93 1168.66 1493.8 1183 C 1495.86 1193.28 1502.41 1202.19 1511 1208.2 C 1522.01 1215.91 1533.55 1221.02 1546 1226 C 1570.9 1235.96 1615.18 1242.68 1642 1240 C 1653.35 1238.86 1664.65 1237.14 1676 1236 C 1688.65 1234.74 1700.69 1229.86 1713 1227.4 C 1717.22 1225.71 1721.66 1224.7 1726 1223.4 C 1739.45 1219.37 1769.05 1207.96 1779 1199 C 1783.53 1194.92 1786.94 1189.94 1790.4 1185 C 1807.35 1160.78 1793.39 1129.94 1764 1127 C 1758.9 1126.49 1754.17 1125.37 1749 1126.4 Z" stroke-width="4.00"/>
    <path d="M 1706 1388 C 1699.57 1386.93 1692.69 1382.33 1686 1383 C 1679.02 1383.7 1669.51 1390.25 1667 1390 C 1664.18 1389.72 1661.66 1388.4 1659 1387.6 C 1653.85 1386.05 1647.37 1385.46 1642 1386 C 1637.46 1386.45 1632.64 1390.34 1628.2 1389.6 C 1625.5 1389.15 1602.58 1376.49 1598 1374.2 C 1578.11 1364.26 1547.13 1354.21 1525 1352 C 1505.61 1350.06 1485.1 1347.87 1466 1353.6 C 1415.4 1368.78 1360.6 1411.02 1355 1467 C 1353.81 1478.86 1354.12 1490.41 1357.6 1502 C 1361.8 1515.99 1369.05 1528.07 1377.4 1540 C 1380.22 1544.03 1382.48 1548.48 1386 1552 C 1389.07 1555.07 1392.44 1558.31 1396 1560.8 C 1397.58 1561.91 1399.47 1562.3 1400.8 1563.8 C 1403.34 1566.66 1406.63 1569.69 1408.8 1572.8 C 1409.92 1574.4 1410.34 1576.28 1411.2 1578 C 1413.88 1583.37 1417.15 1589.08 1420.6 1594 C 1431.22 1609.17 1442.56 1623.59 1458 1634.4 C 1494.03 1659.62 1530.23 1659 1572 1655.2 C 1575 1654.93 1577.94 1656.31 1581 1656 C 1591.99 1654.9 1603.01 1654.1 1614 1653 C 1620.27 1652.37 1626.73 1653.63 1633 1653 C 1637.75 1652.53 1643.44 1651.77 1648 1650.4 C 1653.02 1648.89 1664.14 1641.41 1668 1641.8 C 1671.01 1642.1 1674.29 1645.45 1677 1646.8 C 1684.1 1650.35 1693.14 1652.21 1701 1653 C 1708.78 1653.78 1725.22 1653.78 1733 1653 C 1734.77 1652.82 1736.23 1651.58 1738 1651.4 C 1741.56 1651.04 1745.46 1652.65 1749 1653 C 1756.75 1653.78 1780.25 1653.78 1788 1653 C 1796.63 1652.14 1805.62 1651.91 1814 1649.4 C 1817.05 1648.49 1818.95 1645.51 1822 1644.6 C 1825.88 1643.44 1830.06 1643.58 1834 1642.4 C 1842.42 1639.87 1851.07 1637.16 1859 1633.2 C 1860.73 1632.34 1862.24 1631 1864 1630.2 C 1866.24 1629.18 1868.69 1629.29 1871 1628.6 C 1879.38 1626.09 1888.59 1618.77 1895 1613 C 1904.43 1604.51 1911.16 1593.28 1916.8 1582 C 1917.91 1579.77 1918.09 1577.23 1919.2 1575 C 1922.01 1569.38 1926.6 1564.15 1930.2 1559 C 1931.3 1557.43 1931.82 1555.52 1933 1554 C 1935.78 1550.42 1945.11 1543.86 1949 1540.4 C 1954.34 1535.65 1963.28 1518.06 1965.4 1511 C 1968.79 1499.71 1971.82 1488.79 1973 1477 C 1973.55 1471.55 1972.53 1466.34 1972 1461 C 1970.59 1446.92 1967.58 1435.75 1961.2 1423 C 1937.64 1375.87 1887.43 1351.04 1837 1346 C 1835.32 1345.83 1833.68 1345.17 1832 1345 C 1828.04 1344.6 1823.96 1345.4 1820 1345 C 1818.34 1344.83 1816.69 1344.03 1815 1344.2 C 1808.66 1344.83 1802.33 1345.37 1796 1346 C 1770.1 1348.59 1733.41 1362.59 1715 1381 C 1712.69 1383.31 1709.86 1385.55 1708.2 1388.4 C 1706.4 1391.49 1706.01 1422.04 1707 1426.25" stroke-width="4.00"/>
    <path d="M 1811 1346 C 1810.07 1351.6 1805.46 1354.62 1802.4 1359 C 1801.22 1360.69 1800.84 1362.81 1799.8 1364.6 C 1798.37 1367.04 1796.01 1368.7 1794.4 1371 C 1793.25 1372.64 1793.01 1374.66 1792 1376.4 C 1786.17 1386.39 1780.7 1384.73 1782 1399 C 1782.19 1401.05 1781.99 1402.97 1782.6 1405 C 1784.11 1410.04 1787.6 1417.72 1792 1420.8 C 1794.28 1422.4 1807.38 1425.51 1811 1426.6 C 1821.92 1429.87 1832.85 1435.13 1843 1440.2 C 1881.04 1459.22 1900 1488.95 1900 1531" stroke-width="2.83"/>
    <path d="M 1520 1353 C 1520 1359.1 1522.91 1363.38 1524.6 1369 C 1525.59 1372.29 1525.68 1376.04 1527 1379.2 C 1528.17 1382 1530.02 1383.8 1532 1386 C 1533.98 1388.2 1534.64 1391.03 1536.6 1393.2 C 1539.29 1396.19 1548.37 1402.78 1552 1406 C 1554.61 1408.32 1556.51 1411.51 1559 1414" stroke-width="2.83"/>
    <path d="M 1802 1364 C 1811.19 1362.47 1819.58 1356.04 1830 1355 C 1841.28 1353.87 1872.38 1365.89 1883 1371.2 C 1886.01 1372.71 1888.79 1374.93 1892 1376" stroke-width="2.00"/>
    <path d="M 1461 1375 C 1474.35 1366.1 1494.63 1359.51 1510 1367.2 C 1514.79 1369.6 1519.7 1374.12 1525 1375" stroke-width="2.00"/>
    <path d="M 1794 1377 C 1799.75 1376.04 1805.16 1373.58 1811 1373 C 1824.03 1371.7 1847.36 1374.18 1859 1380" stroke-width="2.00"/>
    <path d="M 1456 1378 C 1454.75 1379.25 1454.25 1378.75 1453 1380" stroke-width="2.41"/>
    <path d="M 1899 1380 C 1904.75 1382.87 1909.99 1386.99 1915 1391 C 1939.77 1410.82 1956.82 1439.18 1960 1471 C 1960.24 1473.42 1959.24 1475.64 1959 1478 C 1957.38 1494.17 1952.48 1519.53 1939.6 1530.8 C 1937.18 1532.92 1933.74 1533.06 1931 1534.8 C 1926.84 1537.45 1921.92 1541.24 1916.6 1540.8 C 1909.63 1540.22 1905.28 1535.72 1899.6 1532.4 C 1897.25 1531.03 1894.46 1530.23 1892 1529" stroke-width="2.00"/>
    <path d="M 1526 1381 C 1520.69 1381 1516.21 1378.52 1511 1378 C 1502.42 1377.14 1493.21 1378.14 1485 1380.6 C 1452.03 1390.49 1417.61 1422.28 1398.2 1450 C 1394.2 1455.72 1388.64 1462.21 1386.6 1469 C 1385.12 1473.92 1384.51 1478.9 1384 1484 C 1383.69 1487.07 1382.68 1489.84 1383 1493 C 1384.67 1509.69 1391.87 1525.31 1406 1535.2 C 1409.77 1537.84 1414.4 1540.1 1417 1544" stroke-width="2.00"/>
    <path d="M 1863 1381 C 1868.79 1381.97 1874.43 1385.14 1880 1387" stroke-width="2.00"/>
    <path d="M 1449 1383 C 1447.73 1384.27 1446.42 1384.58 1445 1386" stroke-width="2.83"/>
    <path d="M 1882 1388 C 1917.56 1399.85 1943.97 1434.81 1950 1471" stroke-width="2.83"/>
    <path d="M 1440 1389 C 1431.8 1395.83 1422.96 1401.84 1415 1409 C 1400.46 1422.09 1385.23 1442.31 1379 1461" stroke-width="2.83"/>
    <path d="M 1630 1391 C 1630 1406.6 1628.11 1440.01 1650 1442.2 C 1659.24 1443.12 1661.98 1432.04 1665 1426 C 1666.18 1423.65 1668.51 1421.67 1669 1419 C 1669.93 1413.86 1668 1402.32 1668 1396" stroke-width="2.83"/>
    <path d="M 1536 1395 C 1534.65 1399.06 1535.41 1402.86 1535 1407 C 1534.59 1411.08 1532.61 1415.38 1530.8 1419 C 1523.58 1433.44 1504.36 1437.95 1492 1446.6 C 1488.38 1449.13 1485.27 1452.06 1482 1455 C 1479.5 1457.25 1476.5 1458.75 1474 1461 C 1466.7 1467.57 1461.17 1475.04 1455.6 1483 C 1449.07 1492.32 1440.71 1510.96 1437.4 1522 C 1435.97 1526.78 1436.23 1532.23 1434.8 1537 C 1433.42 1541.59 1428.52 1542.76 1426.6 1546.6 C 1425.93 1547.94 1426.67 1553.75 1424.33 1552" stroke-width="2.00"/>
    <path d="M 1776 1396 C 1765.3 1396 1736.55 1401.42 1728 1407.4 C 1723.85 1410.31 1720.75 1414.62 1717 1418 C 1714.01 1420.69 1708.62 1422.6 1707 1426.25" stroke-width="2.00"/>
    <path d="M 1777 1397 C 1771.61 1413.16 1761.8 1426.03 1744 1429" stroke-width="2.83"/>
    <path d="M 1554 1406 C 1559.29 1402.48 1565.21 1404.42 1571 1405 C 1587.87 1406.69 1599.05 1411.73 1614 1419.2 C 1619.95 1422.17 1625.3 1425.88 1632 1427" stroke-width="2.00"/>
    <path d="M 1562 1417 C 1566.45 1421.45 1571.23 1426.17 1575 1431.2 C 1577.09 1433.98 1577.86 1437.36 1580.2 1440 C 1584.74 1445.1 1591.4 1448.27 1597 1452" stroke-width="2.83"/>
    <path d="M 1766 1420 C 1769.7 1427.4 1754.37 1439.42 1749 1443" stroke-width="2.83"/>
    <path d="M 1669 1423 C 1672.76 1428.64 1671.92 1435.66 1679 1439.2 C 1681.21 1440.3 1684.35 1440.81 1686.8 1440.4 C 1687.85 1440.22 1689.02 1439.61 1690 1439.2 C 1690.35 1439.05 1691 1438.67 1691 1438.67" stroke-width="2.83"/>
    <path d="M 1707 1426.25 C 1702.06 1430.7 1696.76 1435.35 1691 1438.67" stroke-width="2.83"/>
    <path d="M 1707 1426.25 C 1715.51 1434.22 1731.29 1430 1742 1430" stroke-width="2.00"/>
    <path d="M 1709 1431 C 1709 1432.79 1708.68 1433.68 1710 1435" stroke-width="2.83"/>
    <path d="M 1578 1432 C 1585.12 1432 1591.76 1437 1599 1437" stroke-width="2.00"/>
    <path d="M 1636 1435 C 1625.98 1441.68 1613.02 1438 1602 1438" stroke-width="2.00"/>
    <path d="M 1640 1440 C 1638.38 1441.62 1636 1444.58 1636 1447" stroke-width="2.83"/>
    <path d="M 1691 1438.67 C 1685.3 1441.83 1685 1440.78 1685 1446" stroke-width="4.00"/>
    <path d="M 1650 1443 C 1650 1444.67 1650 1446.33 1650 1448" stroke-width="2.83"/>
    <path d="M 1718 1443 C 1720.75 1443.92 1723.22 1445.36 1726 1446.2 C 1730.18 1447.45 1734.9 1446.97 1739 1448.2 C 1742.75 1449.33 1746.19 1451.46 1750 1452.6 C 1756.27 1454.48 1762.73 1455.72 1769 1457.6 C 1774.11 1459.13 1778.69 1462.11 1784 1463" stroke-width="2.00"/>
    <path d="M 1745 1444 C 1743.53 1445.47 1741.68 1446.32 1740 1448" stroke-width="2.83"/>
    <path d="M 1627 1454 C 1624.53 1461.42 1624.6 1469.3 1626 1477 C 1626.57 1480.11 1629.44 1482.28 1630.8 1485 C 1633.28 1489.96 1635.51 1494.96 1637.8 1500 C 1641.65 1508.48 1655.87 1525.86 1666.2 1525 C 1688.57 1523.14 1703.09 1489.13 1705 1470 C 1705.27 1467.3 1706.77 1464.93 1707 1462.2 C 1707.69 1453.95 1699.65 1447.76 1692 1447 C 1686.32 1446.43 1680.59 1448.44 1675 1449 C 1670.68 1449.43 1666.32 1449.57 1662 1450 C 1655.26 1450.67 1645.09 1447.39 1637.8 1448 C 1631.1 1448.56 1626.18 1454 1616 1454" stroke-width="2.00"/>
    <path d="M 1786 1464 C 1788.87 1464.96 1792.49 1466.33 1795 1468" stroke-width="2.00"/>
    <path d="M 1709 1465 C 1717.08 1462.31 1720.13 1464.78 1727.4 1466.6 C 1729.91 1467.23 1732.5 1466.85 1735 1467.6 C 1742.77 1469.93 1750.23 1473.27 1758 1475.6 C 1761.24 1476.57 1763.42 1479 1767 1479" stroke-width="2.00"/>
    <path d="M 1727 1468 C 1727 1486.69 1707.04 1519.42 1698 1536 C 1695.7 1540.21 1694.76 1545.45 1693.4 1550 C 1687.1 1571 1684.01 1595.61 1694.2 1616 C 1699.5 1626.59 1708.43 1635.72 1719 1641 C 1726.08 1644.54 1730.87 1641.8 1737 1651" stroke-width="2.00"/>
    <path d="M 1800 1470 C 1802.48 1472.48 1806.14 1473.09 1809 1475" stroke-width="2.00"/>
    <path d="M 1375 1473 C 1373.29 1476.42 1373.37 1480.31 1373 1484 C 1372.73 1486.73 1371.72 1489.2 1372 1492 C 1373.74 1509.38 1381.26 1528.08 1396 1538.4 C 1400.75 1541.72 1407.18 1544.82 1413 1545.4 C 1415.45 1545.64 1421 1543.88 1423 1545.8 C 1424.4 1547.14 1424.26 1550.6 1424.33 1552" stroke-width="2.00"/>
    <path d="M 1950 1477 C 1952.19 1490.14 1947.66 1505.28 1941.8 1517 C 1939.36 1521.87 1934 1526.26 1934 1532" stroke-width="2.00"/>
    <path d="M 1625 1481 C 1623.71 1483.59 1624.73 1485.31 1625 1488 C 1626.96 1507.61 1638.05 1516.39 1645.6 1533 C 1649.49 1541.56 1649.09 1550.94 1650 1560 C 1650.17 1561.68 1650.83 1563.32 1651 1565 C 1651.2 1567.01 1650.2 1569.02 1650 1571 C 1649.8 1572.98 1650.2 1575.02 1650 1577 C 1648.64 1590.63 1642.51 1610.46 1632 1619.8 C 1626.64 1624.57 1620.37 1628.02 1614 1631.2 C 1608.13 1634.14 1603.76 1637.44 1597 1638" stroke-width="2.00"/>
    <path d="M 1698 1490 C 1691.15 1486.57 1679.55 1484.28 1674.6 1492.2 C 1673.17 1494.48 1672.87 1498.38 1672 1501" stroke-width="2.83"/>
    <path d="M 1638 1496 C 1650.04 1489.98 1658.4 1488.4 1665.2 1502 C 1666.05 1503.7 1667.24 1505.14 1667.8 1507 C 1669.51 1512.68 1665.24 1518.49 1668 1524" stroke-width="2.00"/>
    <path d="M 1476 1510 C 1468.96 1517.04 1459.63 1521.65 1452 1528" stroke-width="2.00"/>
    <path d="M 1642 1530 C 1634.87 1537.13 1627.76 1544.89 1623.2 1554 C 1620.14 1560.12 1617.35 1566.35 1613.4 1572 C 1596.05 1596.79 1560.41 1614.04 1530 1611 C 1526.92 1610.69 1523.93 1609.28 1521 1608.4 C 1493.78 1600.23 1479.83 1564.78 1452 1562 C 1448.09 1561.61 1443.93 1562 1440 1562" stroke-width="2.00"/>
    <path d="M 1702 1533 C 1705.88 1534.94 1708.35 1538.69 1711 1542 C 1717.95 1550.69 1721.34 1559.28 1726.2 1569 C 1736.79 1590.19 1757.73 1602.67 1781 1605 C 1787.8 1605.68 1808.26 1605.07 1814 1602.2 C 1837.42 1590.49 1878.06 1538.03 1908 1553" stroke-width="2.00"/>
    <path d="M 1875 1541 C 1878.7 1544.7 1883.04 1546.56 1886 1551" stroke-width="2.00"/>
    <path d="M 1916 1542 C 1912.2 1553.41 1925.72 1550.36 1931 1553" stroke-width="2.00"/>
    <path d="M 1911 1555 C 1914.18 1556.06 1916.22 1559.33 1918 1562" stroke-width="2.83"/>
    <path d="M 1424.33 1552 C 1419.14 1560.91 1409.41 1557.06 1402 1562" stroke-width="2.00"/>
    <path d="M 1455 1601 C 1462.91 1589.14 1474.8 1584.86 1487 1593.4 C 1491.09 1596.26 1494.48 1600.48 1498 1604 C 1505.11 1611.11 1520.09 1625.07 1519 1636 C 1518.73 1638.74 1516.35 1641.03 1514 1642.2 C 1502.17 1648.12 1484.94 1636.45 1476 1629" stroke-width="2.83"/>
    <path d="M 1882 1603 C 1884.43 1598.14 1884.32 1593.08 1882.8 1588 C 1881.74 1584.45 1879.47 1582.19 1876 1580.8 C 1862.99 1575.6 1840.54 1595.18 1834 1605" stroke-width="2.00"/>
    <path d="M 1455 1608 C 1456.69 1609.69 1457.31 1612.31 1459 1614" stroke-width="2.00"/>
    <path d="M 1830 1609 C 1825.95 1613.05 1810.35 1633.38 1812.6 1639 C 1813.71 1641.77 1817.81 1643.18 1820 1645" stroke-width="2.83"/>
    <path d="M 1880 1609 C 1876.98 1615.05 1867 1623.98 1867 1628" stroke-width="2.83"/>
    <path d="M 1462 1618 C 1464.88 1620.88 1468.12 1623.12 1471 1626" stroke-width="2.83"/>
    <path d="M 1596.4 1637.2 C 1599.31 1636.23 1600.72 1631.76 1598.8 1629.2 C 1595.98 1627.09 1592.92 1628.63 1590 1629.8 C 1587.36 1631.39 1583.41 1634.51 1587 1637.2 C 1589.77 1637.75 1593.64 1637.59 1596.4 1637.2 Z" stroke-width="2.83"/>
    <path d="M 1597 1638 C 1595.3 1639.46 1593.83 1641.32 1592 1642.6 C 1586.47 1646.47 1578.26 1647.47 1575 1654" stroke-width="2.83"/>
    <path d="M 1724 1641 C 1723.38 1639.14 1722.61 1636.96 1723.2 1635 C 1725.58 1627.05 1745.28 1623.01 1750.4 1631.2 C 1755.82 1639.87 1733.79 1641.67 1731 1644" stroke-width="2.00"/>
  </g>
  <g id="outlines-dashed" fill="none" stroke="#E2001A"
     stroke-linecap="round" stroke-linejoin="round">
    <path d="M 1504 1490 C 1510.21 1487.93 1522.11 1478.62 1529.25 1475 C 1531.38 1473.92 1533.84 1473.68 1536 1472.6 C 1552.43 1464.38 1571.61 1457.84 1590 1456 C 1593.39 1455.66 1596.42 1453.88 1599.8 1453.6 C 1603.91 1453.26 1607.91 1454 1612 1454" stroke-width="2.00" stroke-dasharray="24.6 8.1"/>
    <path d="M 1624 1470 C 1606.82 1470 1544.77 1488.78 1529.24 1497.06 C 1523.22 1500.26 1517.65 1504.23 1512 1508" stroke-width="2.00" stroke-dasharray="25.4 8.1"/>
    <path d="M 1769 1481 C 1778.29 1484.1 1787.36 1489.32 1795.91 1494.06 C 1816.87 1505.66 1838 1516.67 1858 1530" stroke-width="2.00" stroke-dasharray="12.3 6.5"/>
    <path d="M 1835 1490 C 1840.81 1494.85 1847.73 1498.38 1854 1502.6 C 1864.42 1509.62 1874.55 1517.04 1885 1524" stroke-width="2.00" stroke-dasharray="11.1 6.2"/>
    <path d="M 1459 1547 C 1455.54 1550.46 1451.36 1554.82 1447.07 1557.2 C 1439.89 1561.18 1428.91 1564.03 1421 1566.4 C 1417.16 1567.55 1413.38 1568.75 1410 1571" stroke-width="2.00" stroke-dasharray="11.9 10.8"/>
  </g>
</svg>
