<?xml version="1.0" encoding="UTF-8"?>
<svg xmlns="http://www.w3.org/2000/svg" version="1.1"
     width="3296" height="2481" viewBox="0 0 3296 2481">
  <g id="outlines-solid" fill="none" stroke="#E2001A"
     stroke-linecap="round" stroke-linejoin="round">
    <path d="M 953 1060 C 944.24 1070.51 933.21 1078.77 924 1089 C 917.2 1096.55 910.79 1104.45 904 1112 C 899.32 1117.2 895.4 1123.29 891.4 1129 C 874.27 1153.47 859.77 1179.38 844.4 1205 C 839.68 1212.87 834.65 1220.5 829.4 1228 C 826.11 1232.7 821.05 1236.51 818.2 1241.4 C 816.94 1243.56 817.28 1245.72 816.6 1248 C 814.21 1255.97 811.84 1263.64 811 1272 C 808.91 1292.87 816.68 1317.27 822.6 1337 C 824.44 1343.13 827.56 1348.87 829.4 1355 C 831.58 1362.26 833.02 1369.74 835.2 1377 C 840.16 1393.55 841.42 1411.5 857 1422.4 C 872.06 1432.94 888.82 1436.64 906 1441.8 C 910.12 1443.04 914.7 1444.57 919 1445 C 926.33 1445.73 933.88 1446.46 941 1448.6 C 951.15 1451.64 960.57 1456.49 970 1461.2 C 975.75 1464.07 981.76 1467.73 987 1471.4 C 992.05 1474.94 997.71 1477.83 1003 1481 C 1024.08 1493.65 1041.28 1502.53 1066 1505 C 1068.36 1505.24 1070.58 1506.24 1073 1506 C 1074.68 1505.83 1076.32 1505.17 1078 1505 C 1087.19 1504.08 1096.54 1503.03 1105 1498.8 C 1113.82 1494.39 1130.81 1485.98 1136.4 1478 C 1143.53 1467.81 1143.81 1452.91 1145 1441 C 1145.73 1433.74 1144.27 1426.26 1145 1419 C 1146.15 1407.54 1146.15 1396.46 1145 1385 C 1143.89 1373.92 1145 1362.14 1145 1351 C 1145 1343.85 1144.71 1337.05 1144 1330 C 1143.41 1324.13 1144 1317.9 1144 1312 C 1144 1298.67 1144 1285.33 1144 1272 C 1144 1242.97 1143.12 1213.75 1146 1185 C 1146.4 1181.04 1145.6 1176.96 1146 1173 C 1147.14 1161.6 1148.05 1150.23 1149 1138.8 C 1149.3 1135.15 1150.64 1131.63 1151 1128 C 1152.84 1109.64 1155.47 1088.78 1160.8 1071 C 1163.3 1062.66 1165.9 1054.34 1168.4 1046 C 1173.21 1029.97 1179.93 1012.81 1189.6 999 C 1211.02 968.4 1233.72 939.13 1253 907 C 1258.69 897.52 1263.88 887.85 1268.8 878 C 1271.93 871.73 1274.56 864.77 1278.6 859 C 1282.08 854.03 1287.3 848.85 1291.8 844.8 C 1294.08 842.75 1297.37 841.78 1300 840.2 C 1319.75 828.35 1340.45 818.07 1361 807.8 C 1369.03 803.79 1376.66 797.74 1384 792.6 C 1399.73 781.59 1416.09 771.4 1431.8 760.4 C 1439.93 754.71 1448.86 750.1 1457 744.4 C 1471.13 734.51 1485.87 725.49 1500 715.6 C 1507.16 710.59 1515.45 706.62 1522 700.8 C 1526.65 696.66 1529.48 689.45 1532.2 684 C 1546.08 656.25 1546.75 621.17 1525 597 C 1508.73 578.92 1484.63 570.36 1461 568 C 1455.98 567.5 1451.13 566.49 1446 567 C 1429.93 568.61 1414.07 572.39 1398 574 C 1391.66 574.63 1385.34 575.37 1379 576 C 1369.4 576.96 1359.6 576.04 1350 577 C 1315.92 580.41 1281.88 586.54 1249 596.4 C 1237.67 599.8 1226.33 603.2 1215 606.6 C 1207.86 608.74 1201.14 612.26 1194 614.4 C 1182.68 617.8 1170.6 622.5 1160 627.8 C 1153.55 631.03 1146.45 632.97 1140 636.2 C 1126.72 642.84 1113.28 649.16 1100 655.8 C 1077.81 666.89 1055.38 678.34 1035 692.6 C 1031.06 695.36 1026.05 696.77 1022 699.6 C 1009.58 708.29 996.42 715.91 984 724.6 C 953.61 745.87 924.59 769.17 897 794 C 888.08 802.03 879.55 811.05 871.6 820 C 867.78 824.3 862.88 827.69 859 832 C 849.69 842.35 840.31 852.65 831 863 C 826.51 867.99 822.97 873.81 818.6 878.8 C 817.22 880.38 815.4 881.45 814 883 C 792.51 906.88 769.54 939.43 753 967 C 727 1010.33 703.83 1060.33 709 1112 C 709.63 1118.26 709.97 1124.89 711.8 1131 C 714.31 1139.36 717.09 1147.64 719.6 1156 C 722.26 1164.85 726.75 1173.15 729.4 1182 C 731.71 1189.7 730.22 1197.18 731 1205 C 731.97 1214.68 735.52 1227.27 743 1234 C 759.27 1248.64 782.2 1243.98 802 1242 C 806.44 1241.56 812.87 1238.93 817 1241" stroke-width="4.00"/>
    <path d="M 1468 570 C 1465.2 578.4 1464.14 587.31 1462.4 596 C 1460.26 606.7 1457.53 617.56 1454.4 628 C 1452.1 635.65 1448.35 642.91 1444.8 650 C 1442.4 654.8 1436.89 658.63 1436 664" stroke-width="2.00"/>
    <path d="M 2527 1216 C 2530.07 1214.16 2532.46 1210.54 2535 1208 C 2541.14 1201.86 2549.79 1198.06 2558 1195.6 C 2570.01 1192 2603.63 1189.22 2610.8 1180 C 2617.6 1171.25 2615.97 1158.33 2617 1148 C 2617.9 1138.99 2619.1 1130.01 2620 1121 C 2621.14 1109.65 2622.86 1098.35 2624 1087 C 2624.28 1084.16 2623.76 1081.24 2624 1078.4 C 2624.9 1067.55 2626.1 1055.96 2625 1045 C 2622.61 1021.13 2611.57 989.54 2600.8 968 C 2596.76 959.92 2592.24 952.08 2588.2 944 C 2576.79 921.18 2558.03 894.32 2541 875.4 C 2535.73 869.55 2531.29 862.88 2526 857 C 2517.05 847.06 2507.45 837.85 2498 828.4 C 2493.28 823.68 2488.98 818.48 2484 814 C 2372.28 713.45 2237.32 642.4 2094 599.4 C 2028.73 579.82 1878 546.22 1826 604 C 1820.88 609.69 1816.6 616.68 1814.4 624 C 1813.01 628.64 1811.49 633.12 1811 638 C 1810.36 644.44 1811.86 650.64 1813.4 656.8 C 1820.4 684.81 1842.2 706.28 1863 725 C 1876.99 737.59 1892.63 748.64 1908 759.4 C 1912.14 762.29 1916.93 764.35 1921 767.2 C 1943.37 782.86 1968.57 797.59 1993 809.8 C 2007.13 816.87 2020.87 824.73 2035 831.8 C 2038.23 833.42 2042.29 834.97 2045.2 837 C 2078.93 860.61 2099.27 884.67 2122.6 918 C 2127.65 925.21 2132.85 933.1 2136.8 941 C 2143.67 954.73 2150.93 968.27 2157.8 982 C 2165.43 997.25 2170.57 1013.75 2178.2 1029 C 2184.35 1041.31 2191.62 1057.23 2193 1071 C 2194.13 1082.25 2195.14 1094.63 2194 1106 C 2192.76 1118.38 2190.75 1131.45 2192 1144 C 2192.9 1153.05 2196.01 1162.02 2198.2 1170.8 C 2201.31 1183.25 2201.73 1196.34 2203 1209 C 2203.67 1215.72 2205 1222.19 2205 1229 C 2205 1244.78 2204.56 1260.39 2203 1276 C 2199.03 1315.65 2190.65 1349.18 2202.6 1389 C 2205.84 1399.79 2211.82 1409.04 2216.8 1419 C 2222.95 1431.31 2229.58 1443.63 2240 1453 C 2258.7 1469.83 2287.68 1471.8 2311 1464.8 C 2316.2 1463.24 2321.8 1462.96 2327 1461.4 C 2328.91 1460.83 2330.61 1459.7 2332.6 1459.2 C 2335.03 1458.59 2337.54 1459.14 2340 1458.4 C 2355.1 1453.87 2371.38 1451.56 2387 1450 C 2396.18 1449.08 2405.93 1450.09 2415 1451 C 2425.3 1452.03 2436.56 1457.53 2447 1454.4 C 2464.63 1449.11 2458.58 1423.23 2465.2 1410 C 2466.67 1407.06 2468.49 1403.4 2471 1401.2 C 2472.48 1399.91 2474.3 1399.65 2476 1398.8 C 2479.54 1397.03 2483.24 1396.53 2487 1395.4 C 2493.61 1393.42 2499.82 1385.96 2502.8 1380 C 2509.79 1366.02 2505.4 1357.04 2504 1343 C 2502.87 1331.71 2504.71 1319.18 2509.8 1309 C 2512.26 1304.08 2516.29 1300.44 2519.4 1296 C 2523.77 1289.75 2526.05 1283.17 2528.2 1276 C 2531.38 1265.4 2528.08 1249.78 2527 1239 C 2526.77 1236.66 2526.23 1234.34 2526 1232 C 2525.55 1227.45 2527.01 1222.23 2525.8 1217.8 C 2525.11 1215.28 2514.91 1203.3 2512.6 1200 C 2502.47 1185.52 2491.7 1167.8 2483.8 1152 C 2480.69 1145.79 2476.31 1140.21 2473.2 1134 C 2460.3 1108.21 2441.87 1083.53 2425.4 1060 C 2419.06 1050.94 2411.38 1042.2 2404 1034 C 2402.46 1032.29 2400.52 1030.89 2399.2 1029 C 2392.6 1019.57 2394.18 1009.93 2391.2 1000 C 2389.8 995.34 2388.87 990.09 2387 985.6 C 2384.19 978.85 2377.85 968.07 2373.6 962 C 2370.46 957.51 2367.49 952.79 2364.2 948.4 C 2359.49 942.12 2353.25 936.83 2348 931 C 2318.8 898.56 2282.54 873.27 2247 848.4 C 2224.14 832.4 2199.95 817.27 2175 804.8 C 2159.11 796.85 2145.3 784.79 2128 779.6 C 2121.01 777.5 2113.66 776.09 2106.5 778" stroke-width="4.00"/>
    <path d="M 1896 575 C 1896 580.79 1897.54 587.46 1899.2 593 C 1907.52 620.75 1915.35 635.17 1935 657 C 1940.2 662.78 1963.07 678.41 1964 684" stroke-width="2.83"/>
    <path d="M 1357 578 C 1357 587.51 1359.06 596.6 1360 606 C 1361.84 624.42 1363.85 642.46 1362 661 C 1361.73 663.73 1362.01 666.3 1361.2 669 C 1359.18 675.75 1358.01 682.58 1354.8 689 C 1351.42 695.76 1346.9 702.13 1342.2 708 C 1340.15 710.56 1337.06 713.09 1335.6 716 C 1334.94 717.32 1335 718.57 1335 720" stroke-width="2.00"/>
    <path d="M 2000 579 C 1996.82 588.55 1997.98 598.23 1997 608 C 1996.83 609.68 1996.17 611.32 1996 613 C 1995.65 616.5 1996.66 619.59 1997 623 C 1997.23 625.31 1996.77 627.69 1997 630 C 1999.27 652.68 2007.3 674.5 2019 694 C 2024.93 703.88 2032.28 713.42 2040 722 C 2041.84 724.04 2044.01 725.73 2045.6 728 C 2046.47 729.25 2046.76 730.53 2047 732" stroke-width="2.00"/>
    <path d="M 1541 646 C 1530.09 646 1519.02 643.9 1508 645 C 1490.67 646.73 1474.49 652.65 1458 657.6 C 1452.16 659.35 1446.8 662.86 1441 664.6 C 1439.17 665.15 1437.18 665.06 1435.4 665.8 C 1429.26 668.36 1423.94 672.83 1418 675.8 C 1409.2 680.2 1400.8 685.4 1392 689.8 C 1375.08 698.26 1357.57 707.5 1342 718.4 C 1339 720.5 1335.09 720.43 1332 722.4 C 1329.44 724.03 1319.54 731.94 1317 734.2 C 1315.3 735.71 1314.82 738.18 1313 739.6 C 1309.54 742.29 1304.6 743.08 1301 745.6 C 1294.01 750.49 1287.2 755.82 1280 760.4 C 1275.72 763.13 1269.64 762.88 1265 765.2 C 1249.32 773.04 1233.68 780.96 1218 788.8 C 1213.15 791.23 1207.85 792.77 1203 795.2 C 1155.59 818.9 1108.67 845.3 1069 881 C 1059.16 889.86 1048.38 897.62 1039 907 C 1026.89 919.11 1013.51 930.21 1002 943 C 981.46 965.82 943.14 1008.63 940 1040 C 939.21 1047.92 942 1055.26 942 1063" stroke-width="2.83"/>
    <path d="M 1814 655 C 1827.71 652.72 1841.98 650.6 1856 652 C 1888.36 655.24 1920.87 665.24 1950 679.8 C 1953.34 681.47 1957.41 683.42 1961 684.4 C 1963.32 685.03 1965.81 685.1 1968 686.2 C 1975.91 690.16 1983.41 695.45 1991 700 C 2003.72 707.63 2016.87 714.91 2029 723.4 C 2033.36 726.45 2038.27 729.64 2043 732 C 2045.21 733.1 2047.85 733.23 2050 734.6 C 2057.43 739.33 2063.75 746.13 2071 751.2 C 2081.62 758.63 2098.02 768.75 2106.5 778" stroke-width="2.83"/>
    <path d="M 2287 680 C 2284.05 688.84 2278.34 696.71 2274.2 705 C 2267.4 718.6 2259 731.4 2252.2 745 C 2245.23 758.94 2237.23 772.61 2229.2 786 C 2224.63 793.62 2211.35 813.95 2209 821" stroke-width="2.00"/>
    <path d="M 1035 693 C 1044.16 706.75 1052.1 721.43 1061.6 735 C 1074.96 754.08 1087.24 773.92 1100.6 793 C 1110.13 806.62 1119.77 820.16 1129 834" stroke-width="2.83"/>
    <path d="M 1510 750 C 1517.29 747.57 1525.61 749.26 1533 750 C 1568.88 753.59 1592.46 774.46 1617 799 C 1626.66 808.66 1638.34 819.48 1642.4 833 C 1647.99 851.65 1635.8 877.39 1643 899" stroke-width="2.00"/>
    <path d="M 1499 752 C 1467.45 757.26 1375.73 825.27 1352 849 C 1349.8 851.2 1347.3 852.93 1345 855 C 1336.51 862.64 1319.16 883.42 1318 895 C 1316.92 905.82 1323.03 918.52 1331 925.6 C 1337.89 931.73 1339.52 929.03 1344 938" stroke-width="2.00"/>
    <path d="M 2015 756 C 2027.38 756 2058.44 763.83 2071 767.6 C 2076.08 769.12 2080.77 772.13 2086 773" stroke-width="2.00"/>
    <path d="M 1789 757 C 1790 757 1791 757 1792 757" stroke-width="2.00"/>
    <path d="M 1799 757 C 1813.59 757 1828.36 765.48 1841 771.8 C 1846.2 774.4 1851.8 776.2 1857 778.8 C 1863.05 781.83 1868.95 785.17 1875 788.2 C 1897.17 799.28 1915.88 816.11 1936 830.2 C 1945.77 837.04 1955.67 843.94 1965 851.4 C 1977.92 861.74 2003.93 888.36 2000.2 907 C 1997.72 919.39 1986.98 919.83 1981 927" stroke-width="2.00"/>
    <path d="M 1782 758 C 1753.6 758 1680 813.99 1668 838 C 1662.35 849.3 1665.21 862.94 1664 875 C 1663.38 881.19 1661.15 892.31 1664 898" stroke-width="2.00"/>
    <path d="M 1277 763 C 1274.62 777.28 1245.58 794.5 1234 802.6 C 1202.04 824.97 1167.96 844.23 1136 866.6 C 1131.71 869.6 1126.89 872.5 1123 876 C 1120.88 877.91 1118.73 880.17 1116.4 881.8 C 1114.06 883.44 1111.37 884.14 1109 885.8 C 1091.81 897.84 1076.56 912 1061 926 C 1055.05 931.35 1049.95 937.65 1044 943 C 1031.91 953.88 1020.52 965.48 1009 977 C 988.17 997.83 962.31 1020.98 953.6 1050 C 952.94 1052.19 952.99 1054.77 953.4 1057 C 954 1060.29 956.25 1062.84 957.2 1066 C 963.54 1087.14 968.22 1110.8 966 1133 C 964.93 1143.66 964.07 1154.34 963 1165 C 962.64 1168.63 963.36 1172.37 963 1176 C 960.57 1200.3 961.69 1225.78 972.8 1248 C 975.66 1253.72 978.58 1259.61 984 1263.4 C 992.24 1269.16 1003.73 1267.38 1009.6 1259 C 1012.17 1255.33 1022.08 1207.08 1024.8 1198 C 1025.46 1195.81 1027.05 1193.98 1027.6 1191.8 C 1028.41 1188.57 1027.83 1185.24 1028.8 1182 C 1033.64 1165.88 1036.36 1149.12 1041.2 1133 C 1042.77 1127.78 1043.23 1122.22 1044.8 1117 C 1047.56 1107.79 1049.04 1098.2 1051.8 1089 C 1053.98 1081.72 1056.24 1073.62 1057 1066 C 1057.84 1057.62 1060.16 1049.38 1061 1041 C 1062.99 1021.08 1066.86 995.14 1072.6 976 C 1074.68 969.06 1076.94 961.53 1080.2 955 C 1083.52 948.36 1088.48 942.64 1091.8 936 C 1097.03 925.55 1100.97 914.45 1106.2 904 C 1109.52 897.36 1113.64 891.07 1116 884" stroke-width="2.00"/>
    <path d="M 2088 774 C 2094.18 776.06 2099.9 779.76 2106.5 778" stroke-width="2.00"/>
    <path d="M 2106.5 778 C 2108.41 779.77 2109.28 782.09 2111 784 C 2115.65 789.17 2120.23 794.16 2126 798.2 C 2136.13 805.29 2146.87 811.51 2157 818.6 C 2169.41 827.29 2180.77 837.89 2192 848 C 2198.38 853.74 2206.15 857.72 2211 865" stroke-width="2.83"/>
    <path d="M 871 821 C 892.28 842.28 915.8 861.55 936 884 C 947.19 896.43 959.81 907.57 971 920 C 979.33 929.25 987.2 939.2 996 948" stroke-width="2.83"/>
    <path d="M 1656 827 C 1650.43 826.07 1633.84 801.84 1628 796 C 1607.2 775.2 1586.97 753.09 1558 744.4 C 1552.43 742.73 1546.88 740.59 1541 740 C 1523.43 738.24 1506 739.5 1489 744.6 C 1462.13 752.66 1430.05 776.26 1407 792.4 C 1388.47 805.37 1369.9 817.79 1353 833 C 1333.49 850.56 1307.78 875.21 1305 903 C 1303.59 917.1 1310.03 934.26 1323.8 940 C 1327.79 941.66 1333.56 942.68 1337 944.4 C 1340.49 946.14 1348.46 954.66 1350.8 958 C 1355.65 964.93 1354.24 975.15 1356.6 983 C 1358.67 989.9 1360.78 997.55 1364 1004" stroke-width="4.00"/>
    <path d="M 1652 898 C 1652 892.17 1652.43 886.74 1653 881 C 1653.66 874.4 1652.34 867.6 1653 861 C 1653.8 852.98 1655.2 845.02 1656 837 C 1656.23 834.73 1655.52 832.19 1656.4 830 C 1657.46 827.35 1680.93 807.07 1685 803 C 1716.89 771.11 1755.24 740.22 1803 745 C 1830.45 747.75 1891.48 783.94 1915 800.4 C 1926.62 808.53 1938.38 816.47 1950 824.6 C 1967.39 836.77 2005.37 869.89 2011.4 890 C 2012.98 895.27 2012.46 900.63 2013 906 C 2013.36 909.6 2014.74 913.31 2014 917 C 2013.92 917.41 2001.44 930.63 2000.2 931.6 C 1997.02 934.07 1992.47 933.21 1990 936.6 C 1978.27 952.73 1978.84 995.08 1963 1003 C 1961.1 1003.95 1959.03 1003.8 1957 1004 C 1955.25 1004.18 1953.59 1004.95 1951.8 1004.8 C 1935.76 1003.46 1914.04 975.04 1903 964 C 1873.51 934.51 1842.27 911.84 1805 893.2 C 1795.92 888.66 1785.18 885.98 1775 887 C 1765.51 887.95 1749.95 899.32 1741 903.8 C 1714.16 917.22 1686.68 935.93 1656 939 C 1651.51 939.45 1647.38 938.44 1643 938 C 1616.32 935.33 1598.46 922.22 1577 907.2 C 1569.15 901.7 1562.7 894.55 1554 890.2 C 1547.6 887 1540.08 886.29 1533 887 C 1521.11 888.19 1493.59 907.98 1483 915.4 C 1458.71 932.4 1429.12 944.97 1411.6 970 C 1405.5 978.72 1402.49 988.62 1397.8 998 C 1392.37 1008.86 1386.75 1021.54 1388 1034 C 1390.34 1057.42 1405.73 1084.46 1423 1100 C 1427.53 1104.07 1433.06 1107.14 1438 1110.6 C 1443.21 1114.24 1448.92 1117.58 1455 1119.4 C 1461.12 1121.24 1467.35 1124.67 1474 1124 C 1484.99 1122.9 1488.76 1112.49 1497 1107" stroke-width="2.83"/>
    <path d="M 1797 827 C 1791.66 827 1786.29 825.47 1781 826 C 1755.09 828.59 1733.33 840.67 1715 859 C 1710.75 863.25 1707.04 868.08 1703.6 873 C 1697 882.43 1692.72 899.63 1679 901 C 1674.67 901.43 1670.09 900.96 1665.8 900.6 C 1662.83 900.35 1659.95 901.3 1657 901 C 1655.05 900.81 1653.32 899.52 1651.4 899.2 C 1646.44 898.37 1641 901.7 1636 899.2 C 1627.3 894.85 1620.35 885.44 1614.4 878 C 1594.53 853.16 1578.77 838.03 1548 828.8 C 1529.16 823.15 1506.99 829.3 1490 837.8 C 1482.48 841.56 1474.52 844.44 1467 848.2 C 1448.41 857.49 1430.98 868.91 1414 880.8 C 1403.78 887.96 1395.24 897.68 1386 906 C 1376.3 914.73 1366.76 924.02 1355.8 931 C 1353.87 932.23 1352.68 934.31 1351 935.8 C 1347.58 938.84 1342.84 941.44 1339 944" stroke-width="2.83"/>
    <path d="M 1800 828 C 1803.44 828 1806.76 829.43 1810 830.4 C 1826.85 835.46 1838.53 842.06 1854 849.8 C 1873.7 859.65 1892.99 871.99 1911 884.6 C 1924.56 894.09 1936.44 905.91 1950 915.4 C 1956.05 919.63 1962.92 923.28 1970 925.4 C 1972.81 926.24 1976.41 925.96 1979 927.4 C 1980.84 928.42 1981.42 930.57 1983 931.8 C 1984.8 933.2 1987.1 933.74 1989 935" stroke-width="2.00"/>
    <path d="M 2497 829 C 2492.4 835.9 2477.72 847.95 2471 854 C 2456.1 867.41 2441.9 881.59 2427 895 C 2416.47 904.48 2405.53 913.52 2395 923 C 2385.46 931.59 2376.73 941.84 2366 949" stroke-width="2.83"/>
    <path d="M 1190 834 C 1191.53 836.3 1193.19 838.96 1196 839.8 C 1201.44 841.43 1241.47 832.95 1251 832 C 1259.38 831.16 1268.08 833.02 1276 835.4 C 1281.44 837.03 1286.88 838.88 1291 843" stroke-width="2.00"/>
    <path d="M 2047 836 C 2054.78 829.52 2087.17 829 2098 829 C 2139.12 829 2161.72 843.16 2197 860.8 C 2200.22 862.41 2203.53 864.36 2207 865.4 C 2209.38 866.11 2211.77 866.38 2214 867.6 C 2223.83 872.96 2233.81 879.17 2243 885.6 C 2245.54 887.38 2247.1 890.05 2249.6 891.8 C 2253.37 894.44 2257.23 895.86 2261 899" stroke-width="2.00"/>
    <path d="M 1553 858 C 1549.15 856.08 1546.12 856.41 1542 856 C 1538.93 855.69 1536.16 854.68 1533 855 C 1513.87 856.91 1494.91 864.4 1479 875" stroke-width="2.00"/>
    <path d="M 2539 875 C 2534.51 879.49 2529.17 882.98 2524 886.6 C 2515.21 892.75 2506.79 899.45 2498 905.6 C 2478.03 919.58 2458.96 934.82 2439 948.8 C 2429.25 955.62 2396.1 982.3 2388 985" stroke-width="2.83"/>
    <path d="M 819 879 C 833.91 888.94 847.33 901.13 862 911.4 C 875.49 920.84 888.51 930.96 902 940.4 C 923.16 955.21 944.51 969.67 966 984" stroke-width="2.83"/>
    <path d="M 1639 881 C 1631.46 873.46 1625.65 858.71 1620.8 849 C 1603.39 814.17 1578.24 783.12 1537 779 C 1518.33 777.13 1499.48 783.56 1483 791.8 C 1478.81 793.89 1474.19 795.11 1470 797.2 C 1461.73 801.33 1453.27 805.07 1445 809.2 C 1440.09 811.66 1435.48 815.26 1431 818.4 C 1412.26 831.52 1393.27 844.73 1377 861 C 1362.01 875.99 1340.37 897.55 1347.4 921 C 1348.45 924.51 1351.97 927.95 1354 931" stroke-width="2.00"/>
    <path d="M 2249 894 C 2249 899.84 2262.74 935.12 2265.4 944 C 2268.19 953.3 2270.61 962.7 2273.4 972 C 2280.59 995.96 2284.01 1021.04 2291.2 1045 C 2293.25 1051.84 2293.75 1059.16 2295.8 1066 C 2300.53 1081.78 2303.07 1098.22 2307.8 1114 C 2312.23 1128.75 2316.17 1143.85 2319.2 1159 C 2323.13 1178.64 2329.57 1197.43 2337 1216 C 2338.06 1218.65 2338.35 1221.64 2340 1224 C 2343.39 1228.84 2349.18 1231.55 2355 1229.8 C 2373.09 1224.37 2379.34 1199.63 2381 1183 C 2381.2 1181.02 2380.8 1178.98 2381 1177 C 2381.17 1175.32 2381.83 1173.68 2382 1172 C 2382.38 1168.16 2381.37 1164.74 2381 1161 C 2380.77 1158.69 2381.23 1156.31 2381 1154 C 2380.1 1144.96 2377.9 1136.04 2377 1127 C 2374.48 1101.78 2369.46 1076.4 2372 1051 C 2372.23 1048.69 2371.77 1046.31 2372 1044 C 2372.84 1035.56 2375.28 1025.09 2380 1018" stroke-width="2.00"/>
    <path d="M 1665 898 C 1666.53 896.73 1668.37 895.59 1669.6 894 C 1674.56 887.62 1673.42 879.27 1675.6 872 C 1678.2 863.35 1679.71 854.19 1683.8 846 C 1689.54 834.52 1699.67 825.83 1710 818.6 C 1773.3 774.29 1822.99 787.39 1883 829.4 C 1891.35 835.25 1900.65 839.75 1909 845.6 C 1917 851.2 1925 856.8 1933 862.4 C 1937.42 865.49 1941.96 868.36 1946 872 C 1960.44 884.99 1973.21 905.81 1984 922" stroke-width="2.00"/>
    <path d="M 2266 903 C 2273.36 906.68 2279.94 913.54 2286 919 C 2290.22 922.79 2294.78 926.21 2299 930 C 2309.11 939.1 2318.38 949.38 2328 959 C 2335.3 966.3 2343.1 973.33 2350 981 C 2357.04 988.82 2373.77 1013.98 2381 1018 C 2384.85 1020.14 2389.69 1021.28 2394 1022" stroke-width="2.83"/>
    <path d="M 2015 920 C 2019.32 920.72 2023.47 923.93 2027 926.4 C 2042.4 937.18 2052.87 952.67 2059.8 970 C 2064.28 981.19 2069.42 992.24 2074.8 1003 C 2084.66 1022.72 2089.83 1044.27 2092 1066 C 2092.92 1075.17 2090.93 1088.66 2090 1098 C 2089.77 1100.31 2090.23 1102.69 2090 1105 C 2088.03 1124.73 2084.18 1144.96 2086 1165 C 2086.34 1168.71 2087.63 1172.31 2088 1176 C 2089.43 1190.31 2090.6 1206.01 2086.4 1220 C 2085.8 1222 2084.23 1223.63 2083.2 1225.4 C 2082.16 1227.19 2081.71 1229.17 2080.8 1231 C 2075.47 1241.66 2068.41 1252.27 2061.6 1262 C 2058.27 1266.76 2055.76 1272.21 2052.4 1277 C 2050.55 1279.64 2047.82 1281.62 2046.2 1284.4 C 2045.18 1286.14 2044.9 1288.2 2044 1290 C 2042.09 1293.83 2039.06 1297.49 2036.6 1301 C 2031.35 1308.49 2026.85 1316.51 2021.6 1324 C 2010.15 1340.35 2000.05 1357.65 1988.6 1374 C 1982.51 1382.7 1977.69 1392.3 1971.6 1401 C 1966.39 1408.44 1961.84 1416.92 1957.8 1425 C 1955.68 1429.24 1951.94 1432.53 1950 1436.8 C 1948.87 1439.29 1948 1441.71 1946.4 1444 C 1929.04 1468.8 1908.59 1494.67 1886 1515 C 1879.85 1520.54 1874.11 1519.56 1867 1522.4 C 1859.99 1525.2 1853.28 1529.22 1846 1531.4 C 1840.33 1533.1 1833.89 1534.41 1828 1535 C 1824.7 1535.33 1821.3 1534.67 1818 1535 C 1794.83 1537.32 1771.98 1534.3 1749 1532 C 1741.07 1531.21 1709.33 1528.96 1704 1526 C 1702.37 1525.09 1702 1523.74 1702 1522" stroke-width="4.00"/>
    <path d="M 2002 933 C 2002 954.2 2021.68 955.27 2035 964.6 C 2038.65 967.16 2042.03 970.7 2045 974 C 2054.65 984.72 2058.56 1001.55 2062.6 1015 C 2065.35 1024.16 2069.65 1032.84 2072.4 1042 C 2076.62 1056.07 2078.48 1071.21 2077 1086 C 2075.67 1099.33 2074.33 1112.67 2073 1126 C 2072.13 1134.67 2070.12 1143.16 2071 1152 C 2071.55 1157.51 2073.93 1164.39 2077 1169" stroke-width="2.00"/>
    <path d="M 1314 936 C 1308.78 939.48 1301.68 940.36 1296 943.2 C 1289.73 946.34 1283.22 950.3 1278 955 C 1275.42 957.32 1273.58 960.31 1271 962.6 C 1268 965.26 1265.13 967.67 1262.8 971 C 1243.56 998.49 1235.3 1030.97 1232 1064 C 1231.77 1066.31 1232.23 1068.69 1232 1071 C 1230.32 1087.76 1230.32 1105.24 1232 1122 C 1232.7 1128.96 1232.3 1136.04 1233 1143 C 1233.97 1152.7 1236.03 1162.3 1237 1172 C 1239.92 1201.19 1248.97 1238.95 1262 1265 C 1263.52 1268.05 1265.63 1269.92 1267.8 1272.4 C 1270.69 1275.71 1271.52 1279.87 1275 1283 C 1286.45 1293.31 1295.7 1297.44 1305.2 1311 C 1338.52 1358.6 1376.61 1402.76 1412.8 1448 C 1424.04 1462.05 1447.44 1488.46 1452.4 1505 C 1454.68 1512.59 1452.78 1524.21 1452 1532 C 1451.09 1541.09 1453.12 1552.46 1458.4 1560 C 1463.53 1567.33 1473.01 1574.81 1481 1578.8 C 1507.28 1591.94 1530.27 1595.13 1559 1598 C 1564.61 1598.56 1570.39 1597.44 1576 1598 C 1577.68 1598.17 1579.32 1598.83 1581 1599 C 1587.54 1599.65 1595.46 1599.65 1602 1599 C 1605.74 1598.63 1609.16 1597.62 1613 1598 C 1629.55 1599.65 1643.49 1610.35 1660 1612 C 1678.36 1613.84 1695.09 1605.79 1713 1604 C 1723.74 1602.93 1734.45 1604.94 1745 1606 C 1750.64 1606.56 1756.36 1606.44 1762 1607 C 1764.36 1607.24 1766.58 1608.24 1769 1608 C 1770.61 1607.84 1771.8 1607 1773 1606" stroke-width="4.00"/>
    <path d="M 1321 941 C 1321 944.5 1323.28 948.61 1321.4 952 C 1318.02 958.08 1304.66 962.44 1299 966.4 C 1284.07 976.85 1264.96 996.13 1259.6 1014 C 1253.56 1034.13 1249.09 1055.06 1247 1076 C 1246.77 1078.31 1247.23 1080.69 1247 1083 C 1246.66 1086.43 1246 1089.5 1246 1093 C 1246 1099.69 1247.11 1124.47 1246.2 1129 C 1245.9 1130.5 1244.94 1131.87 1244 1133" stroke-width="2.00"/>
    <path d="M 1825 1101 C 1826.18 1093.9 1830.27 1088.27 1831 1081 C 1831.6 1075.03 1831.4 1068.97 1832 1063 C 1833.22 1050.8 1833.77 1036.9 1830.2 1025 C 1829.48 1022.6 1827.68 1021.16 1826.6 1019 C 1825.49 1016.77 1825.32 1014.25 1824.2 1012 C 1821.1 1005.8 1815.6 1000.11 1811 995 C 1805.45 988.84 1798.84 983.84 1793 978 C 1783.42 968.42 1772.07 960.23 1760 954.2 C 1757.97 953.19 1755.69 953.07 1753.6 952.2 C 1747.9 949.82 1742.27 947.63 1736 947 C 1714.84 944.88 1695.62 954.31 1676 960.2 C 1667.37 962.79 1657.91 962 1649 962 C 1646.95 962 1645.03 961.2 1643 961 C 1638.68 960.57 1634.32 960.43 1630 960 C 1626.63 959.66 1623.37 958.34 1620 958 C 1613.13 957.31 1605.61 955.78 1599 953.8 C 1592.15 951.74 1584.64 951.59 1577.6 951 C 1564.65 949.92 1556.73 949.78 1544 953.6 C 1529.26 958.02 1516.36 970.3 1507 982 C 1499.27 991.67 1491.21 1002.98 1487.6 1015 C 1486.87 1017.42 1487.2 1019.58 1487.2 1022 C 1487.2 1024.87 1485.28 1027.22 1485 1030 C 1484.56 1034.36 1484.56 1039.64 1485 1044 C 1485.18 1045.79 1486.05 1047.44 1486.2 1049.2 C 1486.73 1055.61 1487.24 1060.36 1488.8 1066.6 C 1489.47 1069.28 1489.05 1072.24 1489.6 1075 C 1492.04 1087.19 1495.73 1102.86 1500.8 1114 C 1501.96 1116.56 1501.94 1119.48 1503.2 1122 C 1504.12 1123.84 1506.14 1125.03 1506.8 1127 C 1507.4 1128.8 1507.01 1130.3 1508.2 1132 C 1509.7 1134.15 1512.21 1135.22 1513.4 1137.6 C 1515.57 1141.95 1515.41 1147.38 1516.8 1152 C 1521.89 1168.95 1525.91 1188.91 1539 1202" stroke-width="2.00"/>
    <path d="M 1577 952 C 1577 966.47 1602.15 1002.06 1612 1013 C 1619.25 1021.06 1628.91 1026.86 1635 1036" stroke-width="2.83"/>
    <path d="M 1753 954 C 1750.38 959.24 1748.41 964.77 1745.8 970 C 1743.42 974.76 1739.63 978.68 1736.6 983 C 1730.04 992.37 1724.72 1002.42 1717 1011 C 1711.96 1016.6 1706.04 1021.4 1701 1027 C 1697.03 1031.42 1694.21 1036.79 1690 1041" stroke-width="2.83"/>
    <path d="M 1391 1010 C 1385.02 1007.01 1371.06 1002.66 1364.6 1005.6 C 1360.36 1007.53 1345.49 1026.3 1342.2 1031 C 1338.58 1036.17 1334.2 1040.34 1330 1045 C 1317.64 1058.74 1311 1074.67 1305.8 1092 C 1301.61 1105.97 1302.81 1120.98 1298.6 1135 C 1294.75 1147.85 1285.61 1144.39 1279 1151" stroke-width="2.00"/>
    <path d="M 1950 1006 C 1942.84 1016.74 1938.55 1029.5 1932.8 1041 C 1926.08 1054.45 1918.24 1067.65 1909.6 1080 C 1904.85 1086.79 1901.57 1094.81 1896 1101 C 1892.97 1104.36 1889.26 1106.51 1886 1109.5" stroke-width="2.00"/>
    <path d="M 2396 1017 C 2404.02 1017 2428.93 1025.68 2438 1028.4 C 2475.37 1039.61 2512.63 1051.19 2550 1062.4 C 2565.11 1066.93 2580.89 1069.27 2596 1073.8 C 2604.27 1076.28 2614.34 1079 2623 1079" stroke-width="2.00"/>
    <path d="M 720 1037 C 729.44 1041.72 737.47 1049.04 747 1053.8 C 772.41 1066.51 798.85 1073.19 827 1076 C 831.56 1076.46 836.41 1076 841 1076 C 851.71 1076 862.4 1076.06 873 1075 C 882.37 1074.06 891.63 1071.94 901 1071 C 910.99 1070 922.27 1064.97 932 1064 C 934.93 1063.71 938.05 1064 941 1064" stroke-width="2.00"/>
    <path d="M 1862 1123 C 1857.65 1125.9 1851.98 1128.11 1847 1129.6 C 1839.01 1132 1831.44 1136.16 1823 1137 C 1805.25 1138.78 1768.69 1129.71 1751 1124.4 C 1741.67 1121.6 1731.79 1117.98 1722 1117 C 1713.1 1116.11 1704.7 1118.13 1696 1119 C 1692.06 1119.39 1687.84 1117.75 1684 1118.8 C 1673.04 1121.79 1662.98 1128.99 1651 1125.4 C 1647.21 1124.26 1636.11 1118.91 1632.8 1116.8 C 1630.58 1115.39 1629.13 1113.09 1627 1111.6 C 1619.44 1106.31 1610.62 1102.62 1604 1096 C 1600.42 1092.42 1598.5 1086.98 1598 1082 C 1597.04 1072.41 1604.74 1063.26 1611 1057 C 1622.51 1045.49 1637.23 1033.68 1654 1032 C 1671.88 1030.21 1694.88 1043.88 1707 1056 C 1710.87 1059.87 1712.82 1065.23 1715.2 1070 C 1716.95 1073.51 1718.6 1077.02 1719 1081 C 1720.78 1098.8 1692.34 1108.32 1688 1117" stroke-width="4.00"/>
    <path d="M 1831 1041 C 1825.09 1041.98 1819.3 1046.15 1814 1048.8 C 1803.99 1053.81 1792.63 1057.21 1782 1060.4 C 1769.92 1064.02 1747.5 1068.75 1735 1070 C 1729.43 1070.56 1723.36 1071.21 1718 1073" stroke-width="2.00"/>
    <path d="M 1488 1050 C 1493.23 1050 1498.1 1053.13 1503 1054.6 C 1516.51 1058.65 1530.49 1061.15 1544 1065.2 C 1553.16 1067.95 1572.55 1072.05 1582 1073 C 1586.89 1073.49 1592.53 1073.76 1597 1076" stroke-width="2.00"/>
    <path d="M 1498 1072 C 1499.44 1073.44 1501.03 1073 1503 1073" stroke-width="6.00"/>
    <path d="M 1873 1073 C 1871.85 1070.69 1871.33 1068.44 1870.6 1066 C 1869.87 1063.57 1868.33 1061.45 1867.6 1059 C 1865.01 1050.37 1861.86 1041.11 1857.8 1033 C 1842.35 1002.11 1833.64 983.98 1807 960 C 1797.73 951.66 1788.28 942.84 1777 937.2 C 1770.29 933.84 1762.44 931.74 1755 931 C 1741.64 929.66 1706.3 935.61 1693 939.6 C 1683.7 942.39 1674.8 948.02 1665 949 C 1627.72 952.73 1590.55 933.14 1552 937 C 1538.1 938.39 1524.3 944.49 1513 952.4 C 1472.72 980.59 1454.1 1020.33 1440.4 1066 C 1437.11 1076.95 1430.81 1091.16 1429 1102" stroke-width="2.00"/>
    <path d="M 1876 1082 C 1879.06 1091.17 1883.51 1100.17 1886 1109.5" stroke-width="2.00"/>
    <path d="M 1821 1108 C 1817.21 1115.58 1811.81 1122.38 1808 1130 C 1807.2 1131.61 1807.1 1133.52 1806.4 1135.2 C 1805.58 1137.16 1804.21 1138.95 1803.6 1141 C 1801.46 1148.12 1799.74 1155.58 1799 1163 C 1798.57 1167.33 1798.66 1172.17 1797.6 1176.4 C 1796.88 1179.3 1795.14 1181.86 1794 1184.6 C 1793.13 1186.68 1792.83 1188.94 1791.8 1191 C 1786.93 1200.73 1776.65 1207.74 1768 1213.8 C 1763.66 1216.84 1757.24 1222.13 1752 1223" stroke-width="2.00"/>
    <path d="M 1886 1109.5 C 1880.56 1114.48 1873.12 1116.92 1867 1121" stroke-width="2.00"/>
    <path d="M 1886 1109.5 C 1888.38 1115.45 1892.71 1121.73 1896.4 1127 C 1907.3 1142.57 1918.38 1153.02 1937 1158.6 C 1941.27 1159.88 1945.73 1160.52 1950 1161.8 C 1957.35 1164 1966.3 1164.77 1974 1164 C 1980.21 1163.38 1987.11 1161.57 1993 1159.8 C 1996.39 1158.78 1999.22 1155.02 2003 1155.4 C 2007.8 1155.88 2011.45 1161.03 2016 1162.4 C 2029.28 1166.38 2043.27 1169.63 2057 1171 C 2059.31 1171.23 2061.69 1170.77 2064 1171 C 2066.36 1171.24 2068.58 1172.24 2071 1172 C 2075.83 1171.52 2080.21 1168.8 2085 1168" stroke-width="2.00"/>
    <path d="M 1508 1115 C 1506.31 1115 1505.05 1116 1503 1116" stroke-width="4.00"/>
    <path d="M 1630 1118 C 1623.48 1121.26 1589.13 1117.99 1579 1119 C 1562.7 1120.63 1546.51 1126.75 1531 1131.4 C 1528.05 1132.28 1524.89 1131.93 1522 1132.8 C 1519.64 1133.51 1517.06 1135.62 1515 1137" stroke-width="2.00"/>
    <path d="M 1450 1119 C 1446.96 1123.55 1442.78 1126.22 1439 1130 C 1432.94 1136.06 1427.01 1141.49 1420 1146.4 C 1406.55 1155.81 1376.46 1162.35 1360 1164 C 1352.17 1164.78 1345.79 1164.78 1338 1164 C 1332.76 1163.48 1327.17 1164.83 1322 1163.8 C 1318.65 1163.13 1315.36 1162.27 1312 1161.6 C 1311.64 1161.53 1309.25 1161.05 1309 1161.4 C 1307.83 1163.05 1310.74 1165.09 1312 1166.67" stroke-width="2.00"/>
    <path d="M 1233 1132 C 1244.32 1132 1244.87 1140.23 1254 1144.8 C 1258.77 1147.18 1266.7 1149.47 1272 1150 C 1273.71 1150.17 1275.31 1149.89 1277 1150.4 C 1278.89 1150.97 1280.25 1152.53 1282 1153.4 C 1285.89 1155.35 1290.83 1156.35 1295 1157.6 C 1297.74 1158.42 1301.8 1160.27 1304.2 1161.8 C 1306.28 1163.12 1309.01 1168.66 1312 1166.67" stroke-width="2.83"/>
    <path d="M 1965 1143 C 1972.63 1143 1983.24 1141.96 1989 1136.2 C 1994.44 1130.76 1997.43 1119.23 1999.6 1112 C 2006.35 1089.5 2014.06 1055.34 1991 1039.2 C 1985.1 1035.07 1978.31 1031.73 1971 1031 C 1963.6 1030.26 1955.56 1034.35 1950 1038.8 C 1928.71 1055.83 1925.47 1080.69 1928 1106 C 1928.67 1112.73 1930.43 1120.33 1934.4 1126 C 1936.23 1128.61 1938.76 1130.76 1941 1133 C 1944.9 1136.9 1951.31 1141 1957 1141" stroke-width="2.00"/>
    <path d="M 1992 1136 C 1994.06 1138.06 1993.39 1139.39 1995 1141" stroke-width="2.41"/>
    <path d="M 1148 1137 C 1146.16 1137 1144.68 1137.16 1143 1138 C 1137.83 1140.59 1133.17 1144.21 1128 1146.8 C 1122 1149.8 1116 1152.8 1110 1155.8 C 1099.54 1161.03 1088.09 1163.87 1077 1167.2 C 1069.08 1169.58 1060.52 1169.44 1053 1173.2 C 1043.14 1178.13 1037.26 1188.62 1029 1190" stroke-width="2.00"/>
    <path d="M 1997 1145 C 1998.42 1146.42 1998.73 1147.73 2000 1149" stroke-width="2.00"/>
    <path d="M 1261 1149 C 1261 1156.21 1260.28 1163.83 1261 1171 C 1262.76 1188.64 1272.09 1217.17 1280 1233 C 1281.13 1235.25 1281.39 1237.78 1282.8 1240 C 1286.59 1245.96 1291.55 1251.21 1295.6 1257 C 1298.98 1261.83 1301.38 1267.5 1304.8 1272.2 C 1306.5 1274.54 1309.08 1275.89 1311 1278 C 1314.47 1281.81 1319 1290.84 1319 1296" stroke-width="2.83"/>
    <path d="M 1793 1183 C 1784.51 1178.75 1774.03 1178.91 1765 1176.2 C 1759.92 1174.68 1754.27 1173.53 1749 1173 C 1737.34 1171.83 1725.13 1168.14 1714 1164.8 C 1710.98 1163.9 1707.91 1164.87 1705 1164 C 1692.36 1160.21 1681.39 1153.34 1668 1152 C 1664.59 1151.66 1661.5 1150.65 1658 1151 C 1642.45 1152.56 1634.04 1157.79 1620 1162 C 1617.01 1162.9 1614.09 1161.87 1611 1162.8 C 1593.75 1167.98 1576.27 1175 1558 1175" stroke-width="2.00"/>
    <path d="M 1618 1163 C 1617.14 1164.28 1616.61 1165.82 1615.67 1167 C 1613.88 1169.23 1611 1169.58 1611 1173" stroke-width="2.83"/>
    <path d="M 1707 1165 C 1707.97 1167.92 1709.78 1169.23 1712 1171.2 C 1713.69 1172.7 1714.83 1174.75 1716.6 1176.2 C 1720.36 1179.27 1725.46 1180.25 1728.8 1184 C 1732.23 1187.86 1734.7 1193.25 1736.6 1198 C 1738.72 1203.31 1740.37 1224.1 1738.5 1229.33" stroke-width="2.00"/>
    <path d="M 1992 1166 C 1989.67 1168.33 1987.33 1170.67 1985 1173" stroke-width="2.41"/>
    <path d="M 2199 1169 C 2215.98 1169 2232.2 1175.32 2249 1177 C 2259.06 1178.01 2270.32 1180.29 2280 1183.2 C 2289.47 1186.04 2299.53 1186.96 2309 1189.8 C 2314.73 1191.52 2322.52 1198 2328 1198" stroke-width="2.00"/>
    <path d="M 1312 1166.67 C 1322.47 1174.23 1334.69 1179.11 1347 1182.8 C 1349.09 1183.43 1350.94 1184.78 1353 1185.4 C 1360.89 1187.77 1369.11 1189.03 1377 1191.4 C 1380.98 1192.59 1384.77 1194 1389 1194" stroke-width="2.00"/>
    <path d="M 2042 1171 C 2042 1176.1 2043.5 1180.96 2044 1186 C 2045.17 1197.74 2045.17 1209.27 2044 1221 C 2043.61 1224.93 2042.53 1229.24 2041.4 1233 C 2040.13 1237.22 2036.77 1240.55 2039 1245" stroke-width="2.00"/>
    <path d="M 1653 1227.5 C 1652.53 1223.98 1651.5 1220.37 1651.8 1216.8 C 1652.21 1211.92 1656.91 1201.28 1655.2 1197 C 1653.66 1193.15 1648.19 1190.63 1645 1188.4 C 1635.54 1181.78 1620.36 1172.57 1608.2 1174.6 C 1603.04 1175.46 1596.46 1179.55 1593 1183.4 C 1587.17 1189.88 1581.88 1208.2 1581 1217 C 1580.79 1219.06 1579.3 1221.95 1580 1224 C 1580.73 1226.15 1582.92 1228.14 1584.33 1229.67" stroke-width="2.00"/>
    <path d="M 1554 1176 C 1546.33 1179.83 1536.65 1178.17 1529 1182" stroke-width="2.00"/>
    <path d="M 1715 1176 C 1711.31 1177.84 1706.95 1176.61 1703 1177.8 C 1696.35 1179.8 1673.52 1187.16 1670.6 1193 C 1668.75 1196.71 1673.36 1214.28 1673.8 1219.6 C 1673.99 1221.83 1673 1223.97 1673 1226.2" stroke-width="2.00"/>
    <path d="M 1799 1177 C 1807.91 1177 1815.96 1183 1825 1183" stroke-width="2.00"/>
    <path d="M 1977 1178 C 1952.73 1198.22 1857.58 1193.86 1828 1184" stroke-width="2.00"/>
    <path d="M 1523 1179 C 1520.86 1179 1518.5 1182.5 1517 1184" stroke-width="2.83"/>
    <path d="M 1354 1186 C 1351.87 1190.25 1353.21 1195.59 1351 1200" stroke-width="2.00"/>
    <path d="M 1505 1194 C 1492.9 1202.07 1479.99 1203.6 1466 1205 C 1463.27 1205.27 1460.8 1206.28 1458 1206 C 1446.61 1204.86 1435.39 1202.14 1424 1201 C 1413.65 1199.97 1401.93 1198.31 1392 1195" stroke-width="2.00"/>
    <path d="M 1738 1200 C 1744.51 1196.75 1760.22 1204 1768 1204" stroke-width="2.00"/>
    <path d="M 1542 1206 C 1543.56 1207.56 1545.4 1207.67 1547 1209 C 1548.58 1210.32 1548.96 1212.32 1551 1213" stroke-width="2.83"/>
    <path d="M 1720 1211 C 1706.37 1199.64 1695.57 1200.43 1683 1213 C 1678.1 1217.9 1675.78 1219.21 1673 1226.2" stroke-width="2.83"/>
    <path d="M 1552 1215 C 1556.54 1216.51 1560.7 1219.85 1565 1222 C 1569.17 1224.09 1573.93 1224.82 1578.2 1226.6 C 1580.51 1227.56 1582.28 1229.43 1584.6 1230.4 C 1586.21 1231.07 1587.71 1231.31 1589 1232.6 C 1591.57 1235.17 1592.97 1238.94 1594.8 1242 C 1596.03 1244.04 1597.79 1245.51 1599.2 1247.4 C 1600.49 1249.12 1600.98 1251.26 1602.2 1253 C 1604.89 1256.85 1609.2 1259.94 1613 1262.6 C 1630.02 1274.51 1633.41 1261.21 1647 1268" stroke-width="2.00"/>
    <path d="M 1650 1215 C 1646.73 1212.82 1644.2 1209.84 1641 1207.6 C 1628.21 1198.65 1615.74 1199.43 1604 1210 C 1601.69 1212.08 1599.39 1214.45 1597.6 1217 C 1595.87 1219.47 1593.08 1227.65 1591.2 1229 C 1589.41 1230.29 1586.13 1229.76 1584.33 1229.67" stroke-width="2.00"/>
    <path d="M 1724 1216 C 1725.42 1217.71 1731.95 1227.96 1732 1228 C 1733.58 1229.38 1736.81 1229.24 1738.5 1229.33" stroke-width="2.00"/>
    <path d="M 2081 1225 C 2063.69 1207.69 2054.74 1225.66 2045.4 1239 C 2043.38 1241.89 2040.48 1243.44 2038.2 1246 C 2030.86 1254.26 2022.85 1271.84 2026.2 1283 C 2026.88 1285.26 2028.72 1287.08 2030 1289" stroke-width="2.83"/>
    <path d="M 2339 1225 C 2334.74 1230.11 2335.01 1237.56 2331.2 1243 C 2318.66 1260.92 2304.63 1280.74 2290 1297 C 2285.59 1301.9 2280.41 1306.1 2276 1311 C 2274.58 1312.57 2273.5 1314.5 2272 1316 C 2257.27 1330.73 2238.94 1341.74 2222 1353.6 C 2214.73 1358.69 2207.49 1365.17 2199 1368" stroke-width="2.83"/>
    <path d="M 1742.5 1228.11 C 1745.11 1226.81 1744.22 1227.2 1747 1226.33 C 1745.91 1226.7 1745.09 1227.3 1744 1227.67 C 1743.33 1227.89 1742.67 1228.11 1742 1228.33 C 1741.5 1228.48 1741 1228.63 1740.5 1228.78 C 1741.17 1228.56 1741.83 1228.33 1742.5 1228.11 Z" stroke-width="2.00"/>
    <path d="M 1628 1227 C 1635.57 1223.21 1645 1229.5 1653 1227.5" stroke-width="2.00"/>
    <path d="M 1653 1227.5 C 1659.76 1225.81 1666.39 1230.16 1673 1226.2" stroke-width="2.41"/>
    <path d="M 1250 1228 C 1266.34 1225.28 1269.12 1235.19 1280 1237" stroke-width="2.00"/>
    <path d="M 1621 1228 C 1606.53 1232.82 1608.71 1238.29 1600 1247" stroke-width="2.83"/>
    <path d="M 1673 1226.2 C 1675.88 1228.8 1689.48 1226.14 1695 1227.8 C 1704.86 1230.76 1713.43 1235.29 1722 1241" stroke-width="2.41"/>
    <path d="M 1653 1227.5 C 1653 1235.29 1654.79 1243.08 1654 1251 C 1653.64 1254.61 1652.64 1258.54 1651.6 1262 C 1650.8 1264.68 1648.64 1266.72 1648.4 1269.6 C 1648.11 1273.1 1651.2 1279 1651.6 1283 C 1652.05 1287.48 1648.3 1291.39 1649.4 1295.8 C 1652.9 1309.82 1665.87 1310.55 1670.8 1297 C 1672.45 1292.46 1669 1287.62 1669 1283" stroke-width="2.00"/>
    <path d="M 1673 1226.2 C 1669.69 1235.63 1667.19 1246.95 1669.2 1257 C 1669.9 1260.51 1671.91 1263.93 1672.2 1267.4 C 1672.42 1269.98 1671 1272.41 1671 1275" stroke-width="2.00"/>
    <path d="M 2362 1229 C 2369.05 1271.28 2381.02 1284.91 2409 1316 C 2416.09 1323.88 2424.09 1331.28 2430.2 1340 C 2438.18 1351.4 2446.42 1362.61 2454.4 1374 C 2460.2 1382.29 2464.4 1391.6 2470 1400" stroke-width="2.83"/>
    <path d="M 1738.5 1229.33 C 1735.11 1230.73 1730.96 1231.89 1728 1234.2 C 1722.56 1238.43 1720.61 1248.58 1712 1254.6 C 1701.02 1262.28 1686.33 1262.89 1674 1267" stroke-width="2.83"/>
    <path d="M 2354 1231 C 2354 1238.2 2355.28 1245.82 2356 1253 C 2356.2 1254.98 2357.2 1256.99 2357 1259 C 2355.57 1273.29 2355.43 1287.71 2354 1302 C 2353.4 1308.04 2351.6 1313.96 2351 1320 C 2349.37 1336.34 2347.63 1352.66 2346 1369 C 2344.83 1380.75 2341.17 1392.25 2340 1404 C 2339.39 1410.08 2338.96 1417.13 2337.2 1423 C 2333.92 1433.93 2331 1446.58 2331 1458" stroke-width="2.00"/>
    <path d="M 1584.33 1229.67 C 1581.82 1233.85 1582 1237.28 1582 1242 C 1582 1261.29 1584.13 1259.86 1592.2 1276 C 1594.47 1280.54 1595.93 1283.87 1600.6 1286.6 C 1609.59 1291.85 1627.66 1297.03 1638 1296 C 1641.4 1295.66 1644.56 1294 1648 1294" stroke-width="2.00"/>
    <path d="M 1738.5 1229.33 C 1737.56 1230.71 1736.28 1232.21 1736.2 1234 C 1736.14 1235.39 1737.02 1236.72 1737.4 1238 C 1739.08 1243.59 1738.4 1251.79 1735.8 1257 C 1734.16 1260.28 1732.71 1263.99 1730.6 1267 C 1726.69 1272.58 1718.56 1273.28 1725 1281" stroke-width="2.00"/>
    <path d="M 2025 1272 C 2023.21 1272.6 2021.87 1273.39 2020.8 1275 C 2018 1279.19 2014.61 1288.18 2012.2 1293 C 2009.71 1297.99 2005.48 1302.04 2003 1307 C 2001.91 1309.17 2001.9 1311.76 2000.6 1313.8 C 1995.77 1321.4 1983.83 1330.21 1977.6 1338 C 1972.51 1344.37 1967.88 1351.32 1963.2 1358 C 1961.39 1360.58 1959.08 1362.49 1957 1364.8 C 1955.62 1366.34 1954.98 1368.32 1953.8 1370 C 1951.32 1373.54 1948.07 1376.47 1945.6 1380 C 1940.28 1387.61 1936.74 1396.36 1931.4 1404 C 1923.89 1414.73 1915.86 1426.27 1910 1438" stroke-width="2.83"/>
    <path d="M 1269 1273 C 1272.8 1271.1 1276.49 1273.04 1280 1274.8 C 1287.41 1278.51 1294.71 1282.22 1302 1286.2 C 1305.34 1288.02 1307.9 1291.03 1311 1293.2 C 1313.8 1295.16 1317.06 1296.49 1319.6 1298.8 C 1327.45 1305.94 1332.58 1315.58 1340 1323" stroke-width="2.83"/>
    <path d="M 1305 1275 C 1303.7 1276.95 1305 1283.08 1305 1286" stroke-width="2.00"/>
    <path d="M 1717 1278 C 1704.77 1284.11 1696.3 1293.57 1682 1295 C 1679.13 1295.29 1675.96 1294 1673 1294" stroke-width="2.00"/>
    <path d="M 2045 1284 C 2027.68 1284 2018.36 1306.88 2003 1312" stroke-width="2.83"/>
    <path d="M 1726 1285 C 1731.81 1291.98 1738 1313.82 1738 1323" stroke-width="2.00"/>
    <path d="M 2013 1286 C 2009.58 1284.29 2005.69 1284.37 2002 1284 C 1999.27 1283.73 1996.8 1282.72 1994 1283 C 1961.7 1286.23 1953 1313.68 1953 1342 C 1953 1348 1952.66 1357.99 1956 1363" stroke-width="2.00"/>
    <path d="M 1599 1287 C 1597.46 1289.3 1595.88 1292.36 1595 1295" stroke-width="2.00"/>
    <path d="M 1319 1288 C 1326.65 1288 1334.95 1290.78 1342 1293.6 C 1373.08 1306.03 1377.94 1331.38 1373 1361" stroke-width="2.00"/>
    <path d="M 1691 1295 C 1694.66 1305.97 1697 1316.36 1697 1328" stroke-width="2.41"/>
    <path d="M 1621 1296 C 1615.16 1304.76 1615 1314.92 1615 1325" stroke-width="2.00"/>
    <path d="M 1592 1301 C 1592 1307.87 1586 1313.9 1586 1321" stroke-width="2.00"/>
    <path d="M 1585.4 1322.4 C 1578.09 1323.62 1571.73 1325.31 1566 1330.4 C 1556.6 1338.76 1554.19 1357.17 1564 1366 C 1565.91 1367.72 1568.02 1369.41 1570.4 1370.4 C 1578.38 1373.72 1608.18 1379 1617 1379 C 1620.15 1379 1622.91 1379.69 1626 1380 C 1629.96 1380.4 1634.04 1379.6 1638 1380 C 1639.68 1380.17 1641.32 1380.83 1643 1381 C 1649.19 1381.62 1655.77 1381 1662 1381 C 1683.38 1381 1705.02 1381 1726 1376.8 C 1733.51 1375.3 1742.84 1374.33 1749 1369.4 C 1752.45 1366.64 1754.57 1362.3 1755 1358 C 1756.82 1339.76 1741.18 1326.72 1724 1325 C 1722.02 1324.8 1720.01 1323.8 1718 1324 C 1709.77 1324.82 1701.38 1327.31 1694 1331 C 1670.82 1340.27 1659.09 1341.63 1635 1334.4 C 1624.07 1331.12 1614.29 1326.06 1603 1323.8 C 1597.3 1322.66 1591.19 1321.43 1585.4 1322.4 Z" stroke-width="2.00"/>
    <path d="M 1344 1328 C 1346.67 1333.35 1362.85 1353.88 1367.4 1359 C 1368.71 1360.47 1370.6 1361.26 1371.8 1362.8 C 1372.79 1364.08 1373.28 1365.68 1374.2 1367 C 1380.93 1376.61 1391.64 1387.64 1400 1396 C 1406.08 1402.08 1422.4 1413.79 1419 1424" stroke-width="2.83"/>
    <path d="M 1598 1378 C 1594.85 1384.3 1594.2 1391.33 1592.2 1398 C 1589.71 1406.3 1589.82 1411.82 1589 1420 C 1588.8 1421.98 1587.8 1423.99 1588 1426 C 1590.04 1446.45 1598.34 1466.34 1613 1481" stroke-width="2.00"/>
    <path d="M 1716 1380 C 1719.13 1389.4 1725.53 1397.43 1728.4 1407 C 1735.26 1429.85 1724.94 1461.07 1710 1479" stroke-width="2.00"/>
    <path d="M 1680.25 1466 C 1672.72 1449.58 1686.34 1416.37 1666 1406.2 C 1655.31 1400.86 1649.24 1415.46 1647.2 1423.6 C 1646.6 1426 1647.24 1428.57 1647 1431 C 1646.3 1438.02 1645.83 1443.96 1647 1451" stroke-width="2.00"/>
    <path d="M 1678 1421 C 1684.6 1421 1696.94 1424.78 1702 1429" stroke-width="2.00"/>
    <path d="M 1395 1422 C 1401.84 1419.72 1411.58 1420.79 1418 1424 C 1422.83 1426.42 1433.09 1437.25 1437 1441.6 C 1439.16 1444 1440.57 1446.82 1443 1449 C 1456.09 1460.78 1470.94 1471.16 1486 1480.2 C 1503.61 1490.77 1522.27 1500.48 1542 1506.4 C 1545.28 1507.38 1548.72 1507.82 1552 1508.8 C 1556.44 1510.13 1561.34 1511.53 1566 1512 C 1577.24 1513.12 1599.83 1511.42 1609 1516" stroke-width="2.00"/>
    <path d="M 1646 1422 C 1638.59 1422 1614.42 1430.09 1616.4 1440 C 1617.96 1447.78 1632.27 1456.43 1639 1459.8 C 1641.07 1460.84 1643.95 1461.28 1645.8 1462.6 C 1648.1 1464.24 1650.75 1476.34 1653.6 1480 C 1655.26 1482.14 1657.6 1481.92 1660 1482.4 C 1676.96 1485.79 1672.67 1473.91 1680.25 1466" stroke-width="2.00"/>
    <path d="M 1949 1434 C 1939.56 1435.57 1914.47 1453.57 1904 1458.8 C 1884.27 1468.67 1864.73 1478.93 1845 1488.8 C 1834.13 1494.24 1796.91 1501.71 1784 1503 C 1776.63 1503.74 1769.23 1506.15 1762 1507.6 C 1742.12 1511.58 1722.23 1515.69 1702.6 1520.6 C 1690.7 1523.58 1677.96 1518.98 1666.2 1518 C 1657.35 1517.26 1649.62 1520.14 1641 1521 C 1635.06 1521.59 1627.95 1521.59 1622 1521 C 1619.23 1520.72 1616.71 1519.05 1614 1518.8 C 1610.53 1518.48 1607.24 1522.43 1604 1523.4 C 1599.18 1524.85 1594.07 1526.49 1589 1527 C 1584.4 1527.46 1579.82 1528.62 1575.2 1529 C 1567.44 1529.65 1559.64 1528.76 1552 1528 C 1548.37 1527.64 1544.63 1528.36 1541 1528 C 1529.08 1526.81 1516.43 1523.23 1505 1519.8 C 1502.58 1519.07 1500.03 1519.21 1497.6 1518.6 C 1492.1 1517.23 1486.42 1515.83 1481 1514.2 C 1472.4 1511.62 1463.02 1509 1454 1509" stroke-width="2.00"/>
    <path d="M 1708 1435 C 1710.85 1452.09 1688.19 1456.93 1680.25 1466" stroke-width="2.83"/>
    <path d="M 1916 1450 C 1914.15 1447.22 1914.19 1443.39 1911.8 1441 C 1901.31 1430.51 1871.07 1447.17 1860 1451.6 C 1845.43 1457.43 1831.01 1463.9 1816 1468.4 C 1792.13 1475.56 1767.87 1481.44 1744 1488.6 C 1735.2 1491.24 1729.51 1499.16 1721 1502" stroke-width="2.00"/>
    <path d="M 1439 1442 C 1449.41 1435.06 1478.39 1442.5 1489 1447.8 C 1500.25 1453.43 1511.75 1458.57 1523 1464.2 C 1529.47 1467.43 1535.5 1471.55 1542 1474.8 C 1562.76 1485.18 1583.87 1495.62 1606 1503" stroke-width="2.00"/>
    <path d="M 1680.25 1466 C 1685.06 1470.58 1692.33 1469.96 1698 1472.8 C 1708.89 1478.24 1722.46 1489.96 1719 1503.8 C 1717.92 1508.14 1715.4 1511.81 1714 1516" stroke-width="2.83"/>
    <path d="M 1647 1470 C 1640.72 1473.14 1632.64 1473.41 1626 1475.4 C 1615.55 1478.54 1605.94 1488.31 1607 1500 C 1607.48 1505.23 1610 1509.68 1610 1515" stroke-width="2.00"/>
    <path d="M 1690 1473 C 1690 1481.4 1692.85 1489.47 1692 1498 C 1691.28 1505.21 1689 1512.77 1689 1520" stroke-width="2.00"/>
    <path d="M 1631 1476 C 1627.74 1495.54 1622.85 1499.71 1633 1520" stroke-width="2.00"/>
    <path d="M 1655 1482 C 1652.76 1486.49 1651 1493.97 1651 1499 C 1651 1503.31 1653 1507.68 1653 1512" stroke-width="2.00"/>
    <path d="M 1667 1484 C 1669.73 1492.18 1669.86 1502.4 1669 1511 C 1668.8 1513.04 1668 1514.94 1668 1517" stroke-width="2.00"/>
    <path d="M 1497 1520 C 1493.18 1531.46 1474.51 1551.63 1480.2 1563 C 1487.61 1577.82 1530.24 1585.42 1546 1587 C 1547.98 1587.2 1550.02 1586.8 1552 1587 C 1555.41 1587.34 1558.5 1588.35 1562 1588 C 1573.05 1586.89 1587.16 1585.29 1592.8 1574 C 1594.47 1570.66 1594.36 1566.6 1594 1563 C 1592.34 1546.44 1578.18 1537.09 1577 1530" stroke-width="2.00"/>
    <path d="M 1877 1521 C 1873.98 1530.06 1862.63 1534.57 1860.4 1542 C 1858.2 1549.33 1862.28 1556.79 1863 1564 C 1864.08 1574.83 1855.62 1586.14 1848 1593 C 1841.14 1599.18 1822.41 1605.06 1813 1606 C 1810.03 1606.3 1806.97 1605.7 1804 1606 C 1796.16 1606.78 1787.96 1607.8 1780 1607 C 1775.2 1606.52 1772.37 1603.11 1768 1601.8 C 1755.97 1598.19 1740.56 1593.87 1736.4 1580 C 1734.17 1572.58 1734.99 1565.69 1739 1559 C 1741.07 1555.56 1744.99 1550.6 1749 1549.4 C 1766.95 1544.02 1825.14 1571.87 1833.2 1588 C 1834.77 1591.13 1834 1595.6 1834 1599" stroke-width="2.83"/>
  </g>
  <g id="outlines-dashed" fill="none" stroke="#E2001A"
     stroke-linecap="round" stroke-linejoin="round">
    <path d="M 1430 760 C 1418.87 748.87 1403.81 742.24 1389 737.8 C 1385.29 736.69 1381.86 734.84 1378 734.2 C 1369.43 732.77 1359.69 734 1351 734 C 1347.02 734 1334.8 735.46 1331 736.6 C 1326.72 737.88 1322.51 739.95 1318 740.4 C 1316.33 740.57 1315.24 740.03 1314 739" stroke-width="2.00" stroke-dasharray="41.1 3.4"/>
    <path d="M 2012 755 C 2005.25 755 1998.67 752.83 1992 752 C 1984.31 751.04 1976.72 748.77 1969 748 C 1966.99 747.8 1964.98 748.8 1963 749 C 1960.03 749.3 1956.97 748.7 1954 749 C 1952.23 749.18 1950.68 750.3 1949 750.8 C 1935.04 754.99 1933.25 756.75 1923 767" stroke-width="2.00" stroke-dasharray="28.4 7.0"/>
    <path d="M 1965 973 C 1958.49 966.49 1951.54 960.46 1945 954 C 1935.76 944.86 1926.83 935.4 1916.96 926.93 C 1888.3 902.37 1828.87 860.79 1791 857 C 1787.84 856.68 1785.07 857.69 1782 858 C 1779.69 858.23 1777.31 857.77 1775 858 C 1770.68 858.43 1766.95 860.62 1763 862.2 C 1741.14 870.94 1732 880.43 1714.95 896.1 C 1708.08 902.41 1702.5 909.75 1694 914 C 1666.69 927.66 1633.02 925.9 1609.97 904.91 C 1600.02 895.85 1591.95 884.84 1581.93 875.93 C 1574.71 869.51 1565.38 866.15 1558 860" stroke-width="2.00" stroke-dasharray="22.4 6.0"/>
    <path d="M 1474 877 C 1464.97 884.52 1453.52 888.74 1444.15 895.7 C 1428.73 907.16 1414.27 920.16 1400 933 C 1394.4 938.04 1389.6 943.96 1384 949 C 1377.84 954.54 1370.9 959.1 1365 965" stroke-width="2.00" stroke-dasharray="9.9 6.8"/>
    <path d="M 2403 1025 C 2413.97 1034.14 2427.32 1040.42 2439 1048.6 C 2458.66 1062.36 2478.4 1075.97 2498.23 1089.53 C 2507.91 1096.15 2517.95 1102.46 2527 1110" stroke-width="2.00" stroke-dasharray="12.6 7.9"/>
    <path d="M 933 1069 C 930.03 1071.47 926.4 1072.5 923 1074.2 C 913.41 1078.99 903.27 1083.35 894 1088.72 C 885.22 1093.81 875.77 1097.63 867 1102.72 C 843.97 1116.08 819.85 1128.11 798 1143.4 C 794.19 1146.07 789.81 1147.93 786 1150.6 C 775.58 1157.89 765.41 1165.51 755 1172.8 C 748.72 1177.19 742.86 1183.57 736 1187 C 734.79 1187.6 733.32 1187.78 732 1188" stroke-width="2.00" stroke-dasharray="14.6 4.6"/>
    <path d="M 1360 1070 C 1364.37 1067.82 1368.43 1067.83 1373 1069.2 C 1376.4 1070.22 1380.03 1071.28 1383 1073.36 C 1387.4 1076.44 1389.99 1080.87 1392.89 1085.22 C 1401.61 1098.3 1407.39 1115.81 1399.8 1131 C 1397.02 1136.56 1392.33 1140.67 1388 1145" stroke-width="2.00" stroke-dasharray="32.2 7.4"/>
    <path d="M 1352 1075 C 1340.56 1086.44 1335.4 1103.03 1337 1119 C 1337.41 1123.13 1339.78 1127.37 1341.6 1131 C 1343.73 1135.25 1346.12 1140.58 1350 1143.6 C 1354.29 1146.94 1360.75 1148.95 1366 1150 C 1370.19 1150.84 1374.99 1152.01 1379 1150" stroke-width="2.00" stroke-dasharray="18.2 5.2"/>
    <path d="M 2567 1140 C 2572.88 1142.94 2592.18 1159.18 2598.15 1164.3 C 2602.44 1167.98 2606.48 1173.16 2612 1175" stroke-width="2.00" stroke-dasharray="16.8 4.3"/>
    <path d="M 1591 1184 C 1578.44 1184 1565.14 1196.93 1555 1202" stroke-width="2.00" stroke-dasharray="11.3 4.5"/>
    <path d="M 1959 1188 C 1959 1202.37 1963.87 1216.52 1974 1227 C 1977.32 1230.44 1981.83 1233.66 1984 1238 C 1986.23 1242.46 1984.46 1247.43 1984 1252 C 1983.02 1261.77 1986.71 1270.06 1992 1278" stroke-width="2.00" stroke-dasharray="20.9 6.5"/>
    <path d="M 1351 1204 C 1350.59 1204.49 1333.74 1234.55 1333.6 1235 C 1332.45 1238.84 1332.39 1243.06 1332 1247 C 1330.73 1259.68 1324.8 1272.8 1314 1280" stroke-width="2.00" stroke-dasharray="19.2 4.6"/>
    <path d="M 1570 1372 C 1568.56 1374.88 1568.51 1377.97 1567.6 1381 C 1556.84 1416.85 1559.47 1463.33 1593 1486.8 C 1596.88 1489.52 1601.21 1494.2 1606 1495" stroke-width="2.00" stroke-dasharray="31.9 6.4"/>
    <path d="M 1746 1373 C 1748.78 1378.55 1749.39 1386.89 1750 1393 C 1750.37 1396.7 1751.63 1400.3 1752 1404 C 1753.96 1423.63 1755.5 1448.99 1745.6 1467 C 1743.65 1470.54 1741.1 1473.71 1738.8 1477 C 1734.53 1483.1 1727.35 1491.55 1720 1494" stroke-width="2.00" stroke-dasharray="30.1 6.3"/>
  </g>
</svg>
