<?xml version="1.0" encoding="UTF-8"?>
<svg xmlns="http://www.w3.org/2000/svg" version="1.1"
     width="3296" height="2481" viewBox="0 0 3296 2481">
  <g id="outlines-solid" fill="none" stroke="#E2001A"
     stroke-linecap="round" stroke-linejoin="round">
    <path d="M 1473 727 C 1469.12 722.34 1467.62 716.16 1463 712 C 1433.45 685.41 1381.68 711.1 1350 720.6 C 1342.17 722.95 1321.6 720.04 1312 721 C 1308.34 721.37 1304.66 721.63 1301 722 C 1284.98 723.6 1263.34 726.2 1248 730.8 C 1243.63 732.11 1233.93 735.61 1230 736 C 1221.75 736.83 1213.76 734.13 1206 731.8 C 1196.67 729 1181.47 728.51 1172 730.4 C 1145.34 735.73 1125.34 748.51 1109.6 771 C 1102.28 781.46 1096.27 793.78 1092.6 806 C 1090.43 813.24 1089.57 820.76 1087.4 828 C 1086.66 830.47 1085.34 832.72 1084.2 835 C 1081.44 840.52 1079.56 846.48 1076.8 852 C 1071.24 863.13 1064.26 875.38 1063 888 C 1062.28 895.18 1063.55 903.15 1065.6 910 C 1072.26 932.22 1096.9 942.19 1105.8 960 C 1110.19 968.78 1108.09 974.87 1109 984 C 1110.32 997.16 1117.04 1008.22 1129 1014.2 C 1133.06 1016.23 1136.58 1019.07 1141 1020.4 C 1148.99 1022.8 1170.97 1011.31 1180 1008.6 C 1192.91 1004.73 1206.54 1001.35 1220 1000 C 1227.79 999.22 1237.21 999.22 1245 1000 C 1247.04 1000.2 1248.94 1001 1251 1001" stroke-width="4.00"/>
    <path d="M 1440 834 C 1442.53 826.4 1447.22 819.16 1450.8 812 C 1457.61 798.38 1461.86 783.45 1466.2 769 C 1468.44 761.54 1470.22 752.75 1471 745 C 1471.32 741.84 1471.46 730.05 1472.6 728 C 1473.58 726.23 1475.62 725.38 1477 724 C 1479.99 721.01 1482.17 717.15 1485 714 C 1494.29 703.68 1504.73 695.49 1516 687.6 C 1541.8 669.54 1583.57 670.04 1614 667 C 1620.37 666.36 1626.63 664.64 1633 664 C 1646.33 662.67 1659.67 661.33 1673 660 C 1677.89 659.51 1683.08 660 1688 660 C 1695.87 660 1704.18 659.22 1712 660 C 1744.84 663.28 1796.75 673.57 1826 688.2 C 1835.76 693.08 1854.92 711.23 1859.8 721 C 1861.09 723.59 1867.43 739.82 1867.6 741.8 C 1868.15 748.42 1867.33 755.33 1868 762 C 1869.17 773.69 1872 785.19 1872 797" stroke-width="4.00"/>
    <path d="M 1869 739 C 1871.13 736.45 1871.67 733.11 1872.6 730 C 1875.04 721.86 1879.7 715.67 1886 710 C 1891.8 704.78 1899.45 702.76 1907 702 C 1908.68 701.83 1910.32 701.17 1912 701 C 1915.16 700.68 1917.93 701.69 1921 702 C 1938.79 703.78 1954.46 710.98 1971 717.6 C 1976.49 719.8 1982 723.4 1988 724 C 1997.29 724.93 2005.92 721.91 2015 721 C 2029.55 719.55 2043.54 720.55 2058 722 C 2076.93 723.89 2097.06 730.73 2114 739.2 C 2122.16 743.28 2129.18 748.56 2138 751.2 C 2150.04 754.81 2162.19 747.18 2174 746 C 2198.4 743.56 2236.53 762.18 2250.4 782 C 2269.06 808.66 2281.76 844.59 2285 877 C 2285.26 879.64 2284.74 882.36 2285 885 C 2285.53 890.34 2286.55 895.55 2286 901 C 2285.83 902.68 2285.17 904.32 2285 906 C 2283.96 916.38 2282.56 927.49 2277.8 937 C 2272.4 947.79 2266 956.4 2256 963.4 C 2252.57 965.8 2248.98 966.32 2246.4 970 C 2244.49 972.73 2243.28 976.03 2241.8 979 C 2238.22 986.15 2233.15 992.5 2228.6 999 C 2220.8 1010.14 2213.15 1020.63 2199 1023.2 C 2186 1025.56 2166.57 1013.37 2154 1009.6 C 2129.97 1002.39 2104.79 999.48 2080 997 C 2071.01 996.1 2062.07 994 2053 994" stroke-width="4.00"/>
    <path d="M 1521 964 C 1526.88 946.36 1545.77 910.59 1558 897 C 1566.21 887.88 1580.96 876.72 1592 871.2 C 1602.35 866.02 1615.4 862.84 1627 864 C 1632.97 864.6 1638.92 865.61 1645 865 C 1657.4 863.76 1669.6 863.76 1682 865 C 1688.3 865.63 1694.7 865.37 1701 866 C 1734.51 869.35 1777.8 884.99 1793.8 917 C 1801.83 933.05 1803 951.42 1803 969" stroke-width="4.00"/>
    <path d="M 1145 1022 C 1145 1028.98 1147.21 1036.37 1149.2 1043 C 1152.7 1054.67 1152.09 1066.34 1165 1072.8 C 1167.56 1074.08 1170.25 1075.77 1173 1076.6 C 1177.88 1078.06 1183.04 1078.43 1187 1082 C 1190.45 1085.1 1190.86 1089.37 1193.4 1093 C 1195.45 1095.93 1198.51 1097.58 1200.8 1100.2 C 1202.48 1102.12 1203.04 1104.66 1204.8 1106.6 C 1210.22 1112.56 1219.25 1119.5 1226 1124" stroke-width="4.00"/>
    <path d="M 2197 1025 C 2199.22 1031.67 2196.43 1037.29 2193 1043 C 2190.29 1047.52 2187.54 1052.06 2184 1056 C 2177.84 1062.84 2170.81 1068.87 2164 1075 C 2158.6 1079.86 2151.91 1083.55 2147 1089 C 2145.34 1090.84 2144.41 1092.57 2144 1095" stroke-width="4.00"/>
    <path d="M 1795 1067 C 1799.11 1062.89 1804.27 1059.71 1809 1056.4 C 1817.17 1050.68 1824.92 1046.03 1833 1055 C 1836.26 1058.62 1833.9 1063.27 1837 1067" stroke-width="2.00"/>
    <path d="M 1832 1181 C 1834.05 1168.7 1829.15 1162.54 1828 1151 C 1827.47 1145.69 1827.53 1140.31 1827 1135 C 1826.23 1127.29 1823.95 1119.2 1824.6 1111.4 C 1824.84 1108.56 1825.72 1105.82 1826 1103 C 1826.4 1098.95 1826.41 1094.98 1827.6 1091 C 1828.55 1087.83 1831.1 1086.27 1832.4 1083.4 C 1834.34 1079.13 1834.62 1074.34 1836.2 1070 C 1837.35 1066.83 1840.5 1064.71 1842.4 1062 C 1847.79 1054.31 1855.1 1046.99 1865 1046 C 1873.63 1045.14 1880.78 1051.19 1888 1054.8 C 1892.34 1056.97 1897.37 1058.81 1902 1060.2 C 1908.57 1062.17 1924.31 1064.67 1931 1064 C 1935.36 1063.56 1939.64 1062.44 1944 1062 C 1950.57 1061.34 1958.6 1058.38 1964 1054.6 C 1970.87 1049.79 1974.76 1041.62 1981 1036 C 1992.71 1025.47 2011.3 1032.43 2019.4 1044 C 2033.04 1063.49 2020.16 1130.48 2013.4 1153 C 2011.47 1159.45 2005 1174.5 2005 1180" stroke-width="2.00"/>
    <path d="M 1466 1070 C 1454.06 1062.04 1441.01 1058.4 1427 1057 C 1421.66 1056.47 1416.45 1055.45 1411 1056 C 1403.78 1056.72 1396.34 1057.73 1389 1057 C 1362.43 1054.34 1354.33 1030.67 1331 1033 C 1322.04 1033.9 1312.8 1041.26 1307.4 1048 C 1294 1064.75 1293.66 1083.19 1299.6 1103 C 1303.8 1117.01 1312 1129.97 1312 1145 C 1312 1150.75 1312.07 1156.42 1310.4 1162 C 1307.93 1170.23 1297 1178.98 1297 1187" stroke-width="2.00"/>
    <path d="M 1791 1070 C 1785.13 1075.87 1778.16 1080.45 1772 1086 C 1769.32 1088.41 1767.39 1091.34 1765 1094 C 1754.19 1106.01 1741.69 1120.14 1740 1137 C 1736.75 1169.45 1784.97 1179.6 1809 1182 C 1814.65 1182.57 1820.23 1183.58 1826 1183 C 1827.82 1182.82 1829.53 1182.09 1831.4 1182.4 C 1834.66 1182.94 1837.64 1184.66 1841 1185 C 1851.99 1186.1 1863.01 1186.9 1874 1188 C 1876.31 1188.23 1878.69 1187.77 1881 1188 C 1883.34 1188.23 1885.42 1189.8 1887.8 1190 C 1891.5 1190.31 1895.3 1189.63 1899 1190 C 1909.28 1191.03 1927.95 1192.21 1938 1191.2 C 1942.47 1190.75 1946.52 1188.45 1951 1188 C 1953.63 1187.74 1956.2 1188.78 1958.8 1189 C 1962.67 1189.32 1967.14 1188.39 1971 1188 C 1980.89 1187.01 1994.71 1183.82 2004.4 1181.4 C 2007.89 1180.53 2011.48 1181.35 2015 1181 C 2022.03 1180.3 2028.97 1178.7 2036 1178 C 2056.96 1175.9 2088.3 1183.85 2107 1193.2 C 2115.49 1197.44 2125.85 1202.04 2133 1208.4 C 2134.92 1210.1 2135.7 1212.67 2137.6 1214.4 C 2142.94 1219.25 2149.06 1222.51 2154 1228 C 2163.85 1238.94 2172.18 1253.92 2176.4 1268 C 2177.7 1272.35 2177.55 1277.51 2178 1282 C 2178.45 1286.48 2180.55 1290.54 2181 1295 C 2181.28 1297.78 2182.72 1300.22 2183 1303 C 2183.4 1306.97 2183 1311.03 2183.4 1315 C 2183.64 1317.35 2184.96 1319.57 2185.2 1322 C 2186.36 1333.56 2174.8 1341.92 2166 1347.2 C 2159.71 1350.97 2153.37 1355.77 2146 1357" stroke-width="4.00"/>
    <path d="M 1469 1072 C 1481.66 1076.22 1485.91 1092.31 1482.4 1104 C 1481.46 1107.13 1479 1109.63 1479 1113" stroke-width="2.00"/>
    <path d="M 1498 1078 C 1499.53 1087.18 1511.37 1107.53 1515.8 1116.4 C 1516.85 1118.49 1514.02 1136.89 1515.6 1143.2 C 1521.03 1164.92 1531.6 1169.6 1546 1184" stroke-width="2.00"/>
    <path d="M 1782 1080 C 1784.52 1082.1 1787.14 1082.77 1790 1084.2 C 1796.7 1087.55 1803.43 1091.99 1809 1097 C 1813.54 1101.08 1817.93 1109.47 1823 1112" stroke-width="2.83"/>
    <path d="M 1550 1082 C 1553.55 1083.18 1556.8 1085.68 1560 1087.6 C 1575.86 1097.12 1592.31 1109.03 1600.8 1126 C 1604.18 1132.75 1604.16 1141.32 1606 1145" stroke-width="2.83"/>
    <path d="M 1833 1085 C 1834.89 1088.79 1835.28 1093.17 1837.2 1097 C 1842.13 1106.86 1852.23 1116.23 1860 1124" stroke-width="2.83"/>
    <path d="M 2177 1106 C 2171.84 1102.56 2168.17 1097.25 2162 1095.4 C 2157.92 1094.18 2154.03 1095.6 2150 1096 C 2136.48 1097.35 2135.73 1100.24 2126 1109 C 2115.22 1118.7 2108.46 1132.45 2107 1147 C 2106.62 1150.85 2104.73 1155.2 2106 1159" stroke-width="4.00"/>
    <path d="M 1507 1105 C 1499.37 1106.27 1492.37 1110.39 1485 1112.6 C 1482.67 1113.3 1480.33 1113.5 1478 1114.2 C 1472.91 1115.73 1468.21 1119.04 1463 1120.6 C 1459.05 1121.78 1454.94 1122.42 1451 1123.6 C 1448.2 1124.44 1445.39 1125.93 1443 1127.6 C 1435.79 1132.65 1430.42 1138.83 1425.4 1146 C 1420.88 1152.46 1417.7 1159.99 1414.2 1167 C 1411.99 1171.43 1407.35 1188.62 1404.8 1190.8 C 1402.51 1192.76 1391.22 1185.57 1388 1184.6 C 1380.96 1182.49 1355.68 1180.2 1349 1182.2 C 1347.35 1182.69 1346.18 1183.82 1345 1185" stroke-width="2.00"/>
    <path d="M 1202 1106 C 1195.04 1106 1189.13 1102.29 1182 1103 C 1163.3 1104.87 1159.67 1122.27 1152.8 1136 C 1151.11 1139.37 1147.54 1140.87 1145.8 1144 C 1144.95 1145.52 1144.79 1147.41 1144 1149" stroke-width="4.00"/>
    <path d="M 2183 1125 C 2182.15 1119.9 2178.39 1112.7 2178.8 1107.8 C 2180.09 1092.38 2198.01 1034.1 2217 1036 C 2227.98 1037.1 2237.62 1050.61 2248 1055.8 C 2259.15 1061.38 2271.01 1066.8 2283 1070.4 C 2294.31 1073.79 2305.69 1077.01 2317 1080.4 C 2321.59 1081.78 2326.66 1082.03 2331 1084.2 C 2343.92 1090.66 2355.25 1100.9 2361.8 1114 C 2366.93 1124.26 2368.88 1135.76 2370 1147 C 2370.88 1155.78 2371.89 1165.1 2371 1174 C 2368.33 1200.68 2350.89 1223.86 2327 1235.8 C 2314.15 1242.23 2304.78 1242.77 2292 1246.6 C 2279.06 1250.48 2266.14 1255.13 2254 1261.2 C 2236.24 1270.08 2218.75 1282.72 2204 1296 C 2197.58 1301.77 2191.72 1308.14 2184 1312" stroke-width="4.00"/>
    <path d="M 1254 1111 C 1254 1104.59 1264.42 1076.17 1273 1079.6 C 1276.96 1081.18 1280.45 1086.64 1282.8 1090 C 1294.56 1106.8 1303.94 1126.43 1306 1147 C 1306.17 1148.66 1306.97 1150.31 1306.8 1152 C 1306.35 1156.53 1305.48 1162.29 1302.6 1166 C 1294.73 1176.12 1272.37 1172.54 1264 1165 C 1259.01 1160.51 1256.91 1153.81 1254 1148" stroke-width="2.00"/>
    <path d="M 1254 1117 C 1249.27 1122.67 1253 1136.08 1253 1143" stroke-width="2.00"/>
    <path d="M 1867 1130 C 1870.2 1133.2 1873.28 1136.6 1877 1139.2 C 1882.65 1143.16 1888.83 1146.35 1894 1151 C 1903.09 1159.18 1910.84 1167.93 1919 1177 C 1922.59 1180.99 1927.24 1184.73 1929 1190" stroke-width="2.83"/>
    <path d="M 1146 1143 C 1141.96 1134.93 1150 1116.04 1149 1106 C 1148.83 1104.32 1148.17 1102.68 1148 1101 C 1147.57 1096.71 1148.43 1092.29 1148 1088 C 1146.55 1073.48 1128.45 1028.49 1118 1019.2 C 1114.72 1016.28 1110.44 1014.56 1106 1015 C 1095.03 1016.1 1073.21 1031.47 1063 1037.6 C 1041.91 1050.26 1002.08 1068.45 988.4 1088 C 985.7 1091.86 984.14 1096.64 982.4 1101 C 975.92 1117.19 972.73 1131.7 971 1149 C 969.24 1166.62 975.27 1183.7 977 1201 C 978.08 1211.8 977.33 1225.78 980.4 1236 C 987.5 1259.66 1009.06 1276.52 1032 1283.4 C 1036.21 1284.66 1040.7 1284.57 1045 1285 C 1054.34 1285.93 1063.66 1287.07 1073 1288 C 1083.97 1289.1 1095.83 1292.18 1105 1298.6 C 1111.65 1303.26 1115.34 1310.94 1122 1315.6 C 1129.91 1321.13 1145.24 1323.28 1149 1312" stroke-width="4.00"/>
    <path d="M 1515 1145 C 1511.38 1147.41 1495.76 1155.37 1492 1156" stroke-width="2.00"/>
    <path d="M 1469 1242 C 1471.3 1239.7 1474.12 1237.47 1475.4 1234.4 C 1478.25 1227.56 1474.6 1224.56 1483 1217 C 1495.19 1206.03 1515.74 1198.3 1531 1192.2 C 1535.24 1190.51 1539.98 1189.39 1544 1187.2 C 1545.64 1186.3 1547.05 1185.13 1548.8 1184.4 C 1550.71 1183.61 1552.98 1184.01 1555 1183.4 C 1561.83 1181.35 1569.62 1178.99 1576 1175.8 C 1583.46 1172.07 1587.61 1164.99 1593 1159 C 1596.65 1154.95 1600.84 1151.27 1605.2 1148 C 1625.66 1132.65 1669.68 1126.51 1694 1133.8 C 1714.73 1140.02 1720.45 1148 1736 1162 C 1743.63 1168.87 1752.87 1174.23 1762 1178.8 C 1767.12 1181.36 1772.88 1182.64 1778 1185.2 C 1792.06 1192.23 1809.98 1198.89 1825 1203.4 C 1827.16 1204.05 1828.91 1205.76 1831 1206.6 C 1837.67 1209.27 1846.1 1211.27 1852 1215.4 C 1857.68 1219.38 1863.28 1225.84 1864 1233 C 1864.69 1239.93 1861.51 1249.55 1855 1252.8 C 1847.74 1256.43 1839.7 1254.23 1832 1255 C 1825 1255.7 1818 1256.3 1811 1257 C 1798.28 1258.27 1785.24 1260.93 1773 1264.6 C 1745.45 1272.86 1720.12 1293.61 1711.6 1322 C 1710.3 1326.32 1709.1 1330.68 1707.8 1335 C 1707.02 1337.62 1707.18 1340.4 1706.4 1343 C 1704.47 1349.44 1701.12 1355.31 1700 1362" stroke-width="4.00"/>
    <path d="M 1488 1159 C 1477.16 1162.61 1451.98 1178.61 1442 1185.6 C 1439.32 1187.48 1437.68 1190.41 1435 1192.2 C 1427.25 1197.37 1417.97 1201.84 1412.4 1209.8 C 1410.06 1213.15 1409.67 1218.26 1407.8 1222 C 1404.27 1229.06 1403.61 1232.64 1401.4 1240 C 1400.55 1242.84 1397.93 1244.68 1397.2 1247.6 C 1396.68 1249.7 1397.04 1251.88 1396.4 1254 C 1395.67 1256.43 1394.25 1258.65 1393.4 1261 C 1392.59 1263.22 1392.87 1265.78 1392.2 1268 C 1389.83 1275.89 1388.57 1284.11 1386.2 1292 C 1385.4 1294.68 1383.28 1297.21 1383 1300 C 1382.5 1304.98 1382.5 1310.02 1382 1315 C 1381.39 1321.14 1377.97 1326.78 1377.4 1333 C 1377.21 1335.08 1378 1336.97 1378 1339 C 1378 1341.33 1376.46 1343.81 1375.8 1346 C 1373.09 1355.05 1371.1 1376 1373.8 1385 C 1375.66 1391.21 1378.3 1397.3 1383 1402 C 1385.23 1404.23 1388.34 1405.23 1390 1408" stroke-width="2.83"/>
    <path d="M 1198.5 1338.5 C 1206.44 1325.27 1211.02 1310.14 1218.8 1296.8 C 1220.72 1293.51 1224.01 1291.13 1226.2 1288 C 1228.5 1284.72 1230.75 1281.15 1233.2 1278 C 1234.62 1276.17 1237.29 1275.54 1239 1274 C 1243.05 1270.35 1247.34 1266.32 1251.8 1263.2 C 1262.64 1255.61 1288.86 1244.34 1302 1240.4 C 1311.68 1237.5 1321.32 1234.5 1331 1231.6 C 1333.5 1230.85 1336.43 1231.26 1339 1231 C 1346.39 1230.26 1353.61 1227.74 1361 1227 C 1369.75 1226.13 1385.2 1227.8 1392 1221 C 1397.58 1215.42 1392.27 1203.74 1388 1199 C 1382.14 1192.48 1372.45 1189.85 1364 1189 C 1360.37 1188.64 1356.63 1189.36 1353 1189 C 1348.88 1188.59 1345.04 1186.37 1341 1186 C 1338.58 1185.78 1336.37 1186.76 1334 1187 C 1328.72 1187.53 1323.28 1186.47 1318 1187 C 1316.32 1187.17 1314.68 1187.83 1313 1188 C 1305.06 1188.79 1296.95 1188.2 1289 1189 C 1264.02 1191.5 1239.41 1198.8 1217 1210 C 1213.55 1211.72 1209.54 1212.43 1206 1214.2 C 1186.79 1223.8 1171.68 1241.05 1162.2 1260 C 1157.99 1268.43 1148.28 1299.38 1150 1308 C 1150.62 1311.08 1155 1311.58 1155 1315 C 1155 1321.16 1151 1326.95 1151 1333 C 1151 1345 1180.9 1364 1192 1364" stroke-width="4.00"/>
    <path d="M 1956 1190 C 1954 1194 1949.98 1196.05 1948 1200 C 1944.13 1207.74 1953.68 1216.84 1960 1220 C 1961.51 1220.76 1963.39 1220.92 1965 1221.4 C 1974.92 1224.38 1984.55 1227.95 1995 1229 C 2008.65 1230.36 2021.75 1231.63 2035 1235.6 C 2070.54 1246.26 2103.9 1268.19 2120.8 1302 C 2123.5 1307.41 2125.62 1314.1 2126.8 1320 C 2127.21 1322.05 2126.59 1324.25 2127.4 1326.2 C 2130.95 1334.73 2140.78 1336.95 2144.4 1349 C 2149.28 1365.28 2131 1373.01 2130 1384 C 2129.73 1386.97 2130.3 1390.03 2130 1393 C 2128.23 1410.69 2123.73 1436.14 2115.8 1452 C 2111.37 1460.85 2101.75 1466.39 2098 1475.4 C 2095.14 1482.27 2097 1490.71 2092.6 1497 C 2086.47 1505.76 2081.06 1501.96 2075 1506.2 C 2070.86 1509.1 2068.69 1514.3 2065.4 1518 C 2063.37 1520.28 2060.47 1521.3 2058.6 1523.8 C 2055.04 1528.55 2052.6 1534.14 2049.2 1539 C 2043.43 1547.24 2038.36 1555.77 2032.6 1564 C 2030.83 1566.53 2029.45 1569.69 2027.4 1572 C 2025.4 1574.25 2022.22 1575 2020 1577 C 2016.62 1580.04 2014.17 1583.83 2011 1587 C 2009.16 1588.84 2006.71 1589.87 2004.8 1591.6 C 1999.08 1596.8 1995.53 1604.47 1990 1610" stroke-width="4.00"/>
    <path d="M 1885 1191 C 1881.39 1198.21 1877.01 1198.29 1873.8 1209 C 1869.93 1221.89 1872 1243.35 1872 1257 C 1872 1259.95 1872.29 1263.07 1872 1266 C 1871.73 1268.69 1870.8 1271.27 1870.8 1274 C 1870.8 1276.03 1871.82 1278.03 1872 1280 C 1872.27 1283.02 1871 1286.81 1871 1290 C 1871 1311.12 1870.44 1330.48 1880.2 1350 C 1886.62 1362.84 1894.37 1375.3 1904 1386 C 1908.55 1391.05 1913.03 1396.17 1917.6 1401.2 C 1919.99 1403.83 1923.36 1404.71 1925 1408" stroke-width="2.00"/>
    <path d="M 1436 1192 C 1438.64 1193.32 1441.52 1193.67 1444 1195.4 C 1457.02 1204.52 1460.55 1221.83 1464.8 1236 C 1465.69 1238.95 1467.74 1241.68 1468 1244.8 C 1468.28 1248.17 1467.66 1251.63 1468 1255 C 1468.37 1258.7 1469.63 1262.3 1470 1266 C 1470.2 1268.02 1469.88 1270.03 1470.6 1272 C 1471.54 1274.57 1473.78 1276.56 1475 1279 C 1477.81 1284.63 1480.39 1290.37 1483.2 1296 C 1486 1301.6 1489.83 1306.9 1493.4 1312 C 1515.49 1343.56 1541.91 1370.73 1572 1394.8 C 1579.86 1401.09 1589.9 1403.9 1597 1411" stroke-width="2.83"/>
    <path d="M 1908 1192 C 1909.03 1195.08 1923.94 1212.25 1927.2 1216.6 C 1929.91 1220.21 1930.21 1225.02 1932.2 1229 C 1933.48 1231.56 1936.05 1233.85 1936.8 1236.6 C 1937.58 1239.48 1937.4 1242.2 1938.8 1245 C 1940.69 1248.78 1943.48 1252.91 1944.6 1257 C 1945.32 1259.62 1944.81 1262.37 1945.6 1265 C 1946.99 1269.65 1948.21 1274.35 1949.6 1279 C 1950.99 1283.63 1953.44 1288.18 1954.6 1292.8 C 1955.67 1297.09 1954.56 1301.65 1955 1306 C 1955.84 1314.4 1958.11 1338.87 1961.8 1345.2 C 1963.08 1347.4 1965.15 1348.93 1966.6 1351 C 1977.48 1366.55 1986.53 1371.43 2000 1383.4 C 2002.31 1385.45 2003.41 1388.41 2005.6 1390.6 C 2012.97 1397.97 2022.29 1403.27 2028.4 1412 C 2034.77 1421.09 2041.81 1430.02 2046.8 1440 C 2050.47 1447.33 2054.13 1454.67 2057.8 1462 C 2059.56 1465.52 2060.44 1469.48 2062.2 1473 C 2062.88 1474.35 2063.72 1475.23 2065 1476" stroke-width="2.83"/>
    <path d="M 1936 1192 C 1933.08 1196.38 1930.11 1200.95 1928.6 1206 C 1927.69 1209.04 1928.44 1212.12 1927 1215" stroke-width="2.00"/>
    <path d="M 1252 1198 C 1252 1205.84 1255.06 1210.79 1252.6 1219 C 1251.16 1223.81 1242.6 1230.57 1242.6 1233 C 1242.6 1237.51 1259.3 1250.3 1263 1254" stroke-width="2.83"/>
    <path d="M 1410 1202 C 1410 1203.23 1411.08 1206.08 1412 1207" stroke-width="2.00"/>
    <path d="M 1218 1210 C 1219.87 1213.74 1219.59 1218.9 1220 1223 C 1220.17 1224.68 1220.83 1226.32 1221 1228 C 1221.35 1231.5 1220.34 1234.59 1220 1238 C 1218.9 1249 1213.36 1258.76 1204 1265" stroke-width="2.00"/>
    <path d="M 2136 1214 C 2130.82 1216.59 2118.57 1207.04 2115.6 1211.2 C 2113.5 1214.14 2118.56 1219.51 2119.8 1222 C 2124.5 1231.41 2129.36 1240.88 2132.4 1251 C 2133.79 1255.65 2135.82 1272.33 2139 1274.8 C 2145.14 1279.57 2154.69 1267.62 2157.8 1278 C 2159.41 1283.37 2141.97 1290.56 2145.4 1302 C 2146.7 1306.34 2150.48 1311.84 2155 1313.2 C 2157.94 1314.08 2162.43 1311.43 2164.8 1314.2 C 2166.74 1316.46 2163.6 1319.28 2162.4 1321 C 2161.34 1322.51 2161.01 1324.37 2160.2 1326 C 2156.6 1333.19 2149.28 1336.57 2142 1339" stroke-width="2.00"/>
    <path d="M 1959 1220 C 1953.11 1224.91 1940.6 1224.4 1939 1234" stroke-width="2.83"/>
    <path d="M 1375 1228 C 1376.25 1231.75 1380.89 1231.67 1382 1235" stroke-width="2.83"/>
    <path d="M 1403 1228 C 1396.88 1229.02 1392.67 1234.1 1387 1235.8 C 1380.29 1237.81 1372.96 1238.3 1366 1239 C 1360 1239.6 1354.05 1242 1348 1242" stroke-width="2.00"/>
    <path d="M 1940 1235 C 1947.87 1235 1956.18 1234.22 1964 1235 C 2015.77 1240.18 2072.08 1266.69 2102.4 1310 C 2107.36 1317.08 2109.22 1325.44 2113 1333" stroke-width="2.00"/>
    <path d="M 1388 1236 C 1391.2 1239.2 1392.62 1241.43 1395 1245" stroke-width="2.83"/>
    <path d="M 1477 1236 C 1479.68 1237.34 1481.56 1239.69 1484 1241.4 C 1488.83 1244.78 1495.41 1246.72 1501 1248.4 C 1541.79 1260.64 1571.93 1250.26 1605 1287 C 1615.81 1299.02 1621.64 1313.81 1626.2 1329 C 1627.27 1332.57 1627.33 1336.43 1628.4 1340 C 1633.8 1357.99 1646.75 1379.75 1660 1393 C 1662.28 1395.28 1665.43 1400.19 1668.8 1400.8 C 1671.73 1401.33 1674.59 1397.81 1676.4 1396 C 1682.3 1390.1 1688.03 1383.55 1691.8 1376 C 1694.13 1371.33 1696.66 1366.01 1700 1362" stroke-width="4.00"/>
    <path d="M 1864 1241 C 1865.31 1242.31 1868.13 1243 1870 1243" stroke-width="4.00"/>
    <path d="M 1345 1243 C 1320.52 1247.08 1279.56 1263.44 1262 1281" stroke-width="2.00"/>
    <path d="M 1394 1246 C 1375.2 1249.13 1356.29 1252.11 1338 1257.6 C 1331.46 1259.56 1324.13 1261.74 1318 1264.8 C 1314.4 1266.6 1309.96 1269.34 1306 1270" stroke-width="2.00"/>
    <path d="M 1942 1248 C 1948.79 1245.74 1956.13 1247.31 1963 1248 C 1991.6 1250.86 2016.69 1257.26 2042 1271.5" stroke-width="2.00"/>
    <path d="M 1946 1260 C 1947.53 1260 1948.72 1260.3 1950 1261.2 C 1953.87 1263.91 1957.07 1267.65 1961 1270.4 C 1963.83 1272.38 1967.27 1273.48 1970 1275.6 C 1971.56 1276.81 1972.96 1278.16 1974.8 1279 C 1979.12 1280.97 1984.43 1282.23 1989 1283.6 C 1992.55 1284.67 1995.73 1286.56 1999 1288.2 C 2000.56 1288.98 2002.36 1289.11 2004 1289.6 C 2007.38 1290.61 2010.83 1293.02 2014 1294.6 C 2017.13 1296.16 2020.71 1296.41 2024 1297.4 C 2032 1299.8 2039.59 1304.49 2047 1308.2 C 2055.3 1312.35 2065.78 1318.83 2073 1324.6 C 2076.51 1327.41 2078.15 1331.43 2082 1334" stroke-width="5.66"/>
    <path d="M 1251 1261 C 1250.03 1259.06 1249.59 1256.79 1248.4 1255 C 1246.22 1251.73 1240.39 1249.56 1237 1252.2 C 1234.4 1254.23 1232 1268.44 1232 1272 C 1232 1273.82 1233.03 1275.55 1234 1277" stroke-width="2.00"/>
    <path d="M 1391 1264 C 1387.92 1264.51 1359.96 1276.17 1356.75 1278" stroke-width="2.00"/>
    <path d="M 2042 1271.5 C 2041.67 1271.33 2041.33 1271.17 2041 1271 C 2041 1272.45 2042.4 1271.7 2043 1272 C 2043.33 1272.33 2043.67 1272.67 2044 1273 C 2043.33 1272.5 2042.67 1272 2042 1271.5" stroke-width="2.83"/>
    <path d="M 1196 1274 C 1192.31 1277.69 1190.86 1282.06 1187.8 1286 C 1183.88 1291.04 1169.37 1297.36 1163 1298 C 1159.41 1298.36 1155.61 1298 1152 1298" stroke-width="2.00"/>
    <path d="M 2042 1271.5 C 2042.81 1271.97 2051.08 1278 2053 1278" stroke-width="2.00"/>
    <path d="M 1356.75 1278 C 1357.17 1277.33 1357.58 1276.67 1358 1276 C 1357.67 1276.33 1357.33 1276.67 1357 1277 C 1356.33 1277.33 1355.67 1277.67 1355 1278 C 1354.33 1278.33 1352.25 1279 1353 1279 C 1354.25 1278.67 1355.5 1278.33 1356.75 1278" stroke-width="2.00"/>
    <path d="M 1470 1276 C 1469.11 1277.77 1466.38 1301.22 1466 1305 C 1465.69 1308.07 1464.31 1310.93 1464 1314 C 1462.5 1329 1456.72 1345.61 1452.4 1360 C 1450.01 1367.98 1446.51 1375.58 1442.8 1383 C 1440.43 1387.75 1432.73 1395.62 1432 1400" stroke-width="2.00"/>
    <path d="M 1869 1277 C 1864.85 1279.76 1854.33 1299.38 1850.4 1305 C 1843.87 1314.33 1836.63 1323.52 1829 1332 C 1819.73 1342.3 1809.26 1351.76 1799 1361 C 1789.53 1369.52 1780.5 1378.85 1770 1386.2 C 1765.04 1389.67 1760.21 1393.27 1755 1396.4 C 1748.11 1400.53 1742.92 1400.62 1738 1408" stroke-width="2.83"/>
    <path d="M 1972 1279 C 1968.88 1281.08 1965.1 1281.23 1962 1283.4 C 1959.31 1285.28 1957.95 1288.53 1955 1290" stroke-width="2.83"/>
    <path d="M 1349 1280 C 1347.19 1283.02 1343.17 1283.32 1340.4 1285.4 C 1335.86 1288.81 1331.03 1292.17 1327 1296.2 C 1324.59 1298.61 1324.13 1302.24 1322.2 1305 C 1310.95 1321.07 1303.5 1338.6 1294.8 1356 C 1292.92 1359.76 1290.81 1363.97 1289.6 1368 C 1284.86 1383.79 1279.65 1399.46 1278 1416 C 1277.21 1423.85 1279.22 1432.23 1280 1440 C 1280.2 1442.01 1279.2 1444.02 1279 1446 C 1277.78 1458.15 1277.41 1470.31 1268.8 1480 C 1260.89 1488.9 1251.44 1484.78 1245 1488" stroke-width="2.00"/>
    <path d="M 2054 1280 C 2066.98 1284.33 2096.57 1319.72 2101 1333" stroke-width="2.83"/>
    <path d="M 1356.75 1278 C 1356.65 1278.56 1355.76 1281.32 1357 1282 C 1357.18 1282.1 1367.19 1283.06 1369 1283.6 C 1377.91 1286.27 1377.95 1291.94 1383 1298" stroke-width="2.00"/>
    <path d="M 1259 1283 C 1257.33 1284.67 1255.67 1286.33 1254 1288" stroke-width="2.83"/>
    <path d="M 1335 1287 C 1330.32 1284.66 1311.18 1296.21 1306 1298.8 C 1294.73 1304.43 1283.84 1310.7 1273 1317.2 C 1259.95 1325.03 1219.47 1353.14 1205 1348.8 C 1200.83 1347.55 1200.5 1341.83 1198.5 1338.5" stroke-width="2.83"/>
    <path d="M 1218 1295 C 1207.37 1295 1201.72 1304.64 1193 1309 C 1190.24 1310.38 1186.92 1310.52 1184 1311.4 C 1176.83 1313.55 1167.92 1321.84 1172 1330 C 1178.23 1342.46 1193.31 1331.01 1198.5 1338.5" stroke-width="2.00"/>
    <path d="M 2018 1297 C 2018 1298.66 2017.76 1300.48 2018.6 1302 C 2019.91 1304.36 2023.1 1306.1 2025 1308 C 2033.65 1316.65 2040.82 1326.08 2044.4 1338 C 2046.27 1344.23 2049.23 1350.32 2050.8 1356.6 C 2052.31 1362.65 2052.99 1368.97 2054.8 1375 C 2056.51 1380.72 2058.4 1387.01 2059 1393 C 2059.74 1400.36 2061.26 1407.64 2062 1415 C 2063.16 1426.63 2062.99 1449.05 2067.6 1459.2 C 2068.47 1461.12 2070.34 1462.38 2071.6 1464 C 2077.3 1471.33 2079.08 1477.09 2090 1476 C 2092.04 1475.8 2093.94 1475 2096 1475" stroke-width="2.00"/>
    <path d="M 1324 1298 C 1317.85 1298 1308.35 1305.19 1303 1308.4 C 1288.01 1317.4 1273.28 1326.6 1259 1336.6 C 1251.4 1341.92 1245.04 1348.85 1238.2 1355 C 1232.43 1360.2 1226.38 1365.43 1222 1372" stroke-width="2.83"/>
    <path d="M 1241 1300 C 1238.77 1304.46 1234.65 1307.93 1231.8 1312 C 1227.12 1318.69 1211 1339.57 1211 1347" stroke-width="2.83"/>
    <path d="M 2077 1326 C 2081.33 1326 2084.33 1328.96 2088 1330.8 C 2099.98 1336.79 2116.39 1336.85 2127 1328" stroke-width="2.00"/>
    <path d="M 1957 1331 C 1952.5 1331.75 1945.09 1339.54 1941 1342.4 C 1935.72 1346.09 1929.18 1349.55 1923 1351.4 C 1917.23 1353.13 1911 1354.4 1905 1355 C 1899.08 1355.59 1891.44 1353.28 1886 1356" stroke-width="2.00"/>
    <path d="M 1376 1336 C 1370.47 1338.76 1361.78 1358.75 1357.4 1365 C 1353.62 1370.39 1349.6 1376.31 1345.2 1381.2 C 1343.47 1383.12 1340.94 1384.26 1339 1386 C 1335.9 1388.79 1332.79 1391.9 1330 1395 C 1322.89 1402.9 1312.35 1418.94 1309 1429" stroke-width="2.83"/>
    <path d="M 1198.5 1338.5 C 1196.42 1341.97 1194.41 1345.9 1194 1350 C 1193.51 1354.87 1193.2 1360.97 1193.6 1365.8 C 1194.84 1380.71 1203.43 1422.26 1209.8 1435 C 1211.03 1437.47 1213.21 1439.41 1214.6 1441.8 C 1216.99 1445.91 1218.08 1450.76 1220.2 1455 C 1224.21 1463.02 1228.65 1470.64 1233.8 1478 C 1234.51 1479.02 1247.53 1493.44 1248 1493.8 C 1249.51 1494.97 1251.33 1495.37 1253 1496.2 C 1257.32 1498.36 1261.64 1502.06 1264.4 1506 C 1267.5 1510.42 1267.88 1515.36 1270.2 1520 C 1277.93 1535.45 1288.54 1549.91 1298.4 1564 C 1303.49 1571.27 1308.31 1578.73 1313.4 1586 C 1317.8 1592.29 1320.88 1599.46 1324.8 1606 C 1339.28 1630.13 1354.88 1656 1376 1675 C 1389.83 1687.44 1396.58 1688.49 1412 1696.2 C 1417.73 1699.07 1423.27 1702.33 1429 1705.2 C 1443.27 1712.33 1455.74 1722.87 1470 1730 C 1472.5 1731.25 1475.37 1730.98 1477.8 1732.4 C 1485.99 1737.18 1493.52 1743.56 1502 1747.8 C 1510.12 1751.86 1519.27 1755.98 1528 1758.6 C 1529.86 1759.16 1531.77 1759.24 1533.6 1760 C 1549.27 1766.53 1583.74 1798.77 1596 1800 C 1598.99 1800.3 1603.12 1800.47 1606 1799.6 C 1609.64 1798.51 1612.94 1795.74 1616 1793.6 C 1623.53 1788.33 1655.26 1765 1662 1765 C 1665.38 1765 1669.09 1764.57 1672.4 1765.4 C 1679.13 1767.08 1683.96 1770.78 1690 1773.8 C 1700.06 1778.83 1710.71 1782.87 1722 1784 C 1750.69 1786.87 1771.08 1778.66 1796 1766.2 C 1806.46 1760.97 1817.37 1755.34 1827 1748.6 C 1832.79 1744.55 1838.07 1739.37 1844 1735.6 C 1846.14 1734.24 1848.81 1734.3 1851 1733.2 C 1862.57 1727.42 1873.44 1718.79 1884 1711.4 C 1887.78 1708.76 1890.6 1705.06 1894 1702 C 1902.13 1694.68 1911.04 1687.87 1920 1681.6 C 1930.45 1674.29 1941.55 1667.91 1952 1660.6 C 1959 1655.7 1967.63 1652.73 1974 1647 C 1981.44 1640.3 1987.35 1632.39 1994 1625 C 2000.61 1617.66 2026 1583.65 2026 1575" stroke-width="4.00"/>
    <path d="M 1379 1342 C 1382.85 1343.92 1386.11 1346.86 1390 1348.8 C 1402.99 1355.29 1425.57 1356.44 1440 1355 C 1444.1 1354.59 1447.83 1354 1452 1354" stroke-width="2.00"/>
    <path d="M 1961 1348 C 1958.04 1353.92 1960.65 1362.55 1960 1369 C 1959.53 1373.69 1958.47 1378.31 1958 1383 C 1957.57 1387.27 1958.4 1392.04 1956.2 1396 C 1954.86 1398.41 1951.86 1400.93 1950 1403 C 1942.45 1411.39 1937.67 1408.12 1928 1409 C 1923.25 1409.43 1918.76 1412.73 1914 1413.6 C 1911.5 1414.05 1909.43 1413 1907 1413 C 1903.25 1413 1897.58 1414.32 1894 1415.4 C 1891.16 1416.25 1889.1 1419.09 1887 1421 C 1879.35 1427.96 1871.87 1435.68 1873 1447 C 1873.58 1452.79 1877.23 1456.7 1879 1462" stroke-width="2.00"/>
    <path d="M 2097 1348 C 2093.31 1352.43 2092.23 1357.77 2088 1362" stroke-width="2.00"/>
    <path d="M 1636 1361 C 1632.32 1362.23 1623.35 1360.7 1617 1362.6 C 1600.42 1367.57 1582.82 1384.45 1589 1403" stroke-width="2.00"/>
    <path d="M 1700 1362 C 1704.26 1362 1708.76 1361.58 1713 1362 C 1725.43 1363.24 1740.71 1372.69 1744.4 1385 C 1745.7 1389.35 1745 1394.5 1745 1399" stroke-width="2.00"/>
    <path d="M 1219 1377 C 1201.04 1403.93 1218.58 1429.84 1214 1439" stroke-width="2.00"/>
    <path d="M 1348 1381 C 1368.77 1381 1371.87 1394.86 1363.8 1411 C 1363.17 1412.26 1357.78 1421.83 1357.2 1422.6 C 1354.93 1425.63 1351.79 1427.87 1349.6 1431 C 1346.07 1436.04 1343.87 1442.04 1340.4 1447 C 1334.35 1455.64 1314.91 1484.86 1314 1494 C 1312.56 1508.43 1318.05 1519.57 1323.4 1532.4 C 1325.94 1538.51 1328.76 1544.51 1332.6 1550 C 1335.36 1553.94 1337.84 1558.06 1340.6 1562 C 1341.88 1563.82 1343.68 1565.29 1344.8 1567.2 C 1348.37 1573.31 1352.53 1588.34 1343 1591.2 C 1325.86 1596.34 1312.97 1570.35 1306.8 1558 C 1298.18 1540.76 1280.04 1513.61 1282 1494 C 1282.91 1484.91 1287.04 1477.52 1289.6 1469 C 1290.49 1466.05 1290.71 1462.84 1292 1460 C 1293.78 1456.08 1296.88 1452.85 1298.8 1449 C 1300.61 1445.37 1302.18 1441.64 1304 1438" stroke-width="2.00"/>
    <path d="M 1959 1389 C 1969.75 1385.42 1978.63 1382.19 1990 1385.6 C 1994.43 1386.93 1998.39 1389.23 2003 1390" stroke-width="2.00"/>
    <path d="M 1956 1397 C 1959.15 1401.73 1963.22 1404.8 1967 1409 C 1969.13 1411.37 1970.41 1414.23 1972.8 1416.4 C 1975.06 1418.45 1977.91 1419.68 1980 1422 C 1992.38 1435.75 2008.55 1456.51 2016.8 1473 C 2021.76 1482.91 2023.81 1494.1 2024.8 1505 C 2025.18 1509.15 2023.41 1513.86 2023 1518 C 2022.23 1525.67 2019.25 1538.62 2015 1545" stroke-width="2.83"/>
    <path d="M 1473 1403 C 1467.73 1401.24 1432.22 1400.03 1427 1401.6 C 1425.05 1402.18 1423.4 1403.6 1422 1405" stroke-width="2.00"/>
    <path d="M 1671 1401 C 1671.65 1401.65 1673 1406.21 1673 1407" stroke-width="4.00"/>
    <path d="M 1666 1402 C 1664.31 1403.69 1663.69 1406.31 1662 1408" stroke-width="2.83"/>
    <path d="M 1918 1403 C 1910.2 1406.9 1886.58 1405.04 1877 1406 C 1873.57 1406.34 1870.49 1407 1867 1407" stroke-width="2.00"/>
    <path d="M 1481 1404 C 1488.12 1404 1494.96 1405.3 1502 1406 C 1504.64 1406.26 1507.36 1405.74 1510 1406 C 1520.69 1407.07 1531.31 1408.93 1542 1410 C 1557.95 1411.6 1574.03 1411.75 1590 1413.2 C 1594.56 1413.61 1599.34 1412 1604 1412 C 1609.17 1412 1613.91 1412.49 1619 1413 C 1626.02 1413.7 1633.09 1412.69 1640 1412 C 1642.84 1411.72 1645.76 1412.24 1648.6 1412 C 1652.75 1411.65 1656.07 1409.39 1660 1408.6 C 1661.7 1408.26 1663.35 1409 1665 1409 C 1666.66 1409 1668.35 1408.15 1670 1408 C 1676.51 1407.41 1681.13 1411.59 1687.2 1412.6 C 1690.11 1413.09 1693.04 1411.7 1696 1412 C 1699.07 1412.31 1701.84 1413.32 1705 1413 C 1715.38 1411.96 1725.62 1409.44 1736 1408.4 C 1740.01 1408 1744.5 1409.2 1748.6 1409.2 C 1763.37 1409.2 1778.2 1409 1793 1409 C 1795.44 1409 1797.61 1408.24 1800 1408 C 1812.06 1406.79 1824.87 1408 1837 1408 C 1845.09 1408 1852.9 1407 1861 1407" stroke-width="2.00"/>
    <path d="M 1472 1417 C 1465.72 1413.86 1453.9 1414.69 1447 1414 C 1446.62 1413.96 1431.33 1410.32 1431 1410.2 C 1426.82 1408.68 1422.43 1405.4 1418 1405 C 1396.29 1403.03 1379.12 1415.63 1360 1422" stroke-width="2.83"/>
    <path d="M 1392 1410 C 1392 1411.67 1392 1413.33 1392 1415" stroke-width="2.41"/>
    <path d="M 1747 1411 C 1747 1414.7 1748.63 1418.32 1749 1422 C 1749.57 1427.73 1749.92 1433.46 1750.4 1439.2 C 1750.74 1443.31 1748.08 1452.25 1746.2 1456 C 1738.37 1471.66 1721.18 1474.62 1705 1473 C 1701.57 1472.66 1698.49 1472 1695 1472" stroke-width="2.00"/>
    <path d="M 1945 1411 C 1953.73 1411 1961.36 1415 1969 1415" stroke-width="2.00"/>
    <path d="M 1434 1412 C 1434 1416.21 1437.04 1418.48 1438.8 1422 C 1441.57 1427.54 1442 1432.93 1442 1439" stroke-width="2.00"/>
    <path d="M 1944 1412 C 1942.85 1415.46 1943.98 1420.03 1942 1423" stroke-width="2.00"/>
    <path d="M 1648 1413 C 1646.99 1419.09 1642.76 1423.38 1642 1431 C 1641.67 1434.3 1642.33 1437.7 1642 1441 C 1641.83 1442.68 1641.17 1444.32 1641 1446 C 1640.52 1450.81 1641.53 1455.3 1642 1460 C 1642.5 1464.95 1641.55 1470.04 1642 1475 C 1643.12 1487.27 1646.73 1510.81 1655 1520 C 1659.51 1525.01 1665.4 1526.66 1672 1526 C 1684.85 1524.71 1686.83 1507.87 1688.8 1498 C 1692.86 1477.71 1697.07 1453.75 1695 1433 C 1694.63 1429.34 1693.84 1424.28 1692.2 1421 C 1690.98 1418.55 1689.46 1416.77 1689 1414" stroke-width="2.00"/>
    <path d="M 1451 1415 C 1451 1421.85 1463.68 1424.18 1462 1441 C 1461.7 1443.96 1460.93 1445.69 1459 1448" stroke-width="2.00"/>
    <path d="M 1592 1415 C 1592 1423.4 1587.21 1431.67 1588 1441.2 C 1588.39 1445.89 1590.6 1451 1593 1455 C 1603.22 1472.04 1622.72 1475.05 1641 1472" stroke-width="2.00"/>
    <path d="M 1890 1417 C 1888.8 1416 1887.61 1415.16 1886 1415 C 1882.16 1414.62 1878.74 1415.63 1875 1416 C 1870.38 1416.46 1865.62 1415.54 1861 1416 C 1845.36 1417.56 1829.64 1418.44 1814 1420 C 1806.99 1420.7 1800.02 1423 1793 1423" stroke-width="2.00"/>
    <path d="M 1479 1418 C 1485.1 1418 1490.96 1420.4 1497 1421 C 1507.59 1422.06 1518.85 1424.75 1529 1427.8 C 1532.84 1428.95 1537.09 1428.63 1541 1429.8 C 1556.31 1434.39 1571.81 1437.94 1587 1443" stroke-width="2.00"/>
    <path d="M 1395 1424 C 1400.14 1439.43 1410.84 1451.69 1418 1466" stroke-width="2.00"/>
    <path d="M 1790 1424 C 1784.11 1427.92 1776.35 1429.03 1770 1432.2 C 1763.96 1435.22 1758.47 1438.84 1752 1441" stroke-width="2.00"/>
    <path d="M 1531 1429 C 1528.26 1434.49 1525.41 1439.88 1522 1445" stroke-width="2.00"/>
    <path d="M 1941 1430 C 1941 1441.65 1931.39 1460.42 1925 1470" stroke-width="2.00"/>
    <path d="M 1441 1444 C 1441 1451.34 1435.96 1455.26 1435 1461" stroke-width="2.00"/>
    <path d="M 1517 1453 C 1515.58 1454.42 1515.27 1455.73 1514 1457" stroke-width="2.00"/>
    <path d="M 1449 1458 C 1446.25 1458.92 1443.8 1460.56 1441 1461.4 C 1438.46 1462.16 1435.77 1461.96 1433.2 1462.6 C 1428.89 1463.68 1423.88 1465.3 1419.8 1467 C 1408.67 1471.64 1396.75 1479.9 1391.2 1491 C 1389.65 1494.1 1389.39 1497.72 1388.4 1501 C 1387.63 1503.57 1385.75 1505.49 1385 1508 C 1381.83 1518.56 1379.51 1529.46 1376 1540" stroke-width="2.00"/>
    <path d="M 2067 1462 C 2065.8 1464.39 2067 1466.48 2067 1469 C 2067 1472.97 2065.61 1477.09 2066 1481 C 2066.78 1488.81 2068.22 1496.44 2065.2 1504 C 2063.16 1509.09 2057.2 1515.4 2060 1521" stroke-width="2.83"/>
    <path d="M 1290 1463 C 1284.75 1463 1282.95 1468 1277 1468" stroke-width="2.83"/>
    <path d="M 1881 1463 C 1885.91 1471.19 1903.37 1472.86 1912 1472 C 1914.37 1471.76 1916.3 1470.19 1918.8 1470.4 C 1925.64 1470.97 1936.03 1474.03 1941 1479 C 1942.73 1480.73 1943.57 1482.96 1944.8 1485 C 1955.07 1502.12 1950.25 1518.9 1957.8 1534 C 1963.8 1546 1972.99 1558.4 1986 1563.6 C 1989.84 1565.14 1994.33 1565.16 1998 1567" stroke-width="2.00"/>
    <path d="M 2023 1502 C 2019.19 1502.63 2002.59 1516.19 1998 1519.4 C 1992.45 1523.29 1986.04 1526.78 1980 1529.8 C 1973.93 1532.84 1966.66 1534.23 1961 1538" stroke-width="2.83"/>
    <path d="M 1384 1508 C 1381.69 1508 1353.46 1521.57 1349 1523.8 C 1341.66 1527.47 1331.69 1528.66 1325 1532" stroke-width="2.00"/>
    <path d="M 1413 1657 C 1417.65 1661.65 1423.43 1666.85 1429 1670.4 C 1431.81 1672.19 1435.21 1672.65 1438 1674.6 C 1447.46 1681.22 1484.18 1708 1493.6 1708 C 1510.56 1708 1523.17 1692.14 1529.6 1678 C 1530.92 1675.1 1533.37 1655.73 1533 1652 C 1532.04 1642.38 1526.21 1636.69 1523.6 1628 C 1519.25 1613.52 1517.66 1597.84 1507 1586 C 1499.31 1577.46 1489.55 1572.02 1479 1567.8 C 1476.42 1566.77 1473.46 1566.23 1471 1565 C 1465.87 1562.44 1461.75 1557.13 1457 1553.8 C 1451.95 1550.26 1446.54 1546.57 1441 1543.8 C 1430.97 1538.79 1411.56 1539.23 1401 1542.4 C 1377.79 1549.36 1362.61 1572.11 1365 1596 C 1366.09 1606.92 1372.18 1619.11 1378.4 1628 C 1384.88 1637.26 1400.45 1648.63 1410 1655" stroke-width="2.00"/>
    <path d="M 1372 1549 C 1370.86 1552.41 1368.83 1555.1 1366.8 1558 C 1361.34 1565.81 1356.28 1568 1347 1568" stroke-width="2.83"/>
    <path d="M 2012 1551 C 2008.73 1557.53 2002.65 1561.49 1999.2 1567.4 C 1996.72 1571.64 1995.54 1581.48 1997.8 1586 C 1998.97 1588.35 2001.17 1590.17 2003 1592" stroke-width="2.00"/>
    <path d="M 1338 1593 C 1338 1597.45 1341.33 1600.26 1343.2 1604 C 1347.13 1611.87 1350.27 1620.13 1354.2 1628 C 1360.53 1640.66 1375.01 1652.01 1385 1662" stroke-width="2.83"/>
    <path d="M 1986 1615 C 1981.15 1619.85 1977.11 1625.4 1972 1630 C 1964.67 1636.6 1955.94 1642.06 1949 1649" stroke-width="2.83"/>
    <path d="M 1676 1637 C 1668.08 1633.04 1658.55 1635.54 1652 1641" stroke-width="2.00"/>
    <path d="M 1680 1638 C 1703.11 1653.41 1710.02 1682.45 1721.8 1706 C 1723.89 1710.18 1724.92 1714.84 1727 1719" stroke-width="2.00"/>
    <path d="M 1648 1644 C 1639.97 1649.36 1633.87 1658.18 1628.4 1666 C 1623.92 1672.4 1604 1710.68 1604 1717" stroke-width="2.83"/>
    <path d="M 1927 1650 C 1929.92 1648.06 1932.15 1645.39 1935 1643.4 C 1946.88 1635.08 1962.1 1623.86 1970.4 1612 C 1975 1605.43 1977 1597.91 1977 1590 C 1977 1567.49 1958.73 1550.82 1938 1544.6 C 1934.16 1543.45 1929.94 1543.39 1926 1543 C 1924.32 1542.83 1922.68 1542.17 1921 1542 C 1904.62 1540.36 1885.21 1547.15 1872 1556.4 C 1868.06 1559.16 1864.3 1563.25 1860 1565.4 C 1858.45 1566.18 1856.64 1566.11 1855 1566.6 C 1849.47 1568.26 1832.88 1576.09 1829.4 1580 C 1820.82 1589.65 1813.54 1599.54 1809.8 1612 C 1807.94 1618.2 1807.46 1624.8 1805.6 1631 C 1803.35 1638.51 1797.85 1643.51 1797 1652 C 1796.58 1656.17 1797.59 1659.94 1798 1664 C 1800.01 1684.15 1814.92 1707 1837 1707 C 1839.13 1707 1841.53 1707.32 1843.6 1706.8 C 1849.17 1705.41 1853.86 1700.37 1859 1697.8 C 1860.84 1696.88 1863 1696.94 1864.8 1695.8 C 1867.94 1693.8 1874.01 1687.4 1878 1684.6 C 1892.98 1674.12 1908.91 1664.74 1923 1653" stroke-width="2.00"/>
    <path d="M 1935 1659 C 1926.87 1665.78 1917.66 1671.54 1909 1677.6 C 1903.51 1681.44 1898.49 1685.96 1893 1689.8 C 1883.21 1696.66 1873.86 1705.02 1865 1713 C 1863.29 1714.54 1861.89 1716.48 1860 1717.8 C 1858.12 1719.11 1856.22 1719.63 1854 1720" stroke-width="2.83"/>
    <path d="M 1702 1661 C 1723.8 1650.1 1740.33 1653.73 1762 1662.4 C 1769.72 1665.49 1777.58 1668.49 1785 1672.2 C 1789.95 1674.68 1794.71 1677.24 1800 1679" stroke-width="2.00"/>
    <path d="M 1388 1665 C 1393.09 1666.7 1397.63 1671.34 1402 1674.4 C 1407.78 1678.45 1414.22 1681.55 1420 1685.6 C 1431.68 1693.78 1443.32 1702.02 1455 1710.2 C 1457.79 1712.15 1461.06 1712.95 1463.8 1715 C 1468.29 1718.37 1475.04 1724.27 1476 1730" stroke-width="2.83"/>
    <path d="M 1628 1666 C 1605.71 1654.86 1577.83 1652.78 1555 1664.2 C 1547.44 1667.98 1540.01 1673.33 1532 1676" stroke-width="2.00"/>
    <path d="M 1431 1673 C 1431 1681.2 1460.19 1701.14 1462 1712" stroke-width="2.83"/>
    <path d="M 1644 1682 C 1647.75 1670.75 1658.36 1652.14 1673 1658 C 1675.52 1659.01 1678.04 1660.04 1680 1662 C 1685.68 1667.68 1698.45 1708.71 1700 1718" stroke-width="2.00"/>
    <path d="M 1641 1689 C 1641 1697.14 1633 1712.01 1633 1721" stroke-width="2.00"/>
    <path d="M 1523 1692 C 1530.71 1699.71 1545.49 1711.45 1556 1714.6 C 1562.29 1716.49 1581.23 1716.86 1585 1720" stroke-width="2.00"/>
    <path d="M 1808 1694 C 1799.7 1699.53 1792.34 1706.44 1784 1712" stroke-width="2.83"/>
    <path d="M 1863 1698 C 1861.9 1704.58 1856.91 1709.18 1854 1715 C 1852.73 1717.54 1852.96 1720.55 1851.4 1723 C 1849.05 1726.69 1846 1728.28 1846 1733" stroke-width="2.83"/>
    <path d="M 1843 1708 C 1842.21 1712.72 1838.56 1715.55 1835 1718.4 C 1827.16 1724.68 1817.64 1729.91 1808 1732.8 C 1800.88 1734.94 1792.42 1736.26 1785 1737 C 1780.71 1737.43 1776.29 1736.57 1772 1737 C 1769.64 1737.24 1767.42 1738.24 1765 1738 C 1762.22 1737.72 1759.78 1736.28 1757 1736 C 1754.35 1735.74 1751.5 1735.91 1749 1734.8 C 1746.52 1733.7 1742.44 1728.67 1742 1726" stroke-width="2.00"/>
    <path d="M 1493 1709 C 1493 1713.65 1497.71 1716.77 1501 1719.4 C 1511.97 1728.18 1526.91 1734.59 1541 1736 C 1547.42 1736.64 1553.22 1735.41 1559.5 1737.5" stroke-width="2.00"/>
    <path d="M 1777 1717 C 1773.22 1717 1769.78 1720 1766 1720" stroke-width="2.00"/>
    <path d="M 1658 1764 C 1656.99 1757.92 1657.57 1751.92 1655.2 1746 C 1654.24 1743.6 1652.03 1742.05 1650.6 1740 C 1638.19 1722.28 1628.05 1718 1607 1718 C 1601.03 1718 1593.68 1718.13 1588 1720.2 C 1582.49 1722.2 1576.86 1729.2 1572 1732.6 C 1570.4 1733.72 1568.4 1734.2 1567 1735.6 C 1565.42 1737.18 1564.93 1739.29 1563.6 1741 C 1561.76 1743.36 1558.81 1744.32 1557 1746.8 C 1554.97 1749.59 1552.19 1753.7 1551.2 1757 C 1550.53 1759.24 1550.73 1762.06 1549.2 1764 C 1548.78 1764.54 1548.17 1763 1548 1762.33" stroke-width="2.83"/>
    <path d="M 1763 1721 C 1757.99 1721.83 1744.3 1725.14 1740.2 1724.8 C 1732.82 1724.19 1726.44 1719.74 1719 1719 C 1697.89 1716.89 1688.5 1722 1679 1741 C 1677.98 1743.05 1676.34 1744.65 1675.2 1746.6 C 1672.59 1751.08 1673 1758.95 1673 1764" stroke-width="2.83"/>
    <path d="M 1559 1721 C 1559 1726.55 1559.24 1731.98 1559.5 1737.5" stroke-width="2.00"/>
    <path d="M 1544 1725 C 1542.58 1726.42 1542.27 1727.73 1541 1729" stroke-width="2.00"/>
    <path d="M 1536 1736 C 1534.78 1739.67 1534.19 1743.72 1532 1747" stroke-width="2.00"/>
    <path d="M 1559.5 1737.5 C 1560.82 1736.18 1560.29 1736 1562 1736 C 1562.67 1736 1564.61 1735.74 1564 1736 C 1562.5 1736.5 1561 1737 1559.5 1737.5" stroke-width="4.00"/>
    <path d="M 1741 1736 C 1730.54 1742.97 1726.08 1751.08 1736 1761" stroke-width="2.00"/>
    <path d="M 1753 1737 C 1753.09 1737.56 1764.93 1758.57 1765.4 1759 C 1770.15 1763.27 1777.05 1765.08 1781 1771" stroke-width="2.83"/>
    <path d="M 1559.5 1737.5 C 1556.82 1738.04 1557 1737.62 1557 1740 C 1557 1740.92 1557.01 1744.79 1558 1743 C 1558.5 1741.17 1559 1739.33 1559.5 1737.5" stroke-width="2.00"/>
    <path d="M 1655 1743 C 1658.51 1735.98 1653.19 1726.7 1663 1721.8 C 1664.56 1721.02 1666.43 1720.73 1668 1721.6 C 1674.32 1725.11 1671.31 1739.47 1675 1745" stroke-width="2.00"/>
    <path d="M 1771 1744 C 1774.26 1747.26 1775 1749.51 1775 1754" stroke-width="2.00"/>
    <path d="M 1761 1755 C 1739.11 1747.7 1719.39 1740.58 1696 1747.6 C 1688.7 1749.79 1679.56 1757.24 1675 1758" stroke-width="2.00"/>
    <path d="M 1531 1751 C 1531.53 1751.53 1533 1757.41 1533 1758" stroke-width="2.41"/>
    <path d="M 1548 1762.33 C 1543.82 1759.89 1543.14 1758.86 1540 1762" stroke-width="2.00"/>
    <path d="M 1656 1760 C 1649.94 1757.98 1645.69 1753.05 1640 1750.2 C 1635.07 1747.73 1630.24 1746.37 1625 1744.8 C 1611.45 1740.74 1585.58 1744.91 1573 1751.2 C 1564.67 1755.36 1557.08 1759.91 1548 1762.33" stroke-width="2.00"/>
    <path d="M 1766 1761 C 1764.82 1762.18 1763.72 1764 1762 1764" stroke-width="2.83"/>
    <path d="M 1740 1763 C 1744.85 1765.42 1749.7 1765 1755 1765" stroke-width="2.00"/>
    <path d="M 2047 1078.6 C 2059.18 1081.04 2060.05 1114.27 2062 1124 C 2062 1136.42 2062.09 1165 2045 1165 C 2025.27 1161.05 2027 1138.39 2027 1123 C 2027 1112.65 2035.37 1080.93 2047 1078.6 Z" stroke-width="2.00"/>
  </g>
  <g id="outlines-dashed" fill="none" stroke="#E2001A"
     stroke-linecap="round" stroke-linejoin="round">
    <path d="M 1517 1116 C 1521.71 1111.29 1524.52 1104.98 1529 1100 C 1534 1094.44 1540.33 1089.11 1544.6 1083 C 1545.41 1081.85 1545.71 1080.36 1545.2 1079 C 1542.86 1072.73 1518.48 1047.34 1512 1045.4 C 1508.47 1044.34 1505.16 1045.22 1502 1046.8 C 1489.12 1053.24 1491.07 1060.2 1495 1072" stroke-width="2.83" stroke-dasharray="43.3 5.7"/>
    <path d="M 1304 1271 C 1297.02 1275.66 1289.02 1278.85 1282 1283.6 C 1265.09 1295.03 1251.04 1309.37 1239.4 1326 C 1237.05 1329.35 1233.16 1333.66 1233.05 1337.99 C 1232.9 1343.79 1236.18 1350.48 1237.5 1356.1 C 1239.52 1364.66 1237.16 1370.9 1244.88 1377.76 C 1261.68 1392.69 1272.54 1381.77 1283 1387" stroke-width="2.00" stroke-dasharray="28.3 11.7"/>
    <path d="M 2090 1340 C 2096.37 1346.37 2103.68 1351.54 2110 1358 C 2116.08 1364.22 2122.49 1376.24 2130 1380" stroke-width="2.83" stroke-dasharray="15.9 5.3"/>
    <path d="M 2052 1356 C 2056.53 1356.76 2060.07 1359.74 2064 1361.9 C 2068.06 1364.13 2078.7 1366.15 2083 1364" stroke-width="2.00" stroke-dasharray="9.0 3.8"/>
    <path d="M 1911 1415 C 1909.04 1420.88 1902.88 1424.35 1900.2 1430 C 1891.29 1448.77 1903.89 1456.89 1916 1469" stroke-width="2.83" stroke-dasharray="19.3 5.0"/>
    <path d="M 1802 1423 C 1804.93 1431.78 1811.6 1441.6 1815.8 1450 C 1821.54 1461.47 1827.52 1473.1 1834.28 1484 C 1838.68 1491.09 1842.05 1498.99 1846.6 1506 C 1855.58 1519.82 1869.34 1532.9 1883 1542" stroke-width="2.00" stroke-dasharray="9.5 4.6"/>
    <path d="M 1763 1438 C 1765.19 1442.38 1766.37 1447.43 1768.2 1452 C 1773.42 1465.06 1778.72 1478.44 1785 1491 C 1789.94 1500.87 1794.08 1511.34 1799.4 1521 C 1808.83 1538.15 1818.24 1555.48 1827 1573" stroke-width="2.00" stroke-dasharray="18.6 4.8"/>
    <path d="M 1572 1439 C 1570.07 1442.86 1568.61 1447.06 1566.8 1451 C 1562.53 1460.29 1556.77 1468.87 1552.2 1478 C 1549.89 1482.61 1547.87 1487.53 1545.28 1492 C 1535.13 1509.5 1524.24 1526.92 1515.2 1545 C 1509.92 1555.56 1505.27 1566.46 1500 1577" stroke-width="2.00" stroke-dasharray="13.3 5.5"/>
    <path d="M 1503 1474 C 1501.81 1474.71 1476.36 1508.15 1471.79 1513.13 C 1465.23 1520.26 1458.2 1527.52 1451 1534 C 1447.33 1537.3 1442.81 1538.79 1440 1543" stroke-width="2.00" stroke-dasharray="11.7 9.4"/>
  </g>
</svg>
